<ttFont>
    <TTGlyph name="A" xMin="-70" yMin="-20" xMax="1528" yMax="1550">
      <contour>
        <pt x="119" y="7" on="1"/>
        <pt x="82" y="-20" on="0"/>
        <pt x="-13" y="-20" on="0"/>
        <pt x="-70" y="29" on="0"/>
        <pt x="-70" y="93" on="0"/>
        <pt x="-60" y="108" on="1"/>
        <pt x="-31" y="91" on="0"/>
        <pt x="54" y="91" on="0"/>
        <pt x="97" y="114" on="0"/>
        <pt x="117" y="134" on="1"/>
        <pt x="259" y="555" on="1"/>
        <pt x="279" y="624" on="1"/>
        <pt x="288" y="655" on="0"/>
        <pt x="288" y="681" on="1"/>
        <pt x="288" y="772" on="0"/>
        <pt x="202" y="797" on="1"/>
        <pt x="281" y="827" on="0"/>
        <pt x="313" y="862" on="1"/>
        <pt x="363" y="917" on="0"/>
        <pt x="392" y="1007" on="1"/>
        <pt x="502" y="1376" on="1"/>
        <pt x="470" y="1419" on="0"/>
        <pt x="382" y="1419" on="0"/>
        <pt x="344" y="1400" on="1"/>
        <pt x="334" y="1418" on="0"/>
        <pt x="334" y="1463" on="0"/>
        <pt x="353" y="1503" on="0"/>
        <pt x="370" y="1518" on="1"/>
        <pt x="408" y="1550" on="0"/>
        <pt x="548" y="1550" on="0"/>
        <pt x="597" y="1508" on="1"/>
        <pt x="647" y="1550" on="0"/>
        <pt x="796" y="1550" on="0"/>
        <pt x="840" y="1510" on="1"/>
        <pt x="904" y="1550" on="0"/>
        <pt x="1036" y="1550" on="0"/>
        <pt x="1109" y="1500" on="0"/>
        <pt x="1109" y="1457" on="1"/>
        <pt x="1109" y="1437" on="0"/>
        <pt x="1097" y="1422" on="1"/>
        <pt x="1074" y="1439" on="0"/>
        <pt x="1043" y="1439" on="1"/>
        <pt x="976" y="1439" on="0"/>
        <pt x="956" y="1348" on="1"/>
        <pt x="1084" y="939" on="1"/>
        <pt x="1108" y="862" on="0"/>
        <pt x="1204" y="819" on="1"/>
        <pt x="1231" y="807" on="0"/>
        <pt x="1259" y="797" on="1"/>
        <pt x="1159" y="764" on="0"/>
        <pt x="1159" y="698" on="1"/>
        <pt x="1159" y="673" on="0"/>
        <pt x="1167" y="654" on="1"/>
        <pt x="1358" y="142" on="1"/>
        <pt x="1402" y="96" on="0"/>
        <pt x="1492" y="96" on="0"/>
        <pt x="1517" y="113" on="1"/>
        <pt x="1528" y="105" on="0"/>
        <pt x="1528" y="61" on="0"/>
        <pt x="1514" y="24" on="0"/>
        <pt x="1499" y="10" on="1"/>
        <pt x="1467" y="-20" on="0"/>
        <pt x="1343" y="-20" on="0"/>
        <pt x="1297" y="14" on="1"/>
        <pt x="1245" y="-20" on="0"/>
        <pt x="1114" y="-20" on="0"/>
        <pt x="1067" y="13" on="1"/>
        <pt x="1022" y="-20" on="0"/>
        <pt x="900" y="-20" on="0"/>
        <pt x="820" y="31" on="0"/>
        <pt x="818" y="78" on="1"/>
        <pt x="818" y="106" on="0"/>
        <pt x="829" y="113" on="1"/>
        <pt x="856" y="96" on="0"/>
        <pt x="884" y="96" on="1"/>
        <pt x="943" y="96" on="0"/>
        <pt x="967" y="120" on="1"/>
        <pt x="891" y="375" on="1"/>
        <pt x="350" y="375" on="1"/>
        <pt x="284" y="154" on="1"/>
        <pt x="325" y="91" on="0"/>
        <pt x="442" y="91" on="0"/>
        <pt x="471" y="108" on="1"/>
        <pt x="482" y="90" on="0"/>
        <pt x="482" y="27" on="0"/>
        <pt x="420" y="-20" on="0"/>
        <pt x="322" y="-20" on="0"/>
        <pt x="281" y="5" on="1"/>
        <pt x="245" y="-20" on="0"/>
        <pt x="152" y="-20" on="0"/>
      </contour>
      <contour>
        <pt x="850" y="510" on="1"/>
        <pt x="618" y="1281" on="1"/>
        <pt x="390" y="510" on="1"/>
      </contour>
      <contour>
        <pt x="1041" y="265" on="1"/>
        <pt x="1059" y="265" on="0"/>
        <pt x="1059" y="305" on="1"/>
        <pt x="1059" y="375" on="0"/>
        <pt x="1038" y="441" on="1"/>
        <pt x="1000" y="558" on="1"/>
        <pt x="960" y="690" on="0"/>
        <pt x="960" y="724" on="1"/>
        <pt x="959" y="780" on="0"/>
        <pt x="1009" y="798" on="1"/>
        <pt x="940" y="812" on="0"/>
        <pt x="925" y="841" on="1"/>
        <pt x="918" y="853" on="0"/>
        <pt x="909" y="867" on="0"/>
        <pt x="900" y="886" on="0"/>
        <pt x="888" y="916" on="0"/>
        <pt x="878" y="944" on="1"/>
        <pt x="816" y="1131" on="1"/>
        <pt x="794" y="1201" on="0"/>
        <pt x="751" y="1237" on="1"/>
        <pt x="738" y="1248" on="0"/>
        <pt x="727" y="1250" on="1"/>
        <pt x="794" y="1008" on="0"/>
        <pt x="815" y="940" on="1"/>
        <pt x="960" y="494" on="0"/>
        <pt x="989" y="411" on="1"/>
      </contour>
      <contour>
        <pt x="1336" y="175" on="1"/>
        <pt x="1338" y="169" on="1"/>
      </contour>
    </TTGlyph>
    <TTGlyph name="AE" xMin="-70" yMin="-42" xMax="2054" yMax="1581">
      <contour>
        <pt x="119" y="7" on="1"/>
        <pt x="82" y="-20" on="0"/>
        <pt x="-13" y="-20" on="0"/>
        <pt x="-70" y="29" on="0"/>
        <pt x="-70" y="93" on="0"/>
        <pt x="-60" y="108" on="1"/>
        <pt x="-31" y="91" on="0"/>
        <pt x="68" y="91" on="0"/>
        <pt x="102" y="108" on="1"/>
        <pt x="379" y="555" on="1"/>
        <pt x="428" y="637" on="0"/>
        <pt x="430" y="748" on="0"/>
        <pt x="382" y="798" on="1"/>
        <pt x="472" y="817" on="0"/>
        <pt x="505" y="835" on="1"/>
        <pt x="568" y="869" on="0"/>
        <pt x="613" y="940" on="1"/>
        <pt x="882" y="1383" on="1"/>
        <pt x="851" y="1419" on="0"/>
        <pt x="767" y="1419" on="0"/>
        <pt x="729" y="1400" on="1"/>
        <pt x="719" y="1418" on="0"/>
        <pt x="719" y="1463" on="0"/>
        <pt x="738" y="1503" on="0"/>
        <pt x="756" y="1518" on="1"/>
        <pt x="793" y="1550" on="0"/>
        <pt x="933" y="1550" on="0"/>
        <pt x="982" y="1508" on="1"/>
        <pt x="1032" y="1550" on="0"/>
        <pt x="1175" y="1550" on="0"/>
        <pt x="1230" y="1511" on="1"/>
        <pt x="1336" y="1550" on="0"/>
        <pt x="1475" y="1550" on="1"/>
        <pt x="1578" y="1550" on="0"/>
        <pt x="1651" y="1530" on="1"/>
        <pt x="1740" y="1506" on="1"/>
        <pt x="1756" y="1502" on="0"/>
        <pt x="1771" y="1502" on="1"/>
        <pt x="1799" y="1502" on="0"/>
        <pt x="1799" y="1542" on="1"/>
        <pt x="1799" y="1552" on="0"/>
        <pt x="1792" y="1576" on="1"/>
        <pt x="1820" y="1581" on="0"/>
        <pt x="1906" y="1581" on="0"/>
        <pt x="1966" y="1524" on="0"/>
        <pt x="1966" y="1413" on="0"/>
        <pt x="1944" y="1383" on="1"/>
        <pt x="1974" y="1337" on="0"/>
        <pt x="1974" y="1213" on="0"/>
        <pt x="1934" y="1168" on="1"/>
        <pt x="1947" y="1136" on="0"/>
        <pt x="1947" y="1071" on="0"/>
        <pt x="1928" y="1021" on="0"/>
        <pt x="1914" y="1004" on="1"/>
        <pt x="1885" y="969" on="0"/>
        <pt x="1857" y="969" on="1"/>
        <pt x="1815" y="969" on="0"/>
        <pt x="1781" y="987" on="1"/>
        <pt x="1793" y="1011" on="0"/>
        <pt x="1793" y="1082" on="0"/>
        <pt x="1788" y="1139" on="0"/>
        <pt x="1782" y="1168" on="1"/>
        <pt x="1750" y="1322" on="0"/>
        <pt x="1625" y="1386" on="1"/>
        <pt x="1570" y="1415" on="0"/>
        <pt x="1437" y="1415" on="0"/>
        <pt x="1314" y="1341" on="0"/>
        <pt x="1289" y="1272" on="1"/>
        <pt x="1289" y="885" on="1"/>
        <pt x="1324" y="863" on="0"/>
        <pt x="1360" y="863" on="1"/>
        <pt x="1494" y="863" on="0"/>
        <pt x="1516" y="922" on="1"/>
        <pt x="1527" y="950" on="0"/>
        <pt x="1527" y="1026" on="0"/>
        <pt x="1506" y="1050" on="1"/>
        <pt x="1526" y="1064" on="0"/>
        <pt x="1556" y="1064" on="1"/>
        <pt x="1623" y="1064" on="0"/>
        <pt x="1653" y="1010" on="1"/>
        <pt x="1664" y="991" on="0"/>
        <pt x="1664" y="945" on="0"/>
        <pt x="1652" y="911" on="1"/>
        <pt x="1693" y="864" on="0"/>
        <pt x="1693" y="735" on="0"/>
        <pt x="1652" y="688" on="1"/>
        <pt x="1664" y="654" on="0"/>
        <pt x="1664" y="599" on="0"/>
        <pt x="1642" y="549" on="0"/>
        <pt x="1626" y="534" on="1"/>
        <pt x="1595" y="506" on="0"/>
        <pt x="1556" y="506" on="1"/>
        <pt x="1528" y="506" on="0"/>
        <pt x="1506" y="522" on="1"/>
        <pt x="1527" y="557" on="0"/>
        <pt x="1527" y="604" on="1"/>
        <pt x="1527" y="697" on="0"/>
        <pt x="1476" y="719" on="1"/>
        <pt x="1431" y="737" on="0"/>
        <pt x="1325" y="737" on="0"/>
        <pt x="1289" y="716" on="1"/>
        <pt x="1289" y="224" on="1"/>
        <pt x="1317" y="178" on="0"/>
        <pt x="1435" y="114" on="0"/>
        <pt x="1508" y="114" on="1"/>
        <pt x="1664" y="114" on="0"/>
        <pt x="1759" y="244" on="1"/>
        <pt x="1848" y="365" on="0"/>
        <pt x="1848" y="515" on="1"/>
        <pt x="1848" y="549" on="0"/>
        <pt x="1840" y="573" on="1"/>
        <pt x="1871" y="598" on="0"/>
        <pt x="1919" y="598" on="0"/>
        <pt x="1947" y="586" on="0"/>
        <pt x="1958" y="576" on="1"/>
        <pt x="1982" y="554" on="0"/>
        <pt x="1982" y="527" on="1"/>
        <pt x="1976" y="478" on="1"/>
        <pt x="1976" y="459" on="0"/>
        <pt x="1986" y="447" on="1"/>
        <pt x="2006" y="426" on="0"/>
        <pt x="2006" y="389" on="0"/>
        <pt x="1994" y="363" on="1"/>
        <pt x="2017" y="350" on="0"/>
        <pt x="2054" y="299" on="0"/>
        <pt x="2054" y="218" on="0"/>
        <pt x="2011" y="175" on="1"/>
        <pt x="2037" y="145" on="0"/>
        <pt x="2037" y="37" on="0"/>
        <pt x="1972" y="-42" on="0"/>
        <pt x="1920" y="-42" on="1"/>
        <pt x="1892" y="-42" on="0"/>
        <pt x="1862" y="-36" on="1"/>
        <pt x="1866" y="-14" on="0"/>
        <pt x="1866" y="8" on="1"/>
        <pt x="1866" y="54" on="0"/>
        <pt x="1824" y="54" on="1"/>
        <pt x="1793" y="54" on="0"/>
        <pt x="1733" y="30" on="1"/>
        <pt x="1608" y="-20" on="0"/>
        <pt x="1326" y="-20" on="0"/>
        <pt x="1227" y="17" on="1"/>
        <pt x="1175" y="-20" on="0"/>
        <pt x="1106" y="-20" on="1"/>
        <pt x="1040" y="-20" on="0"/>
        <pt x="989" y="12" on="1"/>
        <pt x="938" y="-20" on="0"/>
        <pt x="851" y="-20" on="0"/>
        <pt x="795" y="-5" on="0"/>
        <pt x="774" y="8" on="1"/>
        <pt x="731" y="34" on="0"/>
        <pt x="731" y="73" on="1"/>
        <pt x="731" y="93" on="0"/>
        <pt x="742" y="108" on="1"/>
        <pt x="764" y="91" on="0"/>
        <pt x="798" y="91" on="1"/>
        <pt x="887" y="91" on="0"/>
        <pt x="921" y="167" on="1"/>
        <pt x="921" y="375" on="1"/>
        <pt x="431" y="375" on="1"/>
        <pt x="280" y="123" on="1"/>
        <pt x="322" y="91" on="0"/>
        <pt x="442" y="91" on="0"/>
        <pt x="471" y="108" on="1"/>
        <pt x="482" y="90" on="0"/>
        <pt x="482" y="27" on="0"/>
        <pt x="420" y="-20" on="0"/>
        <pt x="322" y="-20" on="0"/>
        <pt x="281" y="5" on="1"/>
        <pt x="245" y="-20" on="0"/>
        <pt x="152" y="-20" on="0"/>
      </contour>
      <contour>
        <pt x="1017" y="265" on="1"/>
        <pt x="1067" y="284" on="0"/>
        <pt x="1072" y="396" on="1"/>
        <pt x="1078" y="508" on="0"/>
        <pt x="1078" y="904" on="0"/>
        <pt x="1077" y="1035" on="0"/>
        <pt x="1076" y="1075" on="1"/>
        <pt x="1073" y="1193" on="0"/>
        <pt x="1034" y="1242" on="0"/>
        <pt x="1017" y="1250" on="1"/>
      </contour>
      <contour>
        <pt x="921" y="530" on="1"/>
        <pt x="921" y="1188" on="1"/>
        <pt x="525" y="530" on="1"/>
      </contour>
      <contour>
        <pt x="1269" y="275" on="1"/>
        <pt x="1269" y="269" on="0"/>
        <pt x="1270" y="266" on="1"/>
      </contour>
      <contour>
        <pt x="125" y="121" on="1"/>
        <pt x="137" y="130" on="0"/>
        <pt x="149" y="142" on="1"/>
      </contour>
    </TTGlyph>
    <TTGlyph name="Aacute" xMin="-70" yMin="-20" xMax="1528" yMax="2020">
      <contour>
        <pt x="119" y="7" on="1"/>
        <pt x="82" y="-20" on="0"/>
        <pt x="-13" y="-20" on="0"/>
        <pt x="-70" y="29" on="0"/>
        <pt x="-70" y="93" on="0"/>
        <pt x="-60" y="108" on="1"/>
        <pt x="-31" y="91" on="0"/>
        <pt x="54" y="91" on="0"/>
        <pt x="97" y="114" on="0"/>
        <pt x="117" y="134" on="1"/>
        <pt x="259" y="555" on="1"/>
        <pt x="279" y="624" on="1"/>
        <pt x="288" y="655" on="0"/>
        <pt x="288" y="681" on="1"/>
        <pt x="288" y="772" on="0"/>
        <pt x="202" y="797" on="1"/>
        <pt x="281" y="827" on="0"/>
        <pt x="313" y="862" on="1"/>
        <pt x="363" y="917" on="0"/>
        <pt x="392" y="1007" on="1"/>
        <pt x="502" y="1376" on="1"/>
        <pt x="470" y="1419" on="0"/>
        <pt x="382" y="1419" on="0"/>
        <pt x="344" y="1400" on="1"/>
        <pt x="334" y="1418" on="0"/>
        <pt x="334" y="1463" on="0"/>
        <pt x="353" y="1503" on="0"/>
        <pt x="370" y="1518" on="1"/>
        <pt x="408" y="1550" on="0"/>
        <pt x="548" y="1550" on="0"/>
        <pt x="597" y="1508" on="1"/>
        <pt x="647" y="1550" on="0"/>
        <pt x="796" y="1550" on="0"/>
        <pt x="840" y="1510" on="1"/>
        <pt x="904" y="1550" on="0"/>
        <pt x="1036" y="1550" on="0"/>
        <pt x="1109" y="1500" on="0"/>
        <pt x="1109" y="1457" on="1"/>
        <pt x="1109" y="1437" on="0"/>
        <pt x="1097" y="1422" on="1"/>
        <pt x="1074" y="1439" on="0"/>
        <pt x="1043" y="1439" on="1"/>
        <pt x="976" y="1439" on="0"/>
        <pt x="956" y="1348" on="1"/>
        <pt x="1084" y="939" on="1"/>
        <pt x="1108" y="862" on="0"/>
        <pt x="1204" y="819" on="1"/>
        <pt x="1231" y="807" on="0"/>
        <pt x="1259" y="797" on="1"/>
        <pt x="1159" y="764" on="0"/>
        <pt x="1159" y="698" on="1"/>
        <pt x="1159" y="673" on="0"/>
        <pt x="1167" y="654" on="1"/>
        <pt x="1358" y="142" on="1"/>
        <pt x="1402" y="96" on="0"/>
        <pt x="1492" y="96" on="0"/>
        <pt x="1517" y="113" on="1"/>
        <pt x="1528" y="105" on="0"/>
        <pt x="1528" y="61" on="0"/>
        <pt x="1514" y="24" on="0"/>
        <pt x="1499" y="10" on="1"/>
        <pt x="1467" y="-20" on="0"/>
        <pt x="1343" y="-20" on="0"/>
        <pt x="1297" y="14" on="1"/>
        <pt x="1245" y="-20" on="0"/>
        <pt x="1114" y="-20" on="0"/>
        <pt x="1067" y="13" on="1"/>
        <pt x="1022" y="-20" on="0"/>
        <pt x="900" y="-20" on="0"/>
        <pt x="820" y="31" on="0"/>
        <pt x="818" y="78" on="1"/>
        <pt x="818" y="106" on="0"/>
        <pt x="829" y="113" on="1"/>
        <pt x="856" y="96" on="0"/>
        <pt x="884" y="96" on="1"/>
        <pt x="943" y="96" on="0"/>
        <pt x="967" y="120" on="1"/>
        <pt x="891" y="375" on="1"/>
        <pt x="350" y="375" on="1"/>
        <pt x="284" y="154" on="1"/>
        <pt x="325" y="91" on="0"/>
        <pt x="442" y="91" on="0"/>
        <pt x="471" y="108" on="1"/>
        <pt x="482" y="90" on="0"/>
        <pt x="482" y="27" on="0"/>
        <pt x="420" y="-20" on="0"/>
        <pt x="322" y="-20" on="0"/>
        <pt x="281" y="5" on="1"/>
        <pt x="245" y="-20" on="0"/>
        <pt x="152" y="-20" on="0"/>
      </contour>
      <contour>
        <pt x="850" y="510" on="1"/>
        <pt x="618" y="1281" on="1"/>
        <pt x="390" y="510" on="1"/>
      </contour>
      <contour>
        <pt x="1041" y="265" on="1"/>
        <pt x="1059" y="265" on="0"/>
        <pt x="1059" y="305" on="1"/>
        <pt x="1059" y="375" on="0"/>
        <pt x="1038" y="441" on="1"/>
        <pt x="1000" y="558" on="1"/>
        <pt x="960" y="690" on="0"/>
        <pt x="960" y="724" on="1"/>
        <pt x="959" y="780" on="0"/>
        <pt x="1009" y="798" on="1"/>
        <pt x="940" y="812" on="0"/>
        <pt x="925" y="841" on="1"/>
        <pt x="918" y="853" on="0"/>
        <pt x="909" y="867" on="0"/>
        <pt x="900" y="886" on="0"/>
        <pt x="888" y="916" on="0"/>
        <pt x="878" y="944" on="1"/>
        <pt x="816" y="1131" on="1"/>
        <pt x="794" y="1201" on="0"/>
        <pt x="751" y="1237" on="1"/>
        <pt x="738" y="1248" on="0"/>
        <pt x="727" y="1250" on="1"/>
        <pt x="794" y="1008" on="0"/>
        <pt x="815" y="940" on="1"/>
        <pt x="960" y="494" on="0"/>
        <pt x="989" y="411" on="1"/>
      </contour>
      <contour>
        <pt x="1336" y="175" on="1"/>
        <pt x="1338" y="169" on="1"/>
      </contour>
      <contour>
        <pt x="656" y="1980" on="1"/>
        <pt x="692" y="2020" on="0"/>
        <pt x="767" y="2020" on="1"/>
        <pt x="829" y="2020" on="0"/>
        <pt x="861" y="1991" on="1"/>
        <pt x="917" y="1940" on="0"/>
        <pt x="917" y="1808" on="0"/>
        <pt x="823" y="1680" on="0"/>
        <pt x="750" y="1648" on="1"/>
        <pt x="643" y="1600" on="0"/>
        <pt x="584" y="1600" on="1"/>
        <pt x="564" y="1600" on="0"/>
        <pt x="536" y="1610" on="0"/>
        <pt x="536" y="1624" on="1"/>
        <pt x="536" y="1642" on="0"/>
        <pt x="592" y="1698" on="0"/>
        <pt x="631" y="1766" on="0"/>
        <pt x="642" y="1800" on="1"/>
        <pt x="660" y="1857" on="0"/>
        <pt x="660" y="1963" on="0"/>
      </contour>
      <contour>
        <pt x="726" y="1961" on="1"/>
        <pt x="737" y="1937" on="0"/>
        <pt x="737" y="1864" on="0"/>
        <pt x="726" y="1806" on="0"/>
        <pt x="714" y="1778" on="1"/>
        <pt x="689" y="1725" on="0"/>
        <pt x="634" y="1666" on="1"/>
        <pt x="711" y="1702" on="0"/>
        <pt x="755" y="1770" on="1"/>
        <pt x="791" y="1826" on="0"/>
        <pt x="791" y="1878" on="1"/>
        <pt x="791" y="1968" on="0"/>
        <pt x="746" y="1968" on="1"/>
        <pt x="733" y="1968" on="0"/>
      </contour>
    </TTGlyph>
    <TTGlyph name="Acircumflex" xMin="-70" yMin="-20" xMax="1528" yMax="1980">
      <contour>
        <pt x="119" y="7" on="1"/>
        <pt x="82" y="-20" on="0"/>
        <pt x="-13" y="-20" on="0"/>
        <pt x="-70" y="29" on="0"/>
        <pt x="-70" y="93" on="0"/>
        <pt x="-60" y="108" on="1"/>
        <pt x="-31" y="91" on="0"/>
        <pt x="54" y="91" on="0"/>
        <pt x="97" y="114" on="0"/>
        <pt x="117" y="134" on="1"/>
        <pt x="259" y="555" on="1"/>
        <pt x="279" y="624" on="1"/>
        <pt x="288" y="655" on="0"/>
        <pt x="288" y="681" on="1"/>
        <pt x="288" y="772" on="0"/>
        <pt x="202" y="797" on="1"/>
        <pt x="281" y="827" on="0"/>
        <pt x="313" y="862" on="1"/>
        <pt x="363" y="917" on="0"/>
        <pt x="392" y="1007" on="1"/>
        <pt x="502" y="1376" on="1"/>
        <pt x="470" y="1419" on="0"/>
        <pt x="382" y="1419" on="0"/>
        <pt x="344" y="1400" on="1"/>
        <pt x="334" y="1418" on="0"/>
        <pt x="334" y="1463" on="0"/>
        <pt x="353" y="1503" on="0"/>
        <pt x="370" y="1518" on="1"/>
        <pt x="408" y="1550" on="0"/>
        <pt x="548" y="1550" on="0"/>
        <pt x="597" y="1508" on="1"/>
        <pt x="647" y="1550" on="0"/>
        <pt x="796" y="1550" on="0"/>
        <pt x="840" y="1510" on="1"/>
        <pt x="904" y="1550" on="0"/>
        <pt x="1036" y="1550" on="0"/>
        <pt x="1109" y="1500" on="0"/>
        <pt x="1109" y="1457" on="1"/>
        <pt x="1109" y="1437" on="0"/>
        <pt x="1097" y="1422" on="1"/>
        <pt x="1074" y="1439" on="0"/>
        <pt x="1043" y="1439" on="1"/>
        <pt x="976" y="1439" on="0"/>
        <pt x="956" y="1348" on="1"/>
        <pt x="1084" y="939" on="1"/>
        <pt x="1108" y="862" on="0"/>
        <pt x="1204" y="819" on="1"/>
        <pt x="1231" y="807" on="0"/>
        <pt x="1259" y="797" on="1"/>
        <pt x="1159" y="764" on="0"/>
        <pt x="1159" y="698" on="1"/>
        <pt x="1159" y="673" on="0"/>
        <pt x="1167" y="654" on="1"/>
        <pt x="1358" y="142" on="1"/>
        <pt x="1402" y="96" on="0"/>
        <pt x="1492" y="96" on="0"/>
        <pt x="1517" y="113" on="1"/>
        <pt x="1528" y="105" on="0"/>
        <pt x="1528" y="61" on="0"/>
        <pt x="1514" y="24" on="0"/>
        <pt x="1499" y="10" on="1"/>
        <pt x="1467" y="-20" on="0"/>
        <pt x="1343" y="-20" on="0"/>
        <pt x="1297" y="14" on="1"/>
        <pt x="1245" y="-20" on="0"/>
        <pt x="1114" y="-20" on="0"/>
        <pt x="1067" y="13" on="1"/>
        <pt x="1022" y="-20" on="0"/>
        <pt x="900" y="-20" on="0"/>
        <pt x="820" y="31" on="0"/>
        <pt x="818" y="78" on="1"/>
        <pt x="818" y="106" on="0"/>
        <pt x="829" y="113" on="1"/>
        <pt x="856" y="96" on="0"/>
        <pt x="884" y="96" on="1"/>
        <pt x="943" y="96" on="0"/>
        <pt x="967" y="120" on="1"/>
        <pt x="891" y="375" on="1"/>
        <pt x="350" y="375" on="1"/>
        <pt x="284" y="154" on="1"/>
        <pt x="325" y="91" on="0"/>
        <pt x="442" y="91" on="0"/>
        <pt x="471" y="108" on="1"/>
        <pt x="482" y="90" on="0"/>
        <pt x="482" y="27" on="0"/>
        <pt x="420" y="-20" on="0"/>
        <pt x="322" y="-20" on="0"/>
        <pt x="281" y="5" on="1"/>
        <pt x="245" y="-20" on="0"/>
        <pt x="152" y="-20" on="0"/>
      </contour>
      <contour>
        <pt x="850" y="510" on="1"/>
        <pt x="618" y="1281" on="1"/>
        <pt x="390" y="510" on="1"/>
      </contour>
      <contour>
        <pt x="1041" y="265" on="1"/>
        <pt x="1059" y="265" on="0"/>
        <pt x="1059" y="305" on="1"/>
        <pt x="1059" y="375" on="0"/>
        <pt x="1038" y="441" on="1"/>
        <pt x="1000" y="558" on="1"/>
        <pt x="960" y="690" on="0"/>
        <pt x="960" y="724" on="1"/>
        <pt x="959" y="780" on="0"/>
        <pt x="1009" y="798" on="1"/>
        <pt x="940" y="812" on="0"/>
        <pt x="925" y="841" on="1"/>
        <pt x="918" y="853" on="0"/>
        <pt x="909" y="867" on="0"/>
        <pt x="900" y="886" on="0"/>
        <pt x="888" y="916" on="0"/>
        <pt x="878" y="944" on="1"/>
        <pt x="816" y="1131" on="1"/>
        <pt x="794" y="1201" on="0"/>
        <pt x="751" y="1237" on="1"/>
        <pt x="738" y="1248" on="0"/>
        <pt x="727" y="1250" on="1"/>
        <pt x="794" y="1008" on="0"/>
        <pt x="815" y="940" on="1"/>
        <pt x="960" y="494" on="0"/>
        <pt x="989" y="411" on="1"/>
      </contour>
      <contour>
        <pt x="1336" y="175" on="1"/>
        <pt x="1338" y="169" on="1"/>
      </contour>
      <contour>
        <pt x="570" y="1645" on="1"/>
        <pt x="507" y="1560" on="0"/>
        <pt x="441" y="1560" on="1"/>
        <pt x="390" y="1560" on="0"/>
        <pt x="385" y="1596" on="1"/>
        <pt x="594" y="1887" on="1"/>
        <pt x="664" y="1980" on="0"/>
        <pt x="720" y="1980" on="1"/>
        <pt x="767" y="1980" on="0"/>
        <pt x="811" y="1936" on="1"/>
        <pt x="830" y="1917" on="0"/>
        <pt x="856" y="1887" on="1"/>
        <pt x="1086" y="1612" on="1"/>
        <pt x="1073" y="1589" on="0"/>
        <pt x="1005" y="1560" on="0"/>
        <pt x="934" y="1560" on="0"/>
        <pt x="881" y="1571" on="0"/>
        <pt x="857" y="1582" on="1"/>
        <pt x="821" y="1600" on="0"/>
        <pt x="760" y="1657" on="1"/>
        <pt x="651" y="1760" on="1"/>
      </contour>
      <contour>
        <pt x="714" y="1845" on="1"/>
        <pt x="687" y="1811" on="1"/>
        <pt x="796" y="1708" on="1"/>
        <pt x="863" y="1644" on="0"/>
        <pt x="923" y="1644" on="1"/>
      </contour>
    </TTGlyph>
    <TTGlyph name="Adieresis" xMin="-70" yMin="-20" xMax="1528" yMax="1940">
      <contour>
        <pt x="119" y="7" on="1"/>
        <pt x="82" y="-20" on="0"/>
        <pt x="-13" y="-20" on="0"/>
        <pt x="-70" y="29" on="0"/>
        <pt x="-70" y="93" on="0"/>
        <pt x="-60" y="108" on="1"/>
        <pt x="-31" y="91" on="0"/>
        <pt x="54" y="91" on="0"/>
        <pt x="97" y="114" on="0"/>
        <pt x="117" y="134" on="1"/>
        <pt x="259" y="555" on="1"/>
        <pt x="279" y="624" on="1"/>
        <pt x="288" y="655" on="0"/>
        <pt x="288" y="681" on="1"/>
        <pt x="288" y="772" on="0"/>
        <pt x="202" y="797" on="1"/>
        <pt x="281" y="827" on="0"/>
        <pt x="313" y="862" on="1"/>
        <pt x="363" y="917" on="0"/>
        <pt x="392" y="1007" on="1"/>
        <pt x="502" y="1376" on="1"/>
        <pt x="470" y="1419" on="0"/>
        <pt x="382" y="1419" on="0"/>
        <pt x="344" y="1400" on="1"/>
        <pt x="334" y="1418" on="0"/>
        <pt x="334" y="1463" on="0"/>
        <pt x="353" y="1503" on="0"/>
        <pt x="370" y="1518" on="1"/>
        <pt x="408" y="1550" on="0"/>
        <pt x="548" y="1550" on="0"/>
        <pt x="597" y="1508" on="1"/>
        <pt x="647" y="1550" on="0"/>
        <pt x="796" y="1550" on="0"/>
        <pt x="840" y="1510" on="1"/>
        <pt x="904" y="1550" on="0"/>
        <pt x="1036" y="1550" on="0"/>
        <pt x="1109" y="1500" on="0"/>
        <pt x="1109" y="1457" on="1"/>
        <pt x="1109" y="1437" on="0"/>
        <pt x="1097" y="1422" on="1"/>
        <pt x="1074" y="1439" on="0"/>
        <pt x="1043" y="1439" on="1"/>
        <pt x="976" y="1439" on="0"/>
        <pt x="956" y="1348" on="1"/>
        <pt x="1084" y="939" on="1"/>
        <pt x="1108" y="862" on="0"/>
        <pt x="1204" y="819" on="1"/>
        <pt x="1231" y="807" on="0"/>
        <pt x="1259" y="797" on="1"/>
        <pt x="1159" y="764" on="0"/>
        <pt x="1159" y="698" on="1"/>
        <pt x="1159" y="673" on="0"/>
        <pt x="1167" y="654" on="1"/>
        <pt x="1358" y="142" on="1"/>
        <pt x="1402" y="96" on="0"/>
        <pt x="1492" y="96" on="0"/>
        <pt x="1517" y="113" on="1"/>
        <pt x="1528" y="105" on="0"/>
        <pt x="1528" y="61" on="0"/>
        <pt x="1514" y="24" on="0"/>
        <pt x="1499" y="10" on="1"/>
        <pt x="1467" y="-20" on="0"/>
        <pt x="1343" y="-20" on="0"/>
        <pt x="1297" y="14" on="1"/>
        <pt x="1245" y="-20" on="0"/>
        <pt x="1114" y="-20" on="0"/>
        <pt x="1067" y="13" on="1"/>
        <pt x="1022" y="-20" on="0"/>
        <pt x="900" y="-20" on="0"/>
        <pt x="820" y="31" on="0"/>
        <pt x="818" y="78" on="1"/>
        <pt x="818" y="106" on="0"/>
        <pt x="829" y="113" on="1"/>
        <pt x="856" y="96" on="0"/>
        <pt x="884" y="96" on="1"/>
        <pt x="943" y="96" on="0"/>
        <pt x="967" y="120" on="1"/>
        <pt x="891" y="375" on="1"/>
        <pt x="350" y="375" on="1"/>
        <pt x="284" y="154" on="1"/>
        <pt x="325" y="91" on="0"/>
        <pt x="442" y="91" on="0"/>
        <pt x="471" y="108" on="1"/>
        <pt x="482" y="90" on="0"/>
        <pt x="482" y="27" on="0"/>
        <pt x="420" y="-20" on="0"/>
        <pt x="322" y="-20" on="0"/>
        <pt x="281" y="5" on="1"/>
        <pt x="245" y="-20" on="0"/>
        <pt x="152" y="-20" on="0"/>
      </contour>
      <contour>
        <pt x="850" y="510" on="1"/>
        <pt x="618" y="1281" on="1"/>
        <pt x="390" y="510" on="1"/>
      </contour>
      <contour>
        <pt x="1041" y="265" on="1"/>
        <pt x="1059" y="265" on="0"/>
        <pt x="1059" y="305" on="1"/>
        <pt x="1059" y="375" on="0"/>
        <pt x="1038" y="441" on="1"/>
        <pt x="1000" y="558" on="1"/>
        <pt x="960" y="690" on="0"/>
        <pt x="960" y="724" on="1"/>
        <pt x="959" y="780" on="0"/>
        <pt x="1009" y="798" on="1"/>
        <pt x="940" y="812" on="0"/>
        <pt x="925" y="841" on="1"/>
        <pt x="918" y="853" on="0"/>
        <pt x="909" y="867" on="0"/>
        <pt x="900" y="886" on="0"/>
        <pt x="888" y="916" on="0"/>
        <pt x="878" y="944" on="1"/>
        <pt x="816" y="1131" on="1"/>
        <pt x="794" y="1201" on="0"/>
        <pt x="751" y="1237" on="1"/>
        <pt x="738" y="1248" on="0"/>
        <pt x="727" y="1250" on="1"/>
        <pt x="794" y="1008" on="0"/>
        <pt x="815" y="940" on="1"/>
        <pt x="960" y="494" on="0"/>
        <pt x="989" y="411" on="1"/>
      </contour>
      <contour>
        <pt x="1336" y="175" on="1"/>
        <pt x="1338" y="169" on="1"/>
      </contour>
      <contour>
        <pt x="1030" y="1603" on="0"/>
        <pt x="948" y="1652" on="0"/>
        <pt x="917" y="1710" on="0"/>
        <pt x="898" y="1733" on="0"/>
        <pt x="877" y="1750" on="0"/>
        <pt x="864" y="1756" on="1"/>
        <pt x="835" y="1771" on="1"/>
        <pt x="869" y="1792" on="0"/>
        <pt x="910" y="1825" on="0"/>
        <pt x="947" y="1894" on="0"/>
        <pt x="1027" y="1940" on="0"/>
        <pt x="1074" y="1940" on="1"/>
        <pt x="1169" y="1940" on="0"/>
        <pt x="1215" y="1855" on="1"/>
        <pt x="1247" y="1796" on="0"/>
        <pt x="1307" y="1771" on="1"/>
        <pt x="1281" y="1756" on="1"/>
        <pt x="1239" y="1734" on="0"/>
        <pt x="1215" y="1693" on="1"/>
        <pt x="1165" y="1603" on="0"/>
        <pt x="1074" y="1603" on="1"/>
      </contour>
      <contour>
        <pt x="712" y="1693" on="1"/>
        <pt x="662" y="1603" on="0"/>
        <pt x="572" y="1603" on="1"/>
        <pt x="527" y="1603" on="0"/>
        <pt x="445" y="1652" on="0"/>
        <pt x="414" y="1710" on="0"/>
        <pt x="395" y="1733" on="0"/>
        <pt x="374" y="1750" on="0"/>
        <pt x="361" y="1756" on="1"/>
        <pt x="332" y="1771" on="1"/>
        <pt x="366" y="1792" on="0"/>
        <pt x="407" y="1825" on="0"/>
        <pt x="444" y="1894" on="0"/>
        <pt x="524" y="1940" on="0"/>
        <pt x="572" y="1940" on="1"/>
        <pt x="666" y="1940" on="0"/>
        <pt x="712" y="1855" on="1"/>
        <pt x="744" y="1796" on="0"/>
        <pt x="804" y="1771" on="1"/>
        <pt x="778" y="1756" on="1"/>
        <pt x="736" y="1734" on="0"/>
      </contour>
      <contour>
        <pt x="1031" y="1724" on="0"/>
        <pt x="1025" y="1751" on="0"/>
        <pt x="1025" y="1820" on="0"/>
        <pt x="1059" y="1869" on="1"/>
        <pt x="1039" y="1869" on="0"/>
        <pt x="1009" y="1859" on="0"/>
        <pt x="987" y="1829" on="0"/>
        <pt x="977" y="1811" on="0"/>
        <pt x="970" y="1801" on="1"/>
        <pt x="954" y="1776" on="0"/>
        <pt x="943" y="1771" on="1"/>
        <pt x="957" y="1763" on="0"/>
        <pt x="980" y="1727" on="0"/>
        <pt x="996" y="1708" on="1"/>
        <pt x="1020" y="1678" on="0"/>
        <pt x="1059" y="1678" on="1"/>
        <pt x="1053" y="1688" on="0"/>
        <pt x="1041" y="1705" on="0"/>
      </contour>
      <contour>
        <pt x="528" y="1724" on="0"/>
        <pt x="522" y="1751" on="0"/>
        <pt x="522" y="1820" on="0"/>
        <pt x="556" y="1869" on="1"/>
        <pt x="536" y="1869" on="0"/>
        <pt x="506" y="1859" on="0"/>
        <pt x="484" y="1829" on="0"/>
        <pt x="474" y="1811" on="0"/>
        <pt x="468" y="1801" on="1"/>
        <pt x="451" y="1776" on="0"/>
        <pt x="440" y="1771" on="1"/>
        <pt x="454" y="1763" on="0"/>
        <pt x="477" y="1727" on="0"/>
        <pt x="493" y="1708" on="1"/>
        <pt x="517" y="1678" on="0"/>
        <pt x="556" y="1678" on="1"/>
        <pt x="550" y="1688" on="0"/>
        <pt x="538" y="1705" on="0"/>
      </contour>
    </TTGlyph>
    <TTGlyph name="Agrave" xMin="-70" yMin="-20" xMax="1528" yMax="2020">
      <contour>
        <pt x="119" y="7" on="1"/>
        <pt x="82" y="-20" on="0"/>
        <pt x="-13" y="-20" on="0"/>
        <pt x="-70" y="29" on="0"/>
        <pt x="-70" y="93" on="0"/>
        <pt x="-60" y="108" on="1"/>
        <pt x="-31" y="91" on="0"/>
        <pt x="54" y="91" on="0"/>
        <pt x="97" y="114" on="0"/>
        <pt x="117" y="134" on="1"/>
        <pt x="259" y="555" on="1"/>
        <pt x="279" y="624" on="1"/>
        <pt x="288" y="655" on="0"/>
        <pt x="288" y="681" on="1"/>
        <pt x="288" y="772" on="0"/>
        <pt x="202" y="797" on="1"/>
        <pt x="281" y="827" on="0"/>
        <pt x="313" y="862" on="1"/>
        <pt x="363" y="917" on="0"/>
        <pt x="392" y="1007" on="1"/>
        <pt x="502" y="1376" on="1"/>
        <pt x="470" y="1419" on="0"/>
        <pt x="382" y="1419" on="0"/>
        <pt x="344" y="1400" on="1"/>
        <pt x="334" y="1418" on="0"/>
        <pt x="334" y="1463" on="0"/>
        <pt x="353" y="1503" on="0"/>
        <pt x="370" y="1518" on="1"/>
        <pt x="408" y="1550" on="0"/>
        <pt x="548" y="1550" on="0"/>
        <pt x="597" y="1508" on="1"/>
        <pt x="647" y="1550" on="0"/>
        <pt x="796" y="1550" on="0"/>
        <pt x="840" y="1510" on="1"/>
        <pt x="904" y="1550" on="0"/>
        <pt x="1036" y="1550" on="0"/>
        <pt x="1109" y="1500" on="0"/>
        <pt x="1109" y="1457" on="1"/>
        <pt x="1109" y="1437" on="0"/>
        <pt x="1097" y="1422" on="1"/>
        <pt x="1074" y="1439" on="0"/>
        <pt x="1043" y="1439" on="1"/>
        <pt x="976" y="1439" on="0"/>
        <pt x="956" y="1348" on="1"/>
        <pt x="1084" y="939" on="1"/>
        <pt x="1108" y="862" on="0"/>
        <pt x="1204" y="819" on="1"/>
        <pt x="1231" y="807" on="0"/>
        <pt x="1259" y="797" on="1"/>
        <pt x="1159" y="764" on="0"/>
        <pt x="1159" y="698" on="1"/>
        <pt x="1159" y="673" on="0"/>
        <pt x="1167" y="654" on="1"/>
        <pt x="1358" y="142" on="1"/>
        <pt x="1402" y="96" on="0"/>
        <pt x="1492" y="96" on="0"/>
        <pt x="1517" y="113" on="1"/>
        <pt x="1528" y="105" on="0"/>
        <pt x="1528" y="61" on="0"/>
        <pt x="1514" y="24" on="0"/>
        <pt x="1499" y="10" on="1"/>
        <pt x="1467" y="-20" on="0"/>
        <pt x="1343" y="-20" on="0"/>
        <pt x="1297" y="14" on="1"/>
        <pt x="1245" y="-20" on="0"/>
        <pt x="1114" y="-20" on="0"/>
        <pt x="1067" y="13" on="1"/>
        <pt x="1022" y="-20" on="0"/>
        <pt x="900" y="-20" on="0"/>
        <pt x="820" y="31" on="0"/>
        <pt x="818" y="78" on="1"/>
        <pt x="818" y="106" on="0"/>
        <pt x="829" y="113" on="1"/>
        <pt x="856" y="96" on="0"/>
        <pt x="884" y="96" on="1"/>
        <pt x="943" y="96" on="0"/>
        <pt x="967" y="120" on="1"/>
        <pt x="891" y="375" on="1"/>
        <pt x="350" y="375" on="1"/>
        <pt x="284" y="154" on="1"/>
        <pt x="325" y="91" on="0"/>
        <pt x="442" y="91" on="0"/>
        <pt x="471" y="108" on="1"/>
        <pt x="482" y="90" on="0"/>
        <pt x="482" y="27" on="0"/>
        <pt x="420" y="-20" on="0"/>
        <pt x="322" y="-20" on="0"/>
        <pt x="281" y="5" on="1"/>
        <pt x="245" y="-20" on="0"/>
        <pt x="152" y="-20" on="0"/>
      </contour>
      <contour>
        <pt x="850" y="510" on="1"/>
        <pt x="618" y="1281" on="1"/>
        <pt x="390" y="510" on="1"/>
      </contour>
      <contour>
        <pt x="1041" y="265" on="1"/>
        <pt x="1059" y="265" on="0"/>
        <pt x="1059" y="305" on="1"/>
        <pt x="1059" y="375" on="0"/>
        <pt x="1038" y="441" on="1"/>
        <pt x="1000" y="558" on="1"/>
        <pt x="960" y="690" on="0"/>
        <pt x="960" y="724" on="1"/>
        <pt x="959" y="780" on="0"/>
        <pt x="1009" y="798" on="1"/>
        <pt x="940" y="812" on="0"/>
        <pt x="925" y="841" on="1"/>
        <pt x="918" y="853" on="0"/>
        <pt x="909" y="867" on="0"/>
        <pt x="900" y="886" on="0"/>
        <pt x="888" y="916" on="0"/>
        <pt x="878" y="944" on="1"/>
        <pt x="816" y="1131" on="1"/>
        <pt x="794" y="1201" on="0"/>
        <pt x="751" y="1237" on="1"/>
        <pt x="738" y="1248" on="0"/>
        <pt x="727" y="1250" on="1"/>
        <pt x="794" y="1008" on="0"/>
        <pt x="815" y="940" on="1"/>
        <pt x="960" y="494" on="0"/>
        <pt x="989" y="411" on="1"/>
      </contour>
      <contour>
        <pt x="1336" y="175" on="1"/>
        <pt x="1338" y="169" on="1"/>
      </contour>
      <contour>
        <pt x="811" y="1600" on="0"/>
        <pt x="630" y="1680" on="0"/>
        <pt x="536" y="1808" on="0"/>
        <pt x="536" y="1908" on="0"/>
        <pt x="560" y="1962" on="0"/>
        <pt x="581" y="1981" on="1"/>
        <pt x="624" y="2020" on="0"/>
        <pt x="675" y="2020" on="1"/>
        <pt x="761" y="2020" on="0"/>
        <pt x="797" y="1980" on="1"/>
        <pt x="793" y="1963" on="0"/>
        <pt x="793" y="1904" on="0"/>
        <pt x="800" y="1835" on="0"/>
        <pt x="811" y="1800" on="1"/>
        <pt x="836" y="1723" on="0"/>
        <pt x="893" y="1666" on="1"/>
        <pt x="917" y="1642" on="0"/>
        <pt x="917" y="1626" on="1"/>
        <pt x="917" y="1600" on="0"/>
      </contour>
      <contour>
        <pt x="733" y="1716" on="0"/>
        <pt x="663" y="1838" on="0"/>
        <pt x="663" y="1926" on="0"/>
        <pt x="677" y="1956" on="1"/>
        <pt x="645" y="1957" on="0"/>
        <pt x="604" y="1909" on="0"/>
        <pt x="604" y="1876" on="1"/>
        <pt x="604" y="1813" on="0"/>
        <pt x="670" y="1748" on="1"/>
        <pt x="733" y="1687" on="0"/>
        <pt x="803" y="1666" on="1"/>
      </contour>
    </TTGlyph>
    <TTGlyph name="Aring" xMin="-70" yMin="-20" xMax="1528" yMax="1979">
      <contour>
        <pt x="119" y="7" on="1"/>
        <pt x="82" y="-20" on="0"/>
        <pt x="-13" y="-20" on="0"/>
        <pt x="-70" y="29" on="0"/>
        <pt x="-70" y="93" on="0"/>
        <pt x="-60" y="108" on="1"/>
        <pt x="-31" y="91" on="0"/>
        <pt x="54" y="91" on="0"/>
        <pt x="97" y="114" on="0"/>
        <pt x="117" y="134" on="1"/>
        <pt x="259" y="555" on="1"/>
        <pt x="279" y="624" on="1"/>
        <pt x="288" y="655" on="0"/>
        <pt x="288" y="681" on="1"/>
        <pt x="288" y="772" on="0"/>
        <pt x="202" y="797" on="1"/>
        <pt x="281" y="827" on="0"/>
        <pt x="313" y="862" on="1"/>
        <pt x="363" y="917" on="0"/>
        <pt x="392" y="1007" on="1"/>
        <pt x="502" y="1376" on="1"/>
        <pt x="470" y="1419" on="0"/>
        <pt x="382" y="1419" on="0"/>
        <pt x="344" y="1400" on="1"/>
        <pt x="334" y="1418" on="0"/>
        <pt x="334" y="1463" on="0"/>
        <pt x="353" y="1503" on="0"/>
        <pt x="370" y="1518" on="1"/>
        <pt x="408" y="1550" on="0"/>
        <pt x="548" y="1550" on="0"/>
        <pt x="597" y="1508" on="1"/>
        <pt x="647" y="1550" on="0"/>
        <pt x="796" y="1550" on="0"/>
        <pt x="840" y="1510" on="1"/>
        <pt x="904" y="1550" on="0"/>
        <pt x="1036" y="1550" on="0"/>
        <pt x="1109" y="1500" on="0"/>
        <pt x="1109" y="1457" on="1"/>
        <pt x="1109" y="1437" on="0"/>
        <pt x="1097" y="1422" on="1"/>
        <pt x="1074" y="1439" on="0"/>
        <pt x="1043" y="1439" on="1"/>
        <pt x="976" y="1439" on="0"/>
        <pt x="956" y="1348" on="1"/>
        <pt x="1084" y="939" on="1"/>
        <pt x="1108" y="862" on="0"/>
        <pt x="1204" y="819" on="1"/>
        <pt x="1231" y="807" on="0"/>
        <pt x="1259" y="797" on="1"/>
        <pt x="1159" y="764" on="0"/>
        <pt x="1159" y="698" on="1"/>
        <pt x="1159" y="673" on="0"/>
        <pt x="1167" y="654" on="1"/>
        <pt x="1358" y="142" on="1"/>
        <pt x="1402" y="96" on="0"/>
        <pt x="1492" y="96" on="0"/>
        <pt x="1517" y="113" on="1"/>
        <pt x="1528" y="105" on="0"/>
        <pt x="1528" y="61" on="0"/>
        <pt x="1514" y="24" on="0"/>
        <pt x="1499" y="10" on="1"/>
        <pt x="1467" y="-20" on="0"/>
        <pt x="1343" y="-20" on="0"/>
        <pt x="1297" y="14" on="1"/>
        <pt x="1245" y="-20" on="0"/>
        <pt x="1114" y="-20" on="0"/>
        <pt x="1067" y="13" on="1"/>
        <pt x="1022" y="-20" on="0"/>
        <pt x="900" y="-20" on="0"/>
        <pt x="820" y="31" on="0"/>
        <pt x="818" y="78" on="1"/>
        <pt x="818" y="106" on="0"/>
        <pt x="829" y="113" on="1"/>
        <pt x="856" y="96" on="0"/>
        <pt x="884" y="96" on="1"/>
        <pt x="943" y="96" on="0"/>
        <pt x="967" y="120" on="1"/>
        <pt x="891" y="375" on="1"/>
        <pt x="350" y="375" on="1"/>
        <pt x="284" y="154" on="1"/>
        <pt x="325" y="91" on="0"/>
        <pt x="442" y="91" on="0"/>
        <pt x="471" y="108" on="1"/>
        <pt x="482" y="90" on="0"/>
        <pt x="482" y="27" on="0"/>
        <pt x="420" y="-20" on="0"/>
        <pt x="322" y="-20" on="0"/>
        <pt x="281" y="5" on="1"/>
        <pt x="245" y="-20" on="0"/>
        <pt x="152" y="-20" on="0"/>
      </contour>
      <contour>
        <pt x="850" y="510" on="1"/>
        <pt x="618" y="1281" on="1"/>
        <pt x="390" y="510" on="1"/>
      </contour>
      <contour>
        <pt x="1041" y="265" on="1"/>
        <pt x="1059" y="265" on="0"/>
        <pt x="1059" y="305" on="1"/>
        <pt x="1059" y="375" on="0"/>
        <pt x="1038" y="441" on="1"/>
        <pt x="1000" y="558" on="1"/>
        <pt x="960" y="690" on="0"/>
        <pt x="960" y="724" on="1"/>
        <pt x="959" y="780" on="0"/>
        <pt x="1009" y="798" on="1"/>
        <pt x="940" y="812" on="0"/>
        <pt x="925" y="841" on="1"/>
        <pt x="918" y="853" on="0"/>
        <pt x="909" y="867" on="0"/>
        <pt x="900" y="886" on="0"/>
        <pt x="888" y="916" on="0"/>
        <pt x="878" y="944" on="1"/>
        <pt x="816" y="1131" on="1"/>
        <pt x="794" y="1201" on="0"/>
        <pt x="751" y="1237" on="1"/>
        <pt x="738" y="1248" on="0"/>
        <pt x="727" y="1250" on="1"/>
        <pt x="794" y="1008" on="0"/>
        <pt x="815" y="940" on="1"/>
        <pt x="960" y="494" on="0"/>
        <pt x="989" y="411" on="1"/>
      </contour>
      <contour>
        <pt x="1336" y="175" on="1"/>
        <pt x="1338" y="169" on="1"/>
      </contour>
      <contour>
        <pt x="716" y="1532" on="1"/>
        <pt x="666" y="1532" on="0"/>
        <pt x="580" y="1567" on="0"/>
        <pt x="549" y="1598" on="1"/>
        <pt x="483" y="1662" on="0"/>
        <pt x="483" y="1755" on="1"/>
        <pt x="483" y="1850" on="0"/>
        <pt x="551" y="1914" on="1"/>
        <pt x="619" y="1979" on="0"/>
        <pt x="717" y="1979" on="1"/>
        <pt x="816" y="1979" on="0"/>
        <pt x="883" y="1915" on="1"/>
        <pt x="951" y="1851" on="0"/>
        <pt x="951" y="1755" on="1"/>
        <pt x="951" y="1658" on="0"/>
        <pt x="883" y="1594" on="1"/>
        <pt x="817" y="1532" on="0"/>
      </contour>
      <contour>
        <pt x="720" y="1641" on="1"/>
        <pt x="767" y="1641" on="0"/>
        <pt x="791" y="1666" on="1"/>
        <pt x="834" y="1708" on="0"/>
        <pt x="834" y="1754" on="1"/>
        <pt x="834" y="1801" on="0"/>
        <pt x="809" y="1826" on="1"/>
        <pt x="767" y="1868" on="0"/>
        <pt x="720" y="1868" on="1"/>
        <pt x="673" y="1868" on="0"/>
        <pt x="649" y="1844" on="1"/>
        <pt x="607" y="1802" on="0"/>
        <pt x="607" y="1754" on="1"/>
        <pt x="607" y="1707" on="0"/>
        <pt x="631" y="1683" on="1"/>
        <pt x="673" y="1641" on="0"/>
      </contour>
    </TTGlyph>
    <TTGlyph name="Atilde" xMin="-70" yMin="-20" xMax="1528" yMax="1960">
      <contour>
        <pt x="119" y="7" on="1"/>
        <pt x="82" y="-20" on="0"/>
        <pt x="-13" y="-20" on="0"/>
        <pt x="-70" y="29" on="0"/>
        <pt x="-70" y="93" on="0"/>
        <pt x="-60" y="108" on="1"/>
        <pt x="-31" y="91" on="0"/>
        <pt x="54" y="91" on="0"/>
        <pt x="97" y="114" on="0"/>
        <pt x="117" y="134" on="1"/>
        <pt x="259" y="555" on="1"/>
        <pt x="279" y="624" on="1"/>
        <pt x="288" y="655" on="0"/>
        <pt x="288" y="681" on="1"/>
        <pt x="288" y="772" on="0"/>
        <pt x="202" y="797" on="1"/>
        <pt x="281" y="827" on="0"/>
        <pt x="313" y="862" on="1"/>
        <pt x="363" y="917" on="0"/>
        <pt x="392" y="1007" on="1"/>
        <pt x="502" y="1376" on="1"/>
        <pt x="470" y="1419" on="0"/>
        <pt x="382" y="1419" on="0"/>
        <pt x="344" y="1400" on="1"/>
        <pt x="334" y="1418" on="0"/>
        <pt x="334" y="1463" on="0"/>
        <pt x="353" y="1503" on="0"/>
        <pt x="370" y="1518" on="1"/>
        <pt x="408" y="1550" on="0"/>
        <pt x="548" y="1550" on="0"/>
        <pt x="597" y="1508" on="1"/>
        <pt x="647" y="1550" on="0"/>
        <pt x="796" y="1550" on="0"/>
        <pt x="840" y="1510" on="1"/>
        <pt x="904" y="1550" on="0"/>
        <pt x="1036" y="1550" on="0"/>
        <pt x="1109" y="1500" on="0"/>
        <pt x="1109" y="1457" on="1"/>
        <pt x="1109" y="1437" on="0"/>
        <pt x="1097" y="1422" on="1"/>
        <pt x="1074" y="1439" on="0"/>
        <pt x="1043" y="1439" on="1"/>
        <pt x="976" y="1439" on="0"/>
        <pt x="956" y="1348" on="1"/>
        <pt x="1084" y="939" on="1"/>
        <pt x="1108" y="862" on="0"/>
        <pt x="1204" y="819" on="1"/>
        <pt x="1231" y="807" on="0"/>
        <pt x="1259" y="797" on="1"/>
        <pt x="1159" y="764" on="0"/>
        <pt x="1159" y="698" on="1"/>
        <pt x="1159" y="673" on="0"/>
        <pt x="1167" y="654" on="1"/>
        <pt x="1358" y="142" on="1"/>
        <pt x="1402" y="96" on="0"/>
        <pt x="1492" y="96" on="0"/>
        <pt x="1517" y="113" on="1"/>
        <pt x="1528" y="105" on="0"/>
        <pt x="1528" y="61" on="0"/>
        <pt x="1514" y="24" on="0"/>
        <pt x="1499" y="10" on="1"/>
        <pt x="1467" y="-20" on="0"/>
        <pt x="1343" y="-20" on="0"/>
        <pt x="1297" y="14" on="1"/>
        <pt x="1245" y="-20" on="0"/>
        <pt x="1114" y="-20" on="0"/>
        <pt x="1067" y="13" on="1"/>
        <pt x="1022" y="-20" on="0"/>
        <pt x="900" y="-20" on="0"/>
        <pt x="820" y="31" on="0"/>
        <pt x="818" y="78" on="1"/>
        <pt x="818" y="106" on="0"/>
        <pt x="829" y="113" on="1"/>
        <pt x="856" y="96" on="0"/>
        <pt x="884" y="96" on="1"/>
        <pt x="943" y="96" on="0"/>
        <pt x="967" y="120" on="1"/>
        <pt x="891" y="375" on="1"/>
        <pt x="350" y="375" on="1"/>
        <pt x="284" y="154" on="1"/>
        <pt x="325" y="91" on="0"/>
        <pt x="442" y="91" on="0"/>
        <pt x="471" y="108" on="1"/>
        <pt x="482" y="90" on="0"/>
        <pt x="482" y="27" on="0"/>
        <pt x="420" y="-20" on="0"/>
        <pt x="322" y="-20" on="0"/>
        <pt x="281" y="5" on="1"/>
        <pt x="245" y="-20" on="0"/>
        <pt x="152" y="-20" on="0"/>
      </contour>
      <contour>
        <pt x="850" y="510" on="1"/>
        <pt x="618" y="1281" on="1"/>
        <pt x="390" y="510" on="1"/>
      </contour>
      <contour>
        <pt x="1041" y="265" on="1"/>
        <pt x="1059" y="265" on="0"/>
        <pt x="1059" y="305" on="1"/>
        <pt x="1059" y="375" on="0"/>
        <pt x="1038" y="441" on="1"/>
        <pt x="1000" y="558" on="1"/>
        <pt x="960" y="690" on="0"/>
        <pt x="960" y="724" on="1"/>
        <pt x="959" y="780" on="0"/>
        <pt x="1009" y="798" on="1"/>
        <pt x="940" y="812" on="0"/>
        <pt x="925" y="841" on="1"/>
        <pt x="918" y="853" on="0"/>
        <pt x="909" y="867" on="0"/>
        <pt x="900" y="886" on="0"/>
        <pt x="888" y="916" on="0"/>
        <pt x="878" y="944" on="1"/>
        <pt x="816" y="1131" on="1"/>
        <pt x="794" y="1201" on="0"/>
        <pt x="751" y="1237" on="1"/>
        <pt x="738" y="1248" on="0"/>
        <pt x="727" y="1250" on="1"/>
        <pt x="794" y="1008" on="0"/>
        <pt x="815" y="940" on="1"/>
        <pt x="960" y="494" on="0"/>
        <pt x="989" y="411" on="1"/>
      </contour>
      <contour>
        <pt x="1336" y="175" on="1"/>
        <pt x="1338" y="169" on="1"/>
      </contour>
      <contour>
        <pt x="482" y="1601" on="1"/>
        <pt x="470" y="1589" on="0"/>
        <pt x="428" y="1589" on="0"/>
        <pt x="393" y="1612" on="0"/>
        <pt x="379" y="1632" on="1"/>
        <pt x="351" y="1673" on="0"/>
        <pt x="351" y="1779" on="0"/>
        <pt x="380" y="1859" on="0"/>
        <pt x="407" y="1888" on="1"/>
        <pt x="465" y="1950" on="0"/>
        <pt x="555" y="1950" on="1"/>
        <pt x="620" y="1950" on="0"/>
        <pt x="669" y="1927" on="1"/>
        <pt x="748" y="1890" on="1"/>
        <pt x="821" y="1853" on="0"/>
        <pt x="874" y="1847" on="0"/>
        <pt x="917" y="1847" on="0"/>
        <pt x="964" y="1900" on="0"/>
        <pt x="964" y="1948" on="1"/>
        <pt x="976" y="1960" on="0"/>
        <pt x="1018" y="1960" on="0"/>
        <pt x="1053" y="1937" on="0"/>
        <pt x="1067" y="1918" on="1"/>
        <pt x="1095" y="1876" on="0"/>
        <pt x="1095" y="1770" on="0"/>
        <pt x="1066" y="1690" on="0"/>
        <pt x="1039" y="1661" on="1"/>
        <pt x="983" y="1599" on="0"/>
        <pt x="895" y="1599" on="1"/>
        <pt x="827" y="1599" on="0"/>
        <pt x="730" y="1638" on="0"/>
        <pt x="699" y="1652" on="1"/>
        <pt x="649" y="1676" on="1"/>
        <pt x="593" y="1702" on="0"/>
        <pt x="529" y="1702" on="0"/>
        <pt x="482" y="1649" on="0"/>
      </contour>
      <contour>
        <pt x="996" y="1777" on="1"/>
        <pt x="974" y="1720" on="0"/>
        <pt x="905" y="1720" on="1"/>
        <pt x="849" y="1720" on="0"/>
        <pt x="702" y="1789" on="0"/>
        <pt x="649" y="1809" on="0"/>
        <pt x="628" y="1814" on="1"/>
        <pt x="592" y="1824" on="0"/>
        <pt x="514" y="1824" on="0"/>
        <pt x="455" y="1782" on="0"/>
        <pt x="454" y="1745" on="1"/>
        <pt x="454" y="1727" on="0"/>
        <pt x="462" y="1717" on="1"/>
        <pt x="484" y="1773" on="0"/>
        <pt x="554" y="1773" on="1"/>
        <pt x="605" y="1773" on="0"/>
        <pt x="689" y="1739" on="0"/>
        <pt x="755" y="1708" on="0"/>
        <pt x="811" y="1686" on="0"/>
        <pt x="833" y="1680" on="1"/>
        <pt x="873" y="1669" on="0"/>
        <pt x="945" y="1669" on="0"/>
        <pt x="1003" y="1712" on="0"/>
        <pt x="1004" y="1749" on="1"/>
        <pt x="1004" y="1767" on="0"/>
      </contour>
    </TTGlyph>
    <TTGlyph name="B" xMin="75" yMin="-30" xMax="1519" yMax="1560">
      <contour>
        <pt x="450" y="-20" on="1"/>
        <pt x="384" y="-20" on="0"/>
        <pt x="333" y="12" on="1"/>
        <pt x="282" y="-20" on="0"/>
        <pt x="195" y="-20" on="0"/>
        <pt x="139" y="-5" on="0"/>
        <pt x="118" y="8" on="1"/>
        <pt x="75" y="34" on="0"/>
        <pt x="75" y="73" on="1"/>
        <pt x="75" y="93" on="0"/>
        <pt x="86" y="108" on="1"/>
        <pt x="108" y="91" on="0"/>
        <pt x="142" y="91" on="1"/>
        <pt x="231" y="91" on="0"/>
        <pt x="265" y="167" on="1"/>
        <pt x="265" y="656" on="1"/>
        <pt x="265" y="701" on="0"/>
        <pt x="246" y="725" on="1"/>
        <pt x="216" y="764" on="0"/>
        <pt x="143" y="799" on="1"/>
        <pt x="210" y="830" on="0"/>
        <pt x="231" y="853" on="1"/>
        <pt x="265" y="892" on="0"/>
        <pt x="265" y="940" on="1"/>
        <pt x="265" y="1362" on="1"/>
        <pt x="231" y="1439" on="0"/>
        <pt x="142" y="1439" on="1"/>
        <pt x="108" y="1439" on="0"/>
        <pt x="86" y="1422" on="1"/>
        <pt x="75" y="1437" on="0"/>
        <pt x="75" y="1476" on="0"/>
        <pt x="98" y="1510" on="0"/>
        <pt x="118" y="1522" on="1"/>
        <pt x="164" y="1550" on="0"/>
        <pt x="283" y="1550" on="0"/>
        <pt x="333" y="1517" on="1"/>
        <pt x="385" y="1550" on="0"/>
        <pt x="449" y="1550" on="1"/>
        <pt x="519" y="1550" on="0"/>
        <pt x="571" y="1513" on="1"/>
        <pt x="682" y="1560" on="0"/>
        <pt x="902" y="1560" on="0"/>
        <pt x="1083" y="1517" on="0"/>
        <pt x="1156" y="1478" on="1"/>
        <pt x="1315" y="1394" on="0"/>
        <pt x="1354" y="1260" on="1"/>
        <pt x="1376" y="1186" on="0"/>
        <pt x="1449" y="1150" on="1"/>
        <pt x="1368" y="1094" on="0"/>
        <pt x="1349" y="1022" on="1"/>
        <pt x="1307" y="864" on="0"/>
        <pt x="1179" y="816" on="1"/>
        <pt x="1367" y="764" on="0"/>
        <pt x="1424" y="570" on="1"/>
        <pt x="1444" y="501" on="0"/>
        <pt x="1519" y="457" on="1"/>
        <pt x="1442" y="414" on="0"/>
        <pt x="1390" y="240" on="0"/>
        <pt x="1259" y="101" on="0"/>
        <pt x="1172" y="56" on="1"/>
        <pt x="1004" y="-30" on="0"/>
        <pt x="793" y="-30" on="1"/>
        <pt x="667" y="-30" on="0"/>
        <pt x="568" y="15" on="1"/>
        <pt x="516" y="-20" on="0"/>
      </contour>
      <contour>
        <pt x="820" y="864" on="1"/>
        <pt x="908" y="864" on="0"/>
        <pt x="945" y="906" on="1"/>
        <pt x="984" y="949" on="0"/>
        <pt x="984" y="1054" on="1"/>
        <pt x="984" y="1285" on="1"/>
        <pt x="984" y="1346" on="0"/>
        <pt x="920" y="1388" on="1"/>
        <pt x="864" y="1425" on="0"/>
        <pt x="769" y="1425" on="0"/>
        <pt x="708" y="1402" on="0"/>
        <pt x="684" y="1382" on="1"/>
        <pt x="633" y="1340" on="0"/>
        <pt x="633" y="1281" on="1"/>
        <pt x="633" y="864" on="1"/>
      </contour>
      <contour>
        <pt x="1041" y="1402" on="1"/>
        <pt x="1075" y="1326" on="0"/>
        <pt x="1075" y="1180" on="1"/>
        <pt x="1075" y="965" on="0"/>
        <pt x="1047" y="901" on="1"/>
        <pt x="1089" y="909" on="0"/>
        <pt x="1118" y="982" on="1"/>
        <pt x="1129" y="1009" on="0"/>
        <pt x="1140" y="1069" on="0"/>
        <pt x="1147" y="1102" on="0"/>
        <pt x="1154" y="1114" on="1"/>
        <pt x="1169" y="1139" on="0"/>
        <pt x="1208" y="1152" on="1"/>
        <pt x="1168" y="1165" on="0"/>
        <pt x="1158" y="1180" on="1"/>
        <pt x="1145" y="1197" on="0"/>
        <pt x="1129" y="1287" on="0"/>
        <pt x="1107" y="1344" on="0"/>
        <pt x="1094" y="1362" on="1"/>
        <pt x="1069" y="1398" on="0"/>
      </contour>
      <contour>
        <pt x="361" y="265" on="1"/>
        <pt x="411" y="284" on="0"/>
        <pt x="416" y="396" on="1"/>
        <pt x="422" y="508" on="0"/>
        <pt x="422" y="904" on="0"/>
        <pt x="421" y="1035" on="0"/>
        <pt x="420" y="1075" on="1"/>
        <pt x="417" y="1193" on="0"/>
        <pt x="378" y="1242" on="0"/>
        <pt x="361" y="1250" on="1"/>
        <pt x="361" y="902" on="0"/>
        <pt x="349" y="854" on="1"/>
        <pt x="335" y="814" on="0"/>
        <pt x="281" y="797" on="1"/>
        <pt x="341" y="776" on="0"/>
        <pt x="349" y="746" on="1"/>
        <pt x="361" y="698" on="0"/>
        <pt x="361" y="395" on="1"/>
      </contour>
      <contour>
        <pt x="633" y="261" on="1"/>
        <pt x="633" y="191" on="0"/>
        <pt x="686" y="146" on="1"/>
        <pt x="737" y="104" on="0"/>
        <pt x="808" y="104" on="1"/>
        <pt x="877" y="104" on="0"/>
        <pt x="924" y="134" on="1"/>
        <pt x="1014" y="193" on="0"/>
        <pt x="1014" y="269" on="1"/>
        <pt x="1014" y="562" on="1"/>
        <pt x="1014" y="653" on="0"/>
        <pt x="955" y="699" on="1"/>
        <pt x="905" y="738" on="0"/>
        <pt x="824" y="738" on="1"/>
        <pt x="633" y="738" on="1"/>
      </contour>
      <contour>
        <pt x="1081" y="707" on="1"/>
        <pt x="1105" y="653" on="0"/>
        <pt x="1105" y="457" on="1"/>
        <pt x="1105" y="209" on="0"/>
        <pt x="1087" y="166" on="1"/>
        <pt x="1108" y="170" on="0"/>
        <pt x="1152" y="264" on="0"/>
        <pt x="1170" y="364" on="0"/>
        <pt x="1177" y="400" on="0"/>
        <pt x="1184" y="414" on="1"/>
        <pt x="1200" y="444" on="0"/>
        <pt x="1238" y="457" on="1"/>
        <pt x="1178" y="476" on="0"/>
        <pt x="1157" y="590" on="0"/>
        <pt x="1137" y="652" on="0"/>
        <pt x="1126" y="670" on="1"/>
        <pt x="1107" y="702" on="0"/>
      </contour>
    </TTGlyph>
    <TTGlyph name="C" xMin="30" yMin="-30" xMax="1337" yMax="1560">
      <contour>
        <pt x="1074" y="207" on="0"/>
        <pt x="1121" y="315" on="0"/>
        <pt x="1121" y="434" on="0"/>
        <pt x="1098" y="467" on="1"/>
        <pt x="1114" y="495" on="0"/>
        <pt x="1216" y="495" on="0"/>
        <pt x="1271" y="429" on="0"/>
        <pt x="1271" y="292" on="0"/>
        <pt x="1198" y="145" on="0"/>
        <pt x="1132" y="90" on="1"/>
        <pt x="986" y="-30" on="0"/>
        <pt x="767" y="-30" on="1"/>
        <pt x="506" y="-30" on="0"/>
        <pt x="338" y="134" on="1"/>
        <pt x="167" y="302" on="0"/>
        <pt x="132" y="613" on="1"/>
        <pt x="115" y="755" on="0"/>
        <pt x="30" y="797" on="1"/>
        <pt x="77" y="819" on="0"/>
        <pt x="95" y="843" on="1"/>
        <pt x="124" y="884" on="0"/>
        <pt x="141" y="1025" on="0"/>
        <pt x="189" y="1177" on="0"/>
        <pt x="268" y="1314" on="0"/>
        <pt x="378" y="1429" on="0"/>
        <pt x="449" y="1471" on="1"/>
        <pt x="599" y="1560" on="0"/>
        <pt x="799" y="1560" on="1"/>
        <pt x="994" y="1560" on="0"/>
        <pt x="1122" y="1462" on="1"/>
        <pt x="1237" y="1373" on="0"/>
        <pt x="1271" y="1220" on="1"/>
        <pt x="1287" y="1144" on="0"/>
        <pt x="1312" y="1126" on="1"/>
        <pt x="1322" y="1118" on="0"/>
        <pt x="1337" y="1111" on="1"/>
        <pt x="1307" y="1061" on="0"/>
        <pt x="1246" y="1056" on="1"/>
        <pt x="1219" y="1052" on="0"/>
        <pt x="1188" y="1067" on="1"/>
        <pt x="1133" y="973" on="0"/>
        <pt x="1033" y="967" on="1"/>
        <pt x="1012" y="965" on="0"/>
        <pt x="1001" y="975" on="1"/>
        <pt x="1028" y="1011" on="0"/>
        <pt x="1026" y="1059" on="1"/>
        <pt x="1026" y="1068" on="0"/>
        <pt x="1023" y="1077" on="1"/>
        <pt x="977" y="1068" on="0"/>
        <pt x="945" y="1085" on="1"/>
        <pt x="893" y="1115" on="0"/>
        <pt x="891" y="1150" on="1"/>
        <pt x="891" y="1158" on="0"/>
        <pt x="894" y="1166" on="1"/>
        <pt x="956" y="1148" on="0"/>
        <pt x="1012" y="1194" on="1"/>
        <pt x="1050" y="1225" on="0"/>
        <pt x="1046" y="1303" on="0"/>
        <pt x="1014" y="1361" on="0"/>
        <pt x="984" y="1384" on="1"/>
        <pt x="916" y="1438" on="0"/>
        <pt x="814" y="1438" on="1"/>
        <pt x="640" y="1438" on="0"/>
        <pt x="588" y="1282" on="1"/>
        <pt x="571" y="1230" on="0"/>
        <pt x="571" y="1160" on="1"/>
        <pt x="571" y="958" on="1"/>
        <pt x="571" y="845" on="0"/>
        <pt x="681" y="797" on="1"/>
        <pt x="571" y="744" on="0"/>
        <pt x="571" y="624" on="1"/>
        <pt x="571" y="377" on="1"/>
        <pt x="571" y="187" on="0"/>
        <pt x="722" y="126" on="1"/>
        <pt x="771" y="107" on="0"/>
        <pt x="889" y="107" on="0"/>
        <pt x="994" y="139" on="0"/>
      </contour>
      <contour>
        <pt x="359" y="265" on="1"/>
        <pt x="374" y="271" on="0"/>
        <pt x="374" y="286" on="1"/>
        <pt x="374" y="308" on="0"/>
        <pt x="353" y="355" on="1"/>
        <pt x="300" y="476" on="0"/>
        <pt x="300" y="797" on="1"/>
        <pt x="300" y="1031" on="0"/>
        <pt x="356" y="1195" on="1"/>
        <pt x="363" y="1220" on="0"/>
        <pt x="363" y="1246" on="0"/>
        <pt x="350" y="1250" on="1"/>
        <pt x="303" y="1191" on="0"/>
        <pt x="283" y="1133" on="1"/>
        <pt x="246" y="1027" on="0"/>
        <pt x="224" y="846" on="1"/>
        <pt x="221" y="820" on="0"/>
        <pt x="165" y="797" on="1"/>
        <pt x="221" y="772" on="0"/>
        <pt x="224" y="746" on="1"/>
        <pt x="260" y="436" on="0"/>
        <pt x="316" y="332" on="1"/>
        <pt x="335" y="295" on="0"/>
      </contour>
    </TTGlyph>
    <TTGlyph name="Ccedilla" xMin="30" yMin="-540" xMax="1337" yMax="1560">
      <contour>
        <pt x="1065" y="35" on="0"/>
        <pt x="879" y="-30" on="0"/>
        <pt x="711" y="-30" on="0"/>
        <pt x="669" y="-23" on="1"/>
        <pt x="657" y="-90" on="1"/>
        <pt x="842" y="-100" on="0"/>
        <pt x="908" y="-220" on="1"/>
        <pt x="929" y="-260" on="0"/>
        <pt x="929" y="-354" on="0"/>
        <pt x="886" y="-437" on="0"/>
        <pt x="847" y="-469" on="1"/>
        <pt x="760" y="-540" on="0"/>
        <pt x="636" y="-540" on="1"/>
        <pt x="453" y="-540" on="0"/>
        <pt x="404" y="-426" on="1"/>
        <pt x="391" y="-395" on="0"/>
        <pt x="391" y="-343" on="0"/>
        <pt x="403" y="-306" on="0"/>
        <pt x="416" y="-292" on="1"/>
        <pt x="443" y="-261" on="0"/>
        <pt x="475" y="-261" on="1"/>
        <pt x="547" y="-261" on="0"/>
        <pt x="553" y="-317" on="1"/>
        <pt x="532" y="-332" on="0"/>
        <pt x="532" y="-374" on="0"/>
        <pt x="546" y="-403" on="0"/>
        <pt x="558" y="-416" on="1"/>
        <pt x="585" y="-444" on="0"/>
        <pt x="675" y="-444" on="0"/>
        <pt x="723" y="-381" on="0"/>
        <pt x="723" y="-312" on="0"/>
        <pt x="702" y="-258" on="0"/>
        <pt x="679" y="-236" on="1"/>
        <pt x="627" y="-186" on="0"/>
        <pt x="533" y="-186" on="1"/>
        <pt x="567" y="-1" on="1"/>
        <pt x="292" y="82" on="0"/>
        <pt x="182" y="386" on="1"/>
        <pt x="146" y="488" on="0"/>
        <pt x="124" y="681" on="0"/>
        <pt x="75" y="775" on="0"/>
        <pt x="30" y="797" on="1"/>
        <pt x="77" y="819" on="0"/>
        <pt x="95" y="843" on="1"/>
        <pt x="124" y="884" on="0"/>
        <pt x="141" y="1025" on="0"/>
        <pt x="189" y="1177" on="0"/>
        <pt x="268" y="1314" on="0"/>
        <pt x="378" y="1429" on="0"/>
        <pt x="449" y="1471" on="1"/>
        <pt x="599" y="1560" on="0"/>
        <pt x="799" y="1560" on="1"/>
        <pt x="994" y="1560" on="0"/>
        <pt x="1122" y="1462" on="1"/>
        <pt x="1237" y="1373" on="0"/>
        <pt x="1271" y="1220" on="1"/>
        <pt x="1287" y="1144" on="0"/>
        <pt x="1312" y="1126" on="1"/>
        <pt x="1322" y="1118" on="0"/>
        <pt x="1337" y="1111" on="1"/>
        <pt x="1307" y="1061" on="0"/>
        <pt x="1246" y="1056" on="1"/>
        <pt x="1219" y="1052" on="0"/>
        <pt x="1188" y="1067" on="1"/>
        <pt x="1133" y="973" on="0"/>
        <pt x="1033" y="967" on="1"/>
        <pt x="1012" y="965" on="0"/>
        <pt x="1001" y="975" on="1"/>
        <pt x="1028" y="1011" on="0"/>
        <pt x="1026" y="1059" on="1"/>
        <pt x="1026" y="1068" on="0"/>
        <pt x="1023" y="1077" on="1"/>
        <pt x="977" y="1068" on="0"/>
        <pt x="945" y="1085" on="1"/>
        <pt x="893" y="1115" on="0"/>
        <pt x="891" y="1150" on="1"/>
        <pt x="891" y="1158" on="0"/>
        <pt x="894" y="1166" on="1"/>
        <pt x="956" y="1148" on="0"/>
        <pt x="1012" y="1194" on="1"/>
        <pt x="1050" y="1225" on="0"/>
        <pt x="1046" y="1303" on="0"/>
        <pt x="1014" y="1361" on="0"/>
        <pt x="984" y="1384" on="1"/>
        <pt x="916" y="1438" on="0"/>
        <pt x="814" y="1438" on="1"/>
        <pt x="640" y="1438" on="0"/>
        <pt x="588" y="1282" on="1"/>
        <pt x="571" y="1230" on="0"/>
        <pt x="571" y="1160" on="1"/>
        <pt x="571" y="958" on="1"/>
        <pt x="571" y="845" on="0"/>
        <pt x="681" y="797" on="1"/>
        <pt x="571" y="744" on="0"/>
        <pt x="571" y="624" on="1"/>
        <pt x="571" y="377" on="1"/>
        <pt x="571" y="187" on="0"/>
        <pt x="722" y="126" on="1"/>
        <pt x="771" y="107" on="0"/>
        <pt x="889" y="107" on="0"/>
        <pt x="994" y="139" on="0"/>
        <pt x="1034" y="173" on="1"/>
        <pt x="1121" y="247" on="0"/>
        <pt x="1121" y="390" on="1"/>
        <pt x="1121" y="434" on="0"/>
        <pt x="1098" y="467" on="1"/>
        <pt x="1114" y="495" on="0"/>
        <pt x="1216" y="495" on="0"/>
        <pt x="1271" y="429" on="0"/>
        <pt x="1271" y="292" on="0"/>
        <pt x="1198" y="145" on="0"/>
      </contour>
      <contour>
        <pt x="359" y="265" on="1"/>
        <pt x="374" y="271" on="0"/>
        <pt x="374" y="286" on="1"/>
        <pt x="374" y="308" on="0"/>
        <pt x="353" y="355" on="1"/>
        <pt x="300" y="476" on="0"/>
        <pt x="300" y="797" on="1"/>
        <pt x="300" y="1031" on="0"/>
        <pt x="356" y="1195" on="1"/>
        <pt x="363" y="1220" on="0"/>
        <pt x="363" y="1246" on="0"/>
        <pt x="350" y="1250" on="1"/>
        <pt x="303" y="1191" on="0"/>
        <pt x="283" y="1133" on="1"/>
        <pt x="246" y="1027" on="0"/>
        <pt x="224" y="846" on="1"/>
        <pt x="221" y="820" on="0"/>
        <pt x="165" y="797" on="1"/>
        <pt x="221" y="772" on="0"/>
        <pt x="224" y="746" on="1"/>
        <pt x="260" y="436" on="0"/>
        <pt x="316" y="332" on="1"/>
        <pt x="335" y="295" on="0"/>
      </contour>
    </TTGlyph>
    <TTGlyph name="D" xMin="75" yMin="-30" xMax="1589" yMax="1560">
      <contour>
        <pt x="450" y="-20" on="1"/>
        <pt x="384" y="-20" on="0"/>
        <pt x="333" y="12" on="1"/>
        <pt x="282" y="-20" on="0"/>
        <pt x="195" y="-20" on="0"/>
        <pt x="139" y="-5" on="0"/>
        <pt x="118" y="8" on="1"/>
        <pt x="75" y="34" on="0"/>
        <pt x="75" y="73" on="1"/>
        <pt x="75" y="93" on="0"/>
        <pt x="86" y="108" on="1"/>
        <pt x="108" y="91" on="0"/>
        <pt x="142" y="91" on="1"/>
        <pt x="231" y="91" on="0"/>
        <pt x="265" y="167" on="1"/>
        <pt x="265" y="656" on="1"/>
        <pt x="265" y="702" on="0"/>
        <pt x="246" y="724" on="1"/>
        <pt x="216" y="761" on="0"/>
        <pt x="143" y="797" on="1"/>
        <pt x="211" y="828" on="0"/>
        <pt x="231" y="852" on="1"/>
        <pt x="265" y="891" on="0"/>
        <pt x="265" y="940" on="1"/>
        <pt x="265" y="1362" on="1"/>
        <pt x="231" y="1439" on="0"/>
        <pt x="142" y="1439" on="1"/>
        <pt x="108" y="1439" on="0"/>
        <pt x="86" y="1422" on="1"/>
        <pt x="75" y="1437" on="0"/>
        <pt x="75" y="1476" on="0"/>
        <pt x="98" y="1510" on="0"/>
        <pt x="118" y="1522" on="1"/>
        <pt x="164" y="1550" on="0"/>
        <pt x="283" y="1550" on="0"/>
        <pt x="333" y="1517" on="1"/>
        <pt x="385" y="1550" on="0"/>
        <pt x="502" y="1550" on="0"/>
        <pt x="552" y="1525" on="1"/>
        <pt x="670" y="1560" on="0"/>
        <pt x="872" y="1560" on="0"/>
        <pt x="1028" y="1538" on="0"/>
        <pt x="1170" y="1483" on="0"/>
        <pt x="1295" y="1391" on="0"/>
        <pt x="1344" y="1322" on="1"/>
        <pt x="1448" y="1177" on="0"/>
        <pt x="1477" y="938" on="1"/>
        <pt x="1483" y="879" on="0"/>
        <pt x="1502" y="855" on="1"/>
        <pt x="1534" y="816" on="0"/>
        <pt x="1589" y="797" on="1"/>
        <pt x="1531" y="775" on="0"/>
        <pt x="1513" y="752" on="1"/>
        <pt x="1483" y="714" on="0"/>
        <pt x="1477" y="656" on="1"/>
        <pt x="1444" y="324" on="0"/>
        <pt x="1254" y="144" on="1"/>
        <pt x="1071" y="-30" on="0"/>
        <pt x="779" y="-30" on="1"/>
        <pt x="662" y="-30" on="0"/>
        <pt x="569" y="6" on="1"/>
        <pt x="524" y="-20" on="0"/>
      </contour>
      <contour>
        <pt x="633" y="157" on="1"/>
        <pt x="681" y="103" on="0"/>
        <pt x="840" y="103" on="0"/>
        <pt x="957" y="166" on="0"/>
        <pt x="997" y="232" on="1"/>
        <pt x="1078" y="367" on="0"/>
        <pt x="1078" y="656" on="1"/>
        <pt x="1078" y="719" on="0"/>
        <pt x="1058" y="742" on="1"/>
        <pt x="1031" y="774" on="0"/>
        <pt x="969" y="797" on="1"/>
        <pt x="1030" y="818" on="0"/>
        <pt x="1048" y="839" on="1"/>
        <pt x="1078" y="875" on="0"/>
        <pt x="1078" y="986" on="0"/>
        <pt x="1062" y="1096" on="0"/>
        <pt x="1027" y="1204" on="0"/>
        <pt x="974" y="1303" on="0"/>
        <pt x="937" y="1341" on="1"/>
        <pt x="856" y="1424" on="0"/>
        <pt x="746" y="1424" on="1"/>
        <pt x="712" y="1424" on="0"/>
        <pt x="648" y="1421" on="0"/>
        <pt x="633" y="1403" on="1"/>
      </contour>
      <contour>
        <pt x="1130" y="1250" on="1"/>
        <pt x="1205" y="1041" on="0"/>
        <pt x="1205" y="892" on="1"/>
        <pt x="1205" y="841" on="0"/>
        <pt x="1188" y="823" on="0"/>
        <pt x="1178" y="816" on="1"/>
        <pt x="1160" y="804" on="0"/>
        <pt x="1139" y="797" on="1"/>
        <pt x="1199" y="770" on="0"/>
        <pt x="1202" y="745" on="1"/>
        <pt x="1204" y="734" on="0"/>
        <pt x="1204" y="723" on="1"/>
        <pt x="1204" y="698" on="1"/>
        <pt x="1204" y="563" on="0"/>
        <pt x="1148" y="310" on="0"/>
        <pt x="1134" y="265" on="1"/>
        <pt x="1179" y="278" on="0"/>
        <pt x="1220" y="371" on="0"/>
        <pt x="1249" y="478" on="0"/>
        <pt x="1258" y="538" on="1"/>
        <pt x="1278" y="661" on="0"/>
        <pt x="1278" y="795" on="1"/>
        <pt x="1278" y="1035" on="0"/>
        <pt x="1207" y="1182" on="1"/>
        <pt x="1176" y="1240" on="0"/>
      </contour>
      <contour>
        <pt x="361" y="265" on="1"/>
        <pt x="411" y="284" on="0"/>
        <pt x="416" y="396" on="1"/>
        <pt x="422" y="508" on="0"/>
        <pt x="422" y="904" on="0"/>
        <pt x="421" y="1035" on="0"/>
        <pt x="420" y="1075" on="1"/>
        <pt x="417" y="1193" on="0"/>
        <pt x="378" y="1242" on="0"/>
        <pt x="361" y="1250" on="1"/>
        <pt x="361" y="902" on="0"/>
        <pt x="349" y="854" on="1"/>
        <pt x="335" y="814" on="0"/>
        <pt x="281" y="797" on="1"/>
        <pt x="341" y="776" on="0"/>
        <pt x="349" y="746" on="1"/>
        <pt x="361" y="698" on="0"/>
        <pt x="361" y="395" on="1"/>
      </contour>
    </TTGlyph>
    <TTGlyph name="E" xMin="75" yMin="-52" xMax="1398" yMax="1581">
      <contour>
        <pt x="450" y="-20" on="1"/>
        <pt x="384" y="-20" on="0"/>
        <pt x="333" y="12" on="1"/>
        <pt x="282" y="-20" on="0"/>
        <pt x="195" y="-20" on="0"/>
        <pt x="139" y="-5" on="0"/>
        <pt x="118" y="8" on="1"/>
        <pt x="75" y="34" on="0"/>
        <pt x="75" y="73" on="1"/>
        <pt x="75" y="93" on="0"/>
        <pt x="86" y="108" on="1"/>
        <pt x="108" y="91" on="0"/>
        <pt x="142" y="91" on="1"/>
        <pt x="231" y="91" on="0"/>
        <pt x="265" y="167" on="1"/>
        <pt x="265" y="656" on="1"/>
        <pt x="265" y="702" on="0"/>
        <pt x="246" y="724" on="1"/>
        <pt x="216" y="761" on="0"/>
        <pt x="143" y="797" on="1"/>
        <pt x="211" y="828" on="0"/>
        <pt x="231" y="852" on="1"/>
        <pt x="265" y="891" on="0"/>
        <pt x="265" y="940" on="1"/>
        <pt x="265" y="1362" on="1"/>
        <pt x="231" y="1439" on="0"/>
        <pt x="142" y="1439" on="1"/>
        <pt x="108" y="1439" on="0"/>
        <pt x="86" y="1422" on="1"/>
        <pt x="75" y="1437" on="0"/>
        <pt x="75" y="1476" on="0"/>
        <pt x="98" y="1510" on="0"/>
        <pt x="118" y="1522" on="1"/>
        <pt x="164" y="1550" on="0"/>
        <pt x="283" y="1550" on="0"/>
        <pt x="333" y="1517" on="1"/>
        <pt x="385" y="1550" on="0"/>
        <pt x="519" y="1550" on="0"/>
        <pt x="574" y="1511" on="1"/>
        <pt x="680" y="1550" on="0"/>
        <pt x="819" y="1550" on="1"/>
        <pt x="922" y="1550" on="0"/>
        <pt x="995" y="1530" on="1"/>
        <pt x="1084" y="1506" on="1"/>
        <pt x="1100" y="1502" on="0"/>
        <pt x="1115" y="1502" on="1"/>
        <pt x="1143" y="1502" on="0"/>
        <pt x="1143" y="1542" on="1"/>
        <pt x="1143" y="1552" on="0"/>
        <pt x="1136" y="1576" on="1"/>
        <pt x="1164" y="1581" on="0"/>
        <pt x="1250" y="1581" on="0"/>
        <pt x="1310" y="1524" on="0"/>
        <pt x="1310" y="1417" on="0"/>
        <pt x="1291" y="1392" on="1"/>
        <pt x="1318" y="1352" on="0"/>
        <pt x="1318" y="1237" on="0"/>
        <pt x="1279" y="1198" on="1"/>
        <pt x="1291" y="1168" on="0"/>
        <pt x="1291" y="1111" on="0"/>
        <pt x="1272" y="1064" on="0"/>
        <pt x="1258" y="1048" on="1"/>
        <pt x="1230" y="1019" on="0"/>
        <pt x="1201" y="1019" on="1"/>
        <pt x="1159" y="1019" on="0"/>
        <pt x="1125" y="1037" on="1"/>
        <pt x="1137" y="1061" on="0"/>
        <pt x="1137" y="1108" on="1"/>
        <pt x="1137" y="1218" on="0"/>
        <pt x="1082" y="1301" on="1"/>
        <pt x="1007" y="1415" on="0"/>
        <pt x="857" y="1415" on="1"/>
        <pt x="781" y="1415" on="0"/>
        <pt x="658" y="1341" on="0"/>
        <pt x="633" y="1272" on="1"/>
        <pt x="633" y="885" on="1"/>
        <pt x="668" y="863" on="0"/>
        <pt x="729" y="863" on="0"/>
        <pt x="760" y="865" on="0"/>
        <pt x="776" y="868" on="1"/>
        <pt x="817" y="874" on="0"/>
        <pt x="839" y="884" on="1"/>
        <pt x="881" y="904" on="0"/>
        <pt x="881" y="982" on="1"/>
        <pt x="881" y="1026" on="0"/>
        <pt x="860" y="1050" on="1"/>
        <pt x="880" y="1064" on="0"/>
        <pt x="910" y="1064" on="1"/>
        <pt x="977" y="1064" on="0"/>
        <pt x="1007" y="1010" on="1"/>
        <pt x="1018" y="991" on="0"/>
        <pt x="1018" y="945" on="0"/>
        <pt x="1006" y="911" on="1"/>
        <pt x="1047" y="864" on="0"/>
        <pt x="1047" y="735" on="0"/>
        <pt x="1006" y="688" on="1"/>
        <pt x="1018" y="654" on="0"/>
        <pt x="1018" y="599" on="0"/>
        <pt x="996" y="549" on="0"/>
        <pt x="980" y="534" on="1"/>
        <pt x="949" y="506" on="0"/>
        <pt x="910" y="506" on="1"/>
        <pt x="882" y="506" on="0"/>
        <pt x="860" y="522" on="1"/>
        <pt x="881" y="557" on="0"/>
        <pt x="881" y="604" on="1"/>
        <pt x="881" y="697" on="0"/>
        <pt x="830" y="719" on="1"/>
        <pt x="785" y="737" on="0"/>
        <pt x="669" y="737" on="0"/>
        <pt x="633" y="716" on="1"/>
        <pt x="633" y="216" on="1"/>
        <pt x="691" y="114" on="0"/>
        <pt x="857" y="114" on="1"/>
        <pt x="1045" y="114" on="0"/>
        <pt x="1113" y="230" on="1"/>
        <pt x="1192" y="363" on="0"/>
        <pt x="1192" y="515" on="1"/>
        <pt x="1192" y="559" on="0"/>
        <pt x="1184" y="583" on="1"/>
        <pt x="1209" y="608" on="0"/>
        <pt x="1263" y="608" on="0"/>
        <pt x="1291" y="593" on="0"/>
        <pt x="1302" y="582" on="1"/>
        <pt x="1326" y="555" on="0"/>
        <pt x="1326" y="527" on="1"/>
        <pt x="1320" y="478" on="1"/>
        <pt x="1320" y="459" on="0"/>
        <pt x="1330" y="447" on="1"/>
        <pt x="1350" y="426" on="0"/>
        <pt x="1350" y="389" on="0"/>
        <pt x="1338" y="363" on="1"/>
        <pt x="1361" y="350" on="0"/>
        <pt x="1398" y="299" on="0"/>
        <pt x="1398" y="272" on="1"/>
        <pt x="1398" y="215" on="0"/>
        <pt x="1350" y="170" on="1"/>
        <pt x="1371" y="140" on="0"/>
        <pt x="1371" y="27" on="0"/>
        <pt x="1306" y="-52" on="0"/>
        <pt x="1254" y="-52" on="1"/>
        <pt x="1226" y="-52" on="0"/>
        <pt x="1196" y="-46" on="1"/>
        <pt x="1200" y="-24" on="0"/>
        <pt x="1200" y="-2" on="1"/>
        <pt x="1200" y="44" on="0"/>
        <pt x="1158" y="44" on="1"/>
        <pt x="1111" y="44" on="0"/>
        <pt x="1064" y="25" on="1"/>
        <pt x="953" y="-20" on="0"/>
        <pt x="670" y="-20" on="0"/>
        <pt x="571" y="17" on="1"/>
        <pt x="519" y="-20" on="0"/>
      </contour>
      <contour>
        <pt x="361" y="265" on="1"/>
        <pt x="411" y="284" on="0"/>
        <pt x="416" y="396" on="1"/>
        <pt x="422" y="508" on="0"/>
        <pt x="422" y="904" on="0"/>
        <pt x="421" y="1035" on="0"/>
        <pt x="420" y="1075" on="1"/>
        <pt x="417" y="1193" on="0"/>
        <pt x="378" y="1242" on="0"/>
        <pt x="361" y="1250" on="1"/>
        <pt x="361" y="902" on="0"/>
        <pt x="349" y="854" on="1"/>
        <pt x="335" y="814" on="0"/>
        <pt x="281" y="797" on="1"/>
        <pt x="341" y="776" on="0"/>
        <pt x="349" y="746" on="1"/>
        <pt x="361" y="698" on="0"/>
        <pt x="361" y="395" on="1"/>
      </contour>
      <contour>
        <pt x="613" y="275" on="1"/>
        <pt x="613" y="272" on="0"/>
        <pt x="614" y="270" on="1"/>
      </contour>
    </TTGlyph>
    <TTGlyph name="Eacute" xMin="75" yMin="-52" xMax="1398" yMax="2020">
      <contour>
        <pt x="450" y="-20" on="1"/>
        <pt x="384" y="-20" on="0"/>
        <pt x="333" y="12" on="1"/>
        <pt x="282" y="-20" on="0"/>
        <pt x="195" y="-20" on="0"/>
        <pt x="139" y="-5" on="0"/>
        <pt x="118" y="8" on="1"/>
        <pt x="75" y="34" on="0"/>
        <pt x="75" y="73" on="1"/>
        <pt x="75" y="93" on="0"/>
        <pt x="86" y="108" on="1"/>
        <pt x="108" y="91" on="0"/>
        <pt x="142" y="91" on="1"/>
        <pt x="231" y="91" on="0"/>
        <pt x="265" y="167" on="1"/>
        <pt x="265" y="656" on="1"/>
        <pt x="265" y="702" on="0"/>
        <pt x="246" y="724" on="1"/>
        <pt x="216" y="761" on="0"/>
        <pt x="143" y="797" on="1"/>
        <pt x="211" y="828" on="0"/>
        <pt x="231" y="852" on="1"/>
        <pt x="265" y="891" on="0"/>
        <pt x="265" y="940" on="1"/>
        <pt x="265" y="1362" on="1"/>
        <pt x="231" y="1439" on="0"/>
        <pt x="142" y="1439" on="1"/>
        <pt x="108" y="1439" on="0"/>
        <pt x="86" y="1422" on="1"/>
        <pt x="75" y="1437" on="0"/>
        <pt x="75" y="1476" on="0"/>
        <pt x="98" y="1510" on="0"/>
        <pt x="118" y="1522" on="1"/>
        <pt x="164" y="1550" on="0"/>
        <pt x="283" y="1550" on="0"/>
        <pt x="333" y="1517" on="1"/>
        <pt x="385" y="1550" on="0"/>
        <pt x="519" y="1550" on="0"/>
        <pt x="574" y="1511" on="1"/>
        <pt x="680" y="1550" on="0"/>
        <pt x="819" y="1550" on="1"/>
        <pt x="922" y="1550" on="0"/>
        <pt x="995" y="1530" on="1"/>
        <pt x="1084" y="1506" on="1"/>
        <pt x="1100" y="1502" on="0"/>
        <pt x="1115" y="1502" on="1"/>
        <pt x="1143" y="1502" on="0"/>
        <pt x="1143" y="1542" on="1"/>
        <pt x="1143" y="1552" on="0"/>
        <pt x="1136" y="1576" on="1"/>
        <pt x="1164" y="1581" on="0"/>
        <pt x="1250" y="1581" on="0"/>
        <pt x="1310" y="1524" on="0"/>
        <pt x="1310" y="1417" on="0"/>
        <pt x="1291" y="1392" on="1"/>
        <pt x="1318" y="1352" on="0"/>
        <pt x="1318" y="1237" on="0"/>
        <pt x="1279" y="1198" on="1"/>
        <pt x="1291" y="1168" on="0"/>
        <pt x="1291" y="1111" on="0"/>
        <pt x="1272" y="1064" on="0"/>
        <pt x="1258" y="1048" on="1"/>
        <pt x="1230" y="1019" on="0"/>
        <pt x="1201" y="1019" on="1"/>
        <pt x="1159" y="1019" on="0"/>
        <pt x="1125" y="1037" on="1"/>
        <pt x="1137" y="1061" on="0"/>
        <pt x="1137" y="1108" on="1"/>
        <pt x="1137" y="1218" on="0"/>
        <pt x="1082" y="1301" on="1"/>
        <pt x="1007" y="1415" on="0"/>
        <pt x="857" y="1415" on="1"/>
        <pt x="781" y="1415" on="0"/>
        <pt x="658" y="1341" on="0"/>
        <pt x="633" y="1272" on="1"/>
        <pt x="633" y="885" on="1"/>
        <pt x="668" y="863" on="0"/>
        <pt x="729" y="863" on="0"/>
        <pt x="760" y="865" on="0"/>
        <pt x="776" y="868" on="1"/>
        <pt x="817" y="874" on="0"/>
        <pt x="839" y="884" on="1"/>
        <pt x="881" y="904" on="0"/>
        <pt x="881" y="982" on="1"/>
        <pt x="881" y="1026" on="0"/>
        <pt x="860" y="1050" on="1"/>
        <pt x="880" y="1064" on="0"/>
        <pt x="910" y="1064" on="1"/>
        <pt x="977" y="1064" on="0"/>
        <pt x="1007" y="1010" on="1"/>
        <pt x="1018" y="991" on="0"/>
        <pt x="1018" y="945" on="0"/>
        <pt x="1006" y="911" on="1"/>
        <pt x="1047" y="864" on="0"/>
        <pt x="1047" y="735" on="0"/>
        <pt x="1006" y="688" on="1"/>
        <pt x="1018" y="654" on="0"/>
        <pt x="1018" y="599" on="0"/>
        <pt x="996" y="549" on="0"/>
        <pt x="980" y="534" on="1"/>
        <pt x="949" y="506" on="0"/>
        <pt x="910" y="506" on="1"/>
        <pt x="882" y="506" on="0"/>
        <pt x="860" y="522" on="1"/>
        <pt x="881" y="557" on="0"/>
        <pt x="881" y="604" on="1"/>
        <pt x="881" y="697" on="0"/>
        <pt x="830" y="719" on="1"/>
        <pt x="785" y="737" on="0"/>
        <pt x="669" y="737" on="0"/>
        <pt x="633" y="716" on="1"/>
        <pt x="633" y="216" on="1"/>
        <pt x="691" y="114" on="0"/>
        <pt x="857" y="114" on="1"/>
        <pt x="1045" y="114" on="0"/>
        <pt x="1113" y="230" on="1"/>
        <pt x="1192" y="363" on="0"/>
        <pt x="1192" y="515" on="1"/>
        <pt x="1192" y="559" on="0"/>
        <pt x="1184" y="583" on="1"/>
        <pt x="1209" y="608" on="0"/>
        <pt x="1263" y="608" on="0"/>
        <pt x="1291" y="593" on="0"/>
        <pt x="1302" y="582" on="1"/>
        <pt x="1326" y="555" on="0"/>
        <pt x="1326" y="527" on="1"/>
        <pt x="1320" y="478" on="1"/>
        <pt x="1320" y="459" on="0"/>
        <pt x="1330" y="447" on="1"/>
        <pt x="1350" y="426" on="0"/>
        <pt x="1350" y="389" on="0"/>
        <pt x="1338" y="363" on="1"/>
        <pt x="1361" y="350" on="0"/>
        <pt x="1398" y="299" on="0"/>
        <pt x="1398" y="272" on="1"/>
        <pt x="1398" y="215" on="0"/>
        <pt x="1350" y="170" on="1"/>
        <pt x="1371" y="140" on="0"/>
        <pt x="1371" y="27" on="0"/>
        <pt x="1306" y="-52" on="0"/>
        <pt x="1254" y="-52" on="1"/>
        <pt x="1226" y="-52" on="0"/>
        <pt x="1196" y="-46" on="1"/>
        <pt x="1200" y="-24" on="0"/>
        <pt x="1200" y="-2" on="1"/>
        <pt x="1200" y="44" on="0"/>
        <pt x="1158" y="44" on="1"/>
        <pt x="1111" y="44" on="0"/>
        <pt x="1064" y="25" on="1"/>
        <pt x="953" y="-20" on="0"/>
        <pt x="670" y="-20" on="0"/>
        <pt x="571" y="17" on="1"/>
        <pt x="519" y="-20" on="0"/>
      </contour>
      <contour>
        <pt x="361" y="265" on="1"/>
        <pt x="411" y="284" on="0"/>
        <pt x="416" y="396" on="1"/>
        <pt x="422" y="508" on="0"/>
        <pt x="422" y="904" on="0"/>
        <pt x="421" y="1035" on="0"/>
        <pt x="420" y="1075" on="1"/>
        <pt x="417" y="1193" on="0"/>
        <pt x="378" y="1242" on="0"/>
        <pt x="361" y="1250" on="1"/>
        <pt x="361" y="902" on="0"/>
        <pt x="349" y="854" on="1"/>
        <pt x="335" y="814" on="0"/>
        <pt x="281" y="797" on="1"/>
        <pt x="341" y="776" on="0"/>
        <pt x="349" y="746" on="1"/>
        <pt x="361" y="698" on="0"/>
        <pt x="361" y="395" on="1"/>
      </contour>
      <contour>
        <pt x="613" y="275" on="1"/>
        <pt x="613" y="272" on="0"/>
        <pt x="614" y="270" on="1"/>
      </contour>
      <contour>
        <pt x="748" y="1980" on="1"/>
        <pt x="784" y="2020" on="0"/>
        <pt x="859" y="2020" on="1"/>
        <pt x="921" y="2020" on="0"/>
        <pt x="953" y="1991" on="1"/>
        <pt x="1009" y="1940" on="0"/>
        <pt x="1009" y="1808" on="0"/>
        <pt x="915" y="1680" on="0"/>
        <pt x="842" y="1648" on="1"/>
        <pt x="735" y="1600" on="0"/>
        <pt x="676" y="1600" on="1"/>
        <pt x="656" y="1600" on="0"/>
        <pt x="628" y="1610" on="0"/>
        <pt x="628" y="1624" on="1"/>
        <pt x="628" y="1642" on="0"/>
        <pt x="684" y="1698" on="0"/>
        <pt x="723" y="1766" on="0"/>
        <pt x="734" y="1800" on="1"/>
        <pt x="752" y="1857" on="0"/>
        <pt x="752" y="1963" on="0"/>
      </contour>
      <contour>
        <pt x="818" y="1961" on="1"/>
        <pt x="829" y="1937" on="0"/>
        <pt x="829" y="1864" on="0"/>
        <pt x="818" y="1806" on="0"/>
        <pt x="806" y="1778" on="1"/>
        <pt x="781" y="1725" on="0"/>
        <pt x="726" y="1666" on="1"/>
        <pt x="803" y="1702" on="0"/>
        <pt x="847" y="1770" on="1"/>
        <pt x="883" y="1826" on="0"/>
        <pt x="883" y="1878" on="1"/>
        <pt x="883" y="1968" on="0"/>
        <pt x="838" y="1968" on="1"/>
        <pt x="825" y="1968" on="0"/>
      </contour>
    </TTGlyph>
    <TTGlyph name="Ecircumflex" xMin="75" yMin="-52" xMax="1398" yMax="1980">
      <contour>
        <pt x="450" y="-20" on="1"/>
        <pt x="384" y="-20" on="0"/>
        <pt x="333" y="12" on="1"/>
        <pt x="282" y="-20" on="0"/>
        <pt x="195" y="-20" on="0"/>
        <pt x="139" y="-5" on="0"/>
        <pt x="118" y="8" on="1"/>
        <pt x="75" y="34" on="0"/>
        <pt x="75" y="73" on="1"/>
        <pt x="75" y="93" on="0"/>
        <pt x="86" y="108" on="1"/>
        <pt x="108" y="91" on="0"/>
        <pt x="142" y="91" on="1"/>
        <pt x="231" y="91" on="0"/>
        <pt x="265" y="167" on="1"/>
        <pt x="265" y="656" on="1"/>
        <pt x="265" y="702" on="0"/>
        <pt x="246" y="724" on="1"/>
        <pt x="216" y="761" on="0"/>
        <pt x="143" y="797" on="1"/>
        <pt x="211" y="828" on="0"/>
        <pt x="231" y="852" on="1"/>
        <pt x="265" y="891" on="0"/>
        <pt x="265" y="940" on="1"/>
        <pt x="265" y="1362" on="1"/>
        <pt x="231" y="1439" on="0"/>
        <pt x="142" y="1439" on="1"/>
        <pt x="108" y="1439" on="0"/>
        <pt x="86" y="1422" on="1"/>
        <pt x="75" y="1437" on="0"/>
        <pt x="75" y="1476" on="0"/>
        <pt x="98" y="1510" on="0"/>
        <pt x="118" y="1522" on="1"/>
        <pt x="164" y="1550" on="0"/>
        <pt x="283" y="1550" on="0"/>
        <pt x="333" y="1517" on="1"/>
        <pt x="385" y="1550" on="0"/>
        <pt x="519" y="1550" on="0"/>
        <pt x="574" y="1511" on="1"/>
        <pt x="680" y="1550" on="0"/>
        <pt x="819" y="1550" on="1"/>
        <pt x="922" y="1550" on="0"/>
        <pt x="995" y="1530" on="1"/>
        <pt x="1084" y="1506" on="1"/>
        <pt x="1100" y="1502" on="0"/>
        <pt x="1115" y="1502" on="1"/>
        <pt x="1143" y="1502" on="0"/>
        <pt x="1143" y="1542" on="1"/>
        <pt x="1143" y="1552" on="0"/>
        <pt x="1136" y="1576" on="1"/>
        <pt x="1164" y="1581" on="0"/>
        <pt x="1250" y="1581" on="0"/>
        <pt x="1310" y="1524" on="0"/>
        <pt x="1310" y="1417" on="0"/>
        <pt x="1291" y="1392" on="1"/>
        <pt x="1318" y="1352" on="0"/>
        <pt x="1318" y="1237" on="0"/>
        <pt x="1279" y="1198" on="1"/>
        <pt x="1291" y="1168" on="0"/>
        <pt x="1291" y="1111" on="0"/>
        <pt x="1272" y="1064" on="0"/>
        <pt x="1258" y="1048" on="1"/>
        <pt x="1230" y="1019" on="0"/>
        <pt x="1201" y="1019" on="1"/>
        <pt x="1159" y="1019" on="0"/>
        <pt x="1125" y="1037" on="1"/>
        <pt x="1137" y="1061" on="0"/>
        <pt x="1137" y="1108" on="1"/>
        <pt x="1137" y="1218" on="0"/>
        <pt x="1082" y="1301" on="1"/>
        <pt x="1007" y="1415" on="0"/>
        <pt x="857" y="1415" on="1"/>
        <pt x="781" y="1415" on="0"/>
        <pt x="658" y="1341" on="0"/>
        <pt x="633" y="1272" on="1"/>
        <pt x="633" y="885" on="1"/>
        <pt x="668" y="863" on="0"/>
        <pt x="729" y="863" on="0"/>
        <pt x="760" y="865" on="0"/>
        <pt x="776" y="868" on="1"/>
        <pt x="817" y="874" on="0"/>
        <pt x="839" y="884" on="1"/>
        <pt x="881" y="904" on="0"/>
        <pt x="881" y="982" on="1"/>
        <pt x="881" y="1026" on="0"/>
        <pt x="860" y="1050" on="1"/>
        <pt x="880" y="1064" on="0"/>
        <pt x="910" y="1064" on="1"/>
        <pt x="977" y="1064" on="0"/>
        <pt x="1007" y="1010" on="1"/>
        <pt x="1018" y="991" on="0"/>
        <pt x="1018" y="945" on="0"/>
        <pt x="1006" y="911" on="1"/>
        <pt x="1047" y="864" on="0"/>
        <pt x="1047" y="735" on="0"/>
        <pt x="1006" y="688" on="1"/>
        <pt x="1018" y="654" on="0"/>
        <pt x="1018" y="599" on="0"/>
        <pt x="996" y="549" on="0"/>
        <pt x="980" y="534" on="1"/>
        <pt x="949" y="506" on="0"/>
        <pt x="910" y="506" on="1"/>
        <pt x="882" y="506" on="0"/>
        <pt x="860" y="522" on="1"/>
        <pt x="881" y="557" on="0"/>
        <pt x="881" y="604" on="1"/>
        <pt x="881" y="697" on="0"/>
        <pt x="830" y="719" on="1"/>
        <pt x="785" y="737" on="0"/>
        <pt x="669" y="737" on="0"/>
        <pt x="633" y="716" on="1"/>
        <pt x="633" y="216" on="1"/>
        <pt x="691" y="114" on="0"/>
        <pt x="857" y="114" on="1"/>
        <pt x="1045" y="114" on="0"/>
        <pt x="1113" y="230" on="1"/>
        <pt x="1192" y="363" on="0"/>
        <pt x="1192" y="515" on="1"/>
        <pt x="1192" y="559" on="0"/>
        <pt x="1184" y="583" on="1"/>
        <pt x="1209" y="608" on="0"/>
        <pt x="1263" y="608" on="0"/>
        <pt x="1291" y="593" on="0"/>
        <pt x="1302" y="582" on="1"/>
        <pt x="1326" y="555" on="0"/>
        <pt x="1326" y="527" on="1"/>
        <pt x="1320" y="478" on="1"/>
        <pt x="1320" y="459" on="0"/>
        <pt x="1330" y="447" on="1"/>
        <pt x="1350" y="426" on="0"/>
        <pt x="1350" y="389" on="0"/>
        <pt x="1338" y="363" on="1"/>
        <pt x="1361" y="350" on="0"/>
        <pt x="1398" y="299" on="0"/>
        <pt x="1398" y="272" on="1"/>
        <pt x="1398" y="215" on="0"/>
        <pt x="1350" y="170" on="1"/>
        <pt x="1371" y="140" on="0"/>
        <pt x="1371" y="27" on="0"/>
        <pt x="1306" y="-52" on="0"/>
        <pt x="1254" y="-52" on="1"/>
        <pt x="1226" y="-52" on="0"/>
        <pt x="1196" y="-46" on="1"/>
        <pt x="1200" y="-24" on="0"/>
        <pt x="1200" y="-2" on="1"/>
        <pt x="1200" y="44" on="0"/>
        <pt x="1158" y="44" on="1"/>
        <pt x="1111" y="44" on="0"/>
        <pt x="1064" y="25" on="1"/>
        <pt x="953" y="-20" on="0"/>
        <pt x="670" y="-20" on="0"/>
        <pt x="571" y="17" on="1"/>
        <pt x="519" y="-20" on="0"/>
      </contour>
      <contour>
        <pt x="361" y="265" on="1"/>
        <pt x="411" y="284" on="0"/>
        <pt x="416" y="396" on="1"/>
        <pt x="422" y="508" on="0"/>
        <pt x="422" y="904" on="0"/>
        <pt x="421" y="1035" on="0"/>
        <pt x="420" y="1075" on="1"/>
        <pt x="417" y="1193" on="0"/>
        <pt x="378" y="1242" on="0"/>
        <pt x="361" y="1250" on="1"/>
        <pt x="361" y="902" on="0"/>
        <pt x="349" y="854" on="1"/>
        <pt x="335" y="814" on="0"/>
        <pt x="281" y="797" on="1"/>
        <pt x="341" y="776" on="0"/>
        <pt x="349" y="746" on="1"/>
        <pt x="361" y="698" on="0"/>
        <pt x="361" y="395" on="1"/>
      </contour>
      <contour>
        <pt x="613" y="275" on="1"/>
        <pt x="613" y="272" on="0"/>
        <pt x="614" y="270" on="1"/>
      </contour>
      <contour>
        <pt x="662" y="1645" on="1"/>
        <pt x="599" y="1560" on="0"/>
        <pt x="533" y="1560" on="1"/>
        <pt x="482" y="1560" on="0"/>
        <pt x="477" y="1596" on="1"/>
        <pt x="686" y="1887" on="1"/>
        <pt x="756" y="1980" on="0"/>
        <pt x="812" y="1980" on="1"/>
        <pt x="859" y="1980" on="0"/>
        <pt x="903" y="1936" on="1"/>
        <pt x="922" y="1917" on="0"/>
        <pt x="948" y="1887" on="1"/>
        <pt x="1178" y="1612" on="1"/>
        <pt x="1165" y="1589" on="0"/>
        <pt x="1097" y="1560" on="0"/>
        <pt x="1026" y="1560" on="0"/>
        <pt x="973" y="1571" on="0"/>
        <pt x="949" y="1582" on="1"/>
        <pt x="913" y="1600" on="0"/>
        <pt x="852" y="1657" on="1"/>
        <pt x="743" y="1760" on="1"/>
      </contour>
      <contour>
        <pt x="806" y="1845" on="1"/>
        <pt x="779" y="1811" on="1"/>
        <pt x="888" y="1708" on="1"/>
        <pt x="955" y="1644" on="0"/>
        <pt x="1015" y="1644" on="1"/>
      </contour>
    </TTGlyph>
    <TTGlyph name="Edieresis" xMin="75" yMin="-52" xMax="1399" yMax="1940">
      <contour>
        <pt x="450" y="-20" on="1"/>
        <pt x="384" y="-20" on="0"/>
        <pt x="333" y="12" on="1"/>
        <pt x="282" y="-20" on="0"/>
        <pt x="195" y="-20" on="0"/>
        <pt x="139" y="-5" on="0"/>
        <pt x="118" y="8" on="1"/>
        <pt x="75" y="34" on="0"/>
        <pt x="75" y="73" on="1"/>
        <pt x="75" y="93" on="0"/>
        <pt x="86" y="108" on="1"/>
        <pt x="108" y="91" on="0"/>
        <pt x="142" y="91" on="1"/>
        <pt x="231" y="91" on="0"/>
        <pt x="265" y="167" on="1"/>
        <pt x="265" y="656" on="1"/>
        <pt x="265" y="702" on="0"/>
        <pt x="246" y="724" on="1"/>
        <pt x="216" y="761" on="0"/>
        <pt x="143" y="797" on="1"/>
        <pt x="211" y="828" on="0"/>
        <pt x="231" y="852" on="1"/>
        <pt x="265" y="891" on="0"/>
        <pt x="265" y="940" on="1"/>
        <pt x="265" y="1362" on="1"/>
        <pt x="231" y="1439" on="0"/>
        <pt x="142" y="1439" on="1"/>
        <pt x="108" y="1439" on="0"/>
        <pt x="86" y="1422" on="1"/>
        <pt x="75" y="1437" on="0"/>
        <pt x="75" y="1476" on="0"/>
        <pt x="98" y="1510" on="0"/>
        <pt x="118" y="1522" on="1"/>
        <pt x="164" y="1550" on="0"/>
        <pt x="283" y="1550" on="0"/>
        <pt x="333" y="1517" on="1"/>
        <pt x="385" y="1550" on="0"/>
        <pt x="519" y="1550" on="0"/>
        <pt x="574" y="1511" on="1"/>
        <pt x="680" y="1550" on="0"/>
        <pt x="819" y="1550" on="1"/>
        <pt x="922" y="1550" on="0"/>
        <pt x="995" y="1530" on="1"/>
        <pt x="1084" y="1506" on="1"/>
        <pt x="1100" y="1502" on="0"/>
        <pt x="1115" y="1502" on="1"/>
        <pt x="1143" y="1502" on="0"/>
        <pt x="1143" y="1542" on="1"/>
        <pt x="1143" y="1552" on="0"/>
        <pt x="1136" y="1576" on="1"/>
        <pt x="1164" y="1581" on="0"/>
        <pt x="1250" y="1581" on="0"/>
        <pt x="1310" y="1524" on="0"/>
        <pt x="1310" y="1417" on="0"/>
        <pt x="1291" y="1392" on="1"/>
        <pt x="1318" y="1352" on="0"/>
        <pt x="1318" y="1237" on="0"/>
        <pt x="1279" y="1198" on="1"/>
        <pt x="1291" y="1168" on="0"/>
        <pt x="1291" y="1111" on="0"/>
        <pt x="1272" y="1064" on="0"/>
        <pt x="1258" y="1048" on="1"/>
        <pt x="1230" y="1019" on="0"/>
        <pt x="1201" y="1019" on="1"/>
        <pt x="1159" y="1019" on="0"/>
        <pt x="1125" y="1037" on="1"/>
        <pt x="1137" y="1061" on="0"/>
        <pt x="1137" y="1108" on="1"/>
        <pt x="1137" y="1218" on="0"/>
        <pt x="1082" y="1301" on="1"/>
        <pt x="1007" y="1415" on="0"/>
        <pt x="857" y="1415" on="1"/>
        <pt x="781" y="1415" on="0"/>
        <pt x="658" y="1341" on="0"/>
        <pt x="633" y="1272" on="1"/>
        <pt x="633" y="885" on="1"/>
        <pt x="668" y="863" on="0"/>
        <pt x="729" y="863" on="0"/>
        <pt x="760" y="865" on="0"/>
        <pt x="776" y="868" on="1"/>
        <pt x="817" y="874" on="0"/>
        <pt x="839" y="884" on="1"/>
        <pt x="881" y="904" on="0"/>
        <pt x="881" y="982" on="1"/>
        <pt x="881" y="1026" on="0"/>
        <pt x="860" y="1050" on="1"/>
        <pt x="880" y="1064" on="0"/>
        <pt x="910" y="1064" on="1"/>
        <pt x="977" y="1064" on="0"/>
        <pt x="1007" y="1010" on="1"/>
        <pt x="1018" y="991" on="0"/>
        <pt x="1018" y="945" on="0"/>
        <pt x="1006" y="911" on="1"/>
        <pt x="1047" y="864" on="0"/>
        <pt x="1047" y="735" on="0"/>
        <pt x="1006" y="688" on="1"/>
        <pt x="1018" y="654" on="0"/>
        <pt x="1018" y="599" on="0"/>
        <pt x="996" y="549" on="0"/>
        <pt x="980" y="534" on="1"/>
        <pt x="949" y="506" on="0"/>
        <pt x="910" y="506" on="1"/>
        <pt x="882" y="506" on="0"/>
        <pt x="860" y="522" on="1"/>
        <pt x="881" y="557" on="0"/>
        <pt x="881" y="604" on="1"/>
        <pt x="881" y="697" on="0"/>
        <pt x="830" y="719" on="1"/>
        <pt x="785" y="737" on="0"/>
        <pt x="669" y="737" on="0"/>
        <pt x="633" y="716" on="1"/>
        <pt x="633" y="216" on="1"/>
        <pt x="691" y="114" on="0"/>
        <pt x="857" y="114" on="1"/>
        <pt x="1045" y="114" on="0"/>
        <pt x="1113" y="230" on="1"/>
        <pt x="1192" y="363" on="0"/>
        <pt x="1192" y="515" on="1"/>
        <pt x="1192" y="559" on="0"/>
        <pt x="1184" y="583" on="1"/>
        <pt x="1209" y="608" on="0"/>
        <pt x="1263" y="608" on="0"/>
        <pt x="1291" y="593" on="0"/>
        <pt x="1302" y="582" on="1"/>
        <pt x="1326" y="555" on="0"/>
        <pt x="1326" y="527" on="1"/>
        <pt x="1320" y="478" on="1"/>
        <pt x="1320" y="459" on="0"/>
        <pt x="1330" y="447" on="1"/>
        <pt x="1350" y="426" on="0"/>
        <pt x="1350" y="389" on="0"/>
        <pt x="1338" y="363" on="1"/>
        <pt x="1361" y="350" on="0"/>
        <pt x="1398" y="299" on="0"/>
        <pt x="1398" y="272" on="1"/>
        <pt x="1398" y="215" on="0"/>
        <pt x="1350" y="170" on="1"/>
        <pt x="1371" y="140" on="0"/>
        <pt x="1371" y="27" on="0"/>
        <pt x="1306" y="-52" on="0"/>
        <pt x="1254" y="-52" on="1"/>
        <pt x="1226" y="-52" on="0"/>
        <pt x="1196" y="-46" on="1"/>
        <pt x="1200" y="-24" on="0"/>
        <pt x="1200" y="-2" on="1"/>
        <pt x="1200" y="44" on="0"/>
        <pt x="1158" y="44" on="1"/>
        <pt x="1111" y="44" on="0"/>
        <pt x="1064" y="25" on="1"/>
        <pt x="953" y="-20" on="0"/>
        <pt x="670" y="-20" on="0"/>
        <pt x="571" y="17" on="1"/>
        <pt x="519" y="-20" on="0"/>
      </contour>
      <contour>
        <pt x="361" y="265" on="1"/>
        <pt x="411" y="284" on="0"/>
        <pt x="416" y="396" on="1"/>
        <pt x="422" y="508" on="0"/>
        <pt x="422" y="904" on="0"/>
        <pt x="421" y="1035" on="0"/>
        <pt x="420" y="1075" on="1"/>
        <pt x="417" y="1193" on="0"/>
        <pt x="378" y="1242" on="0"/>
        <pt x="361" y="1250" on="1"/>
        <pt x="361" y="902" on="0"/>
        <pt x="349" y="854" on="1"/>
        <pt x="335" y="814" on="0"/>
        <pt x="281" y="797" on="1"/>
        <pt x="341" y="776" on="0"/>
        <pt x="349" y="746" on="1"/>
        <pt x="361" y="698" on="0"/>
        <pt x="361" y="395" on="1"/>
      </contour>
      <contour>
        <pt x="613" y="275" on="1"/>
        <pt x="613" y="272" on="0"/>
        <pt x="614" y="270" on="1"/>
      </contour>
      <contour>
        <pt x="1122" y="1603" on="0"/>
        <pt x="1040" y="1652" on="0"/>
        <pt x="1009" y="1710" on="0"/>
        <pt x="990" y="1733" on="0"/>
        <pt x="969" y="1750" on="0"/>
        <pt x="956" y="1756" on="1"/>
        <pt x="927" y="1771" on="1"/>
        <pt x="961" y="1792" on="0"/>
        <pt x="1002" y="1825" on="0"/>
        <pt x="1039" y="1894" on="0"/>
        <pt x="1119" y="1940" on="0"/>
        <pt x="1166" y="1940" on="1"/>
        <pt x="1261" y="1940" on="0"/>
        <pt x="1307" y="1855" on="1"/>
        <pt x="1339" y="1796" on="0"/>
        <pt x="1399" y="1771" on="1"/>
        <pt x="1373" y="1756" on="1"/>
        <pt x="1331" y="1734" on="0"/>
        <pt x="1307" y="1693" on="1"/>
        <pt x="1257" y="1603" on="0"/>
        <pt x="1166" y="1603" on="1"/>
      </contour>
      <contour>
        <pt x="804" y="1693" on="1"/>
        <pt x="754" y="1603" on="0"/>
        <pt x="664" y="1603" on="1"/>
        <pt x="619" y="1603" on="0"/>
        <pt x="537" y="1652" on="0"/>
        <pt x="506" y="1710" on="0"/>
        <pt x="487" y="1733" on="0"/>
        <pt x="466" y="1750" on="0"/>
        <pt x="453" y="1756" on="1"/>
        <pt x="424" y="1771" on="1"/>
        <pt x="458" y="1792" on="0"/>
        <pt x="499" y="1825" on="0"/>
        <pt x="536" y="1894" on="0"/>
        <pt x="616" y="1940" on="0"/>
        <pt x="664" y="1940" on="1"/>
        <pt x="758" y="1940" on="0"/>
        <pt x="804" y="1855" on="1"/>
        <pt x="836" y="1796" on="0"/>
        <pt x="896" y="1771" on="1"/>
        <pt x="870" y="1756" on="1"/>
        <pt x="828" y="1734" on="0"/>
      </contour>
      <contour>
        <pt x="1123" y="1724" on="0"/>
        <pt x="1117" y="1751" on="0"/>
        <pt x="1117" y="1820" on="0"/>
        <pt x="1151" y="1869" on="1"/>
        <pt x="1131" y="1869" on="0"/>
        <pt x="1101" y="1859" on="0"/>
        <pt x="1079" y="1829" on="0"/>
        <pt x="1069" y="1811" on="0"/>
        <pt x="1062" y="1801" on="1"/>
        <pt x="1046" y="1776" on="0"/>
        <pt x="1035" y="1771" on="1"/>
        <pt x="1049" y="1763" on="0"/>
        <pt x="1072" y="1727" on="0"/>
        <pt x="1088" y="1708" on="1"/>
        <pt x="1112" y="1678" on="0"/>
        <pt x="1151" y="1678" on="1"/>
        <pt x="1145" y="1688" on="0"/>
        <pt x="1133" y="1705" on="0"/>
      </contour>
      <contour>
        <pt x="620" y="1724" on="0"/>
        <pt x="614" y="1751" on="0"/>
        <pt x="614" y="1820" on="0"/>
        <pt x="648" y="1869" on="1"/>
        <pt x="628" y="1869" on="0"/>
        <pt x="598" y="1859" on="0"/>
        <pt x="576" y="1829" on="0"/>
        <pt x="566" y="1811" on="0"/>
        <pt x="560" y="1801" on="1"/>
        <pt x="543" y="1776" on="0"/>
        <pt x="532" y="1771" on="1"/>
        <pt x="546" y="1763" on="0"/>
        <pt x="569" y="1727" on="0"/>
        <pt x="585" y="1708" on="1"/>
        <pt x="609" y="1678" on="0"/>
        <pt x="648" y="1678" on="1"/>
        <pt x="642" y="1688" on="0"/>
        <pt x="630" y="1705" on="0"/>
      </contour>
    </TTGlyph>
    <TTGlyph name="Egrave" xMin="75" yMin="-52" xMax="1398" yMax="2020">
      <contour>
        <pt x="450" y="-20" on="1"/>
        <pt x="384" y="-20" on="0"/>
        <pt x="333" y="12" on="1"/>
        <pt x="282" y="-20" on="0"/>
        <pt x="195" y="-20" on="0"/>
        <pt x="139" y="-5" on="0"/>
        <pt x="118" y="8" on="1"/>
        <pt x="75" y="34" on="0"/>
        <pt x="75" y="73" on="1"/>
        <pt x="75" y="93" on="0"/>
        <pt x="86" y="108" on="1"/>
        <pt x="108" y="91" on="0"/>
        <pt x="142" y="91" on="1"/>
        <pt x="231" y="91" on="0"/>
        <pt x="265" y="167" on="1"/>
        <pt x="265" y="656" on="1"/>
        <pt x="265" y="702" on="0"/>
        <pt x="246" y="724" on="1"/>
        <pt x="216" y="761" on="0"/>
        <pt x="143" y="797" on="1"/>
        <pt x="211" y="828" on="0"/>
        <pt x="231" y="852" on="1"/>
        <pt x="265" y="891" on="0"/>
        <pt x="265" y="940" on="1"/>
        <pt x="265" y="1362" on="1"/>
        <pt x="231" y="1439" on="0"/>
        <pt x="142" y="1439" on="1"/>
        <pt x="108" y="1439" on="0"/>
        <pt x="86" y="1422" on="1"/>
        <pt x="75" y="1437" on="0"/>
        <pt x="75" y="1476" on="0"/>
        <pt x="98" y="1510" on="0"/>
        <pt x="118" y="1522" on="1"/>
        <pt x="164" y="1550" on="0"/>
        <pt x="283" y="1550" on="0"/>
        <pt x="333" y="1517" on="1"/>
        <pt x="385" y="1550" on="0"/>
        <pt x="519" y="1550" on="0"/>
        <pt x="574" y="1511" on="1"/>
        <pt x="680" y="1550" on="0"/>
        <pt x="819" y="1550" on="1"/>
        <pt x="922" y="1550" on="0"/>
        <pt x="995" y="1530" on="1"/>
        <pt x="1084" y="1506" on="1"/>
        <pt x="1100" y="1502" on="0"/>
        <pt x="1115" y="1502" on="1"/>
        <pt x="1143" y="1502" on="0"/>
        <pt x="1143" y="1542" on="1"/>
        <pt x="1143" y="1552" on="0"/>
        <pt x="1136" y="1576" on="1"/>
        <pt x="1164" y="1581" on="0"/>
        <pt x="1250" y="1581" on="0"/>
        <pt x="1310" y="1524" on="0"/>
        <pt x="1310" y="1417" on="0"/>
        <pt x="1291" y="1392" on="1"/>
        <pt x="1318" y="1352" on="0"/>
        <pt x="1318" y="1237" on="0"/>
        <pt x="1279" y="1198" on="1"/>
        <pt x="1291" y="1168" on="0"/>
        <pt x="1291" y="1111" on="0"/>
        <pt x="1272" y="1064" on="0"/>
        <pt x="1258" y="1048" on="1"/>
        <pt x="1230" y="1019" on="0"/>
        <pt x="1201" y="1019" on="1"/>
        <pt x="1159" y="1019" on="0"/>
        <pt x="1125" y="1037" on="1"/>
        <pt x="1137" y="1061" on="0"/>
        <pt x="1137" y="1108" on="1"/>
        <pt x="1137" y="1218" on="0"/>
        <pt x="1082" y="1301" on="1"/>
        <pt x="1007" y="1415" on="0"/>
        <pt x="857" y="1415" on="1"/>
        <pt x="781" y="1415" on="0"/>
        <pt x="658" y="1341" on="0"/>
        <pt x="633" y="1272" on="1"/>
        <pt x="633" y="885" on="1"/>
        <pt x="668" y="863" on="0"/>
        <pt x="729" y="863" on="0"/>
        <pt x="760" y="865" on="0"/>
        <pt x="776" y="868" on="1"/>
        <pt x="817" y="874" on="0"/>
        <pt x="839" y="884" on="1"/>
        <pt x="881" y="904" on="0"/>
        <pt x="881" y="982" on="1"/>
        <pt x="881" y="1026" on="0"/>
        <pt x="860" y="1050" on="1"/>
        <pt x="880" y="1064" on="0"/>
        <pt x="910" y="1064" on="1"/>
        <pt x="977" y="1064" on="0"/>
        <pt x="1007" y="1010" on="1"/>
        <pt x="1018" y="991" on="0"/>
        <pt x="1018" y="945" on="0"/>
        <pt x="1006" y="911" on="1"/>
        <pt x="1047" y="864" on="0"/>
        <pt x="1047" y="735" on="0"/>
        <pt x="1006" y="688" on="1"/>
        <pt x="1018" y="654" on="0"/>
        <pt x="1018" y="599" on="0"/>
        <pt x="996" y="549" on="0"/>
        <pt x="980" y="534" on="1"/>
        <pt x="949" y="506" on="0"/>
        <pt x="910" y="506" on="1"/>
        <pt x="882" y="506" on="0"/>
        <pt x="860" y="522" on="1"/>
        <pt x="881" y="557" on="0"/>
        <pt x="881" y="604" on="1"/>
        <pt x="881" y="697" on="0"/>
        <pt x="830" y="719" on="1"/>
        <pt x="785" y="737" on="0"/>
        <pt x="669" y="737" on="0"/>
        <pt x="633" y="716" on="1"/>
        <pt x="633" y="216" on="1"/>
        <pt x="691" y="114" on="0"/>
        <pt x="857" y="114" on="1"/>
        <pt x="1045" y="114" on="0"/>
        <pt x="1113" y="230" on="1"/>
        <pt x="1192" y="363" on="0"/>
        <pt x="1192" y="515" on="1"/>
        <pt x="1192" y="559" on="0"/>
        <pt x="1184" y="583" on="1"/>
        <pt x="1209" y="608" on="0"/>
        <pt x="1263" y="608" on="0"/>
        <pt x="1291" y="593" on="0"/>
        <pt x="1302" y="582" on="1"/>
        <pt x="1326" y="555" on="0"/>
        <pt x="1326" y="527" on="1"/>
        <pt x="1320" y="478" on="1"/>
        <pt x="1320" y="459" on="0"/>
        <pt x="1330" y="447" on="1"/>
        <pt x="1350" y="426" on="0"/>
        <pt x="1350" y="389" on="0"/>
        <pt x="1338" y="363" on="1"/>
        <pt x="1361" y="350" on="0"/>
        <pt x="1398" y="299" on="0"/>
        <pt x="1398" y="272" on="1"/>
        <pt x="1398" y="215" on="0"/>
        <pt x="1350" y="170" on="1"/>
        <pt x="1371" y="140" on="0"/>
        <pt x="1371" y="27" on="0"/>
        <pt x="1306" y="-52" on="0"/>
        <pt x="1254" y="-52" on="1"/>
        <pt x="1226" y="-52" on="0"/>
        <pt x="1196" y="-46" on="1"/>
        <pt x="1200" y="-24" on="0"/>
        <pt x="1200" y="-2" on="1"/>
        <pt x="1200" y="44" on="0"/>
        <pt x="1158" y="44" on="1"/>
        <pt x="1111" y="44" on="0"/>
        <pt x="1064" y="25" on="1"/>
        <pt x="953" y="-20" on="0"/>
        <pt x="670" y="-20" on="0"/>
        <pt x="571" y="17" on="1"/>
        <pt x="519" y="-20" on="0"/>
      </contour>
      <contour>
        <pt x="361" y="265" on="1"/>
        <pt x="411" y="284" on="0"/>
        <pt x="416" y="396" on="1"/>
        <pt x="422" y="508" on="0"/>
        <pt x="422" y="904" on="0"/>
        <pt x="421" y="1035" on="0"/>
        <pt x="420" y="1075" on="1"/>
        <pt x="417" y="1193" on="0"/>
        <pt x="378" y="1242" on="0"/>
        <pt x="361" y="1250" on="1"/>
        <pt x="361" y="902" on="0"/>
        <pt x="349" y="854" on="1"/>
        <pt x="335" y="814" on="0"/>
        <pt x="281" y="797" on="1"/>
        <pt x="341" y="776" on="0"/>
        <pt x="349" y="746" on="1"/>
        <pt x="361" y="698" on="0"/>
        <pt x="361" y="395" on="1"/>
      </contour>
      <contour>
        <pt x="613" y="275" on="1"/>
        <pt x="613" y="272" on="0"/>
        <pt x="614" y="270" on="1"/>
      </contour>
      <contour>
        <pt x="903" y="1600" on="0"/>
        <pt x="722" y="1680" on="0"/>
        <pt x="628" y="1808" on="0"/>
        <pt x="628" y="1908" on="0"/>
        <pt x="652" y="1962" on="0"/>
        <pt x="673" y="1981" on="1"/>
        <pt x="716" y="2020" on="0"/>
        <pt x="767" y="2020" on="1"/>
        <pt x="853" y="2020" on="0"/>
        <pt x="889" y="1980" on="1"/>
        <pt x="885" y="1963" on="0"/>
        <pt x="885" y="1904" on="0"/>
        <pt x="892" y="1835" on="0"/>
        <pt x="903" y="1800" on="1"/>
        <pt x="928" y="1723" on="0"/>
        <pt x="985" y="1666" on="1"/>
        <pt x="1009" y="1642" on="0"/>
        <pt x="1009" y="1626" on="1"/>
        <pt x="1009" y="1600" on="0"/>
      </contour>
      <contour>
        <pt x="825" y="1716" on="0"/>
        <pt x="755" y="1838" on="0"/>
        <pt x="755" y="1926" on="0"/>
        <pt x="769" y="1956" on="1"/>
        <pt x="737" y="1957" on="0"/>
        <pt x="696" y="1909" on="0"/>
        <pt x="696" y="1876" on="1"/>
        <pt x="696" y="1813" on="0"/>
        <pt x="762" y="1748" on="1"/>
        <pt x="825" y="1687" on="0"/>
        <pt x="895" y="1666" on="1"/>
      </contour>
    </TTGlyph>
    <TTGlyph name="Eth" xMin="75" yMin="-20" xMax="1589" yMax="1550">
      <contour>
        <pt x="450" y="-20" on="1"/>
        <pt x="384" y="-20" on="0"/>
        <pt x="333" y="12" on="1"/>
        <pt x="282" y="-20" on="0"/>
        <pt x="195" y="-20" on="0"/>
        <pt x="139" y="-5" on="0"/>
        <pt x="118" y="8" on="1"/>
        <pt x="75" y="34" on="0"/>
        <pt x="75" y="73" on="1"/>
        <pt x="75" y="93" on="0"/>
        <pt x="86" y="108" on="1"/>
        <pt x="108" y="91" on="0"/>
        <pt x="142" y="91" on="1"/>
        <pt x="231" y="91" on="0"/>
        <pt x="265" y="167" on="1"/>
        <pt x="265" y="729" on="1"/>
        <pt x="85" y="729" on="1"/>
        <pt x="77" y="743" on="0"/>
        <pt x="77" y="761" on="1"/>
        <pt x="77" y="855" on="0"/>
        <pt x="206" y="855" on="1"/>
        <pt x="265" y="855" on="1"/>
        <pt x="265" y="1362" on="1"/>
        <pt x="231" y="1439" on="0"/>
        <pt x="142" y="1439" on="1"/>
        <pt x="108" y="1439" on="0"/>
        <pt x="86" y="1422" on="1"/>
        <pt x="75" y="1437" on="0"/>
        <pt x="75" y="1476" on="0"/>
        <pt x="98" y="1510" on="0"/>
        <pt x="118" y="1522" on="1"/>
        <pt x="164" y="1550" on="0"/>
        <pt x="283" y="1550" on="0"/>
        <pt x="333" y="1517" on="1"/>
        <pt x="385" y="1550" on="0"/>
        <pt x="513" y="1550" on="0"/>
        <pt x="565" y="1517" on="1"/>
        <pt x="690" y="1550" on="0"/>
        <pt x="890" y="1550" on="0"/>
        <pt x="1040" y="1529" on="0"/>
        <pt x="1179" y="1477" on="0"/>
        <pt x="1300" y="1388" on="0"/>
        <pt x="1348" y="1320" on="1"/>
        <pt x="1450" y="1177" on="0"/>
        <pt x="1477" y="938" on="1"/>
        <pt x="1483" y="879" on="0"/>
        <pt x="1502" y="855" on="1"/>
        <pt x="1534" y="816" on="0"/>
        <pt x="1589" y="797" on="1"/>
        <pt x="1531" y="775" on="0"/>
        <pt x="1513" y="752" on="1"/>
        <pt x="1483" y="714" on="0"/>
        <pt x="1477" y="656" on="1"/>
        <pt x="1446" y="326" on="0"/>
        <pt x="1261" y="148" on="1"/>
        <pt x="1086" y="-20" on="0"/>
        <pt x="799" y="-20" on="1"/>
        <pt x="667" y="-20" on="0"/>
        <pt x="571" y="17" on="1"/>
        <pt x="519" y="-20" on="0"/>
      </contour>
      <contour>
        <pt x="880" y="855" on="1"/>
        <pt x="888" y="841" on="0"/>
        <pt x="888" y="823" on="1"/>
        <pt x="888" y="729" on="0"/>
        <pt x="759" y="729" on="1"/>
        <pt x="633" y="729" on="1"/>
        <pt x="633" y="171" on="1"/>
        <pt x="687" y="113" on="0"/>
        <pt x="855" y="113" on="0"/>
        <pt x="965" y="175" on="0"/>
        <pt x="1002" y="247" on="1"/>
        <pt x="1078" y="392" on="0"/>
        <pt x="1078" y="733" on="1"/>
        <pt x="1078" y="871" on="1"/>
        <pt x="1078" y="1149" on="0"/>
        <pt x="986" y="1289" on="1"/>
        <pt x="905" y="1414" on="0"/>
        <pt x="766" y="1414" on="1"/>
        <pt x="668" y="1414" on="0"/>
        <pt x="633" y="1363" on="1"/>
        <pt x="633" y="855" on="1"/>
      </contour>
      <contour>
        <pt x="1130" y="1250" on="1"/>
        <pt x="1203" y="1041" on="0"/>
        <pt x="1203" y="786" on="1"/>
        <pt x="1203" y="490" on="0"/>
        <pt x="1134" y="265" on="1"/>
        <pt x="1179" y="278" on="0"/>
        <pt x="1202" y="329" on="1"/>
        <pt x="1278" y="502" on="0"/>
        <pt x="1278" y="784" on="1"/>
        <pt x="1278" y="1035" on="0"/>
        <pt x="1207" y="1182" on="1"/>
        <pt x="1176" y="1240" on="0"/>
      </contour>
      <contour>
        <pt x="361" y="265" on="1"/>
        <pt x="411" y="284" on="0"/>
        <pt x="416" y="396" on="1"/>
        <pt x="422" y="508" on="0"/>
        <pt x="422" y="904" on="0"/>
        <pt x="421" y="1035" on="0"/>
        <pt x="420" y="1075" on="1"/>
        <pt x="417" y="1193" on="0"/>
        <pt x="378" y="1242" on="0"/>
        <pt x="361" y="1250" on="1"/>
      </contour>
    </TTGlyph>
    <TTGlyph name="Euro" xMin="0" yMin="-20" xMax="1352" yMax="1550">
      <contour>
        <pt x="1185" y="467" on="1"/>
        <pt x="1201" y="495" on="0"/>
        <pt x="1297" y="495" on="0"/>
        <pt x="1352" y="429" on="0"/>
        <pt x="1352" y="292" on="0"/>
        <pt x="1279" y="148" on="0"/>
        <pt x="1212" y="95" on="1"/>
        <pt x="1068" y="-20" on="0"/>
        <pt x="848" y="-20" on="1"/>
        <pt x="460" y="-20" on="0"/>
        <pt x="296" y="312" on="1"/>
        <pt x="241" y="422" on="0"/>
        <pt x="219" y="569" on="1"/>
        <pt x="8" y="569" on="1"/>
        <pt x="0" y="583" on="0"/>
        <pt x="0" y="601" on="1"/>
        <pt x="0" y="695" on="0"/>
        <pt x="129" y="695" on="1"/>
        <pt x="205" y="695" on="1"/>
        <pt x="202" y="741" on="0"/>
        <pt x="202" y="786" on="1"/>
        <pt x="202" y="819" on="1"/>
        <pt x="8" y="819" on="1"/>
        <pt x="0" y="833" on="0"/>
        <pt x="0" y="851" on="1"/>
        <pt x="0" y="945" on="0"/>
        <pt x="129" y="945" on="1"/>
        <pt x="213" y="945" on="1"/>
        <pt x="213" y="947" on="1"/>
        <pt x="242" y="1200" on="0"/>
        <pt x="404" y="1366" on="1"/>
        <pt x="583" y="1550" on="0"/>
        <pt x="880" y="1550" on="1"/>
        <pt x="1097" y="1550" on="0"/>
        <pt x="1228" y="1435" on="1"/>
        <pt x="1352" y="1327" on="0"/>
        <pt x="1352" y="1155" on="1"/>
        <pt x="1352" y="1101" on="0"/>
        <pt x="1297" y="1035" on="0"/>
        <pt x="1266" y="1035" on="1"/>
        <pt x="1201" y="1035" on="0"/>
        <pt x="1185" y="1063" on="1"/>
        <pt x="1208" y="1096" on="0"/>
        <pt x="1208" y="1197" on="0"/>
        <pt x="1168" y="1302" on="0"/>
        <pt x="1129" y="1342" on="1"/>
        <pt x="1044" y="1428" on="0"/>
        <pt x="898" y="1428" on="1"/>
        <pt x="721" y="1428" on="0"/>
        <pt x="670" y="1280" on="1"/>
        <pt x="652" y="1230" on="0"/>
        <pt x="652" y="1160" on="1"/>
        <pt x="652" y="945" on="1"/>
        <pt x="1073" y="945" on="1"/>
        <pt x="1081" y="931" on="0"/>
        <pt x="1081" y="913" on="1"/>
        <pt x="1081" y="819" on="0"/>
        <pt x="952" y="819" on="1"/>
        <pt x="652" y="819" on="1"/>
        <pt x="652" y="695" on="1"/>
        <pt x="973" y="695" on="1"/>
        <pt x="981" y="681" on="0"/>
        <pt x="981" y="663" on="1"/>
        <pt x="981" y="569" on="0"/>
        <pt x="852" y="569" on="1"/>
        <pt x="652" y="569" on="1"/>
        <pt x="652" y="377" on="1"/>
        <pt x="652" y="254" on="0"/>
        <pt x="791" y="117" on="0"/>
        <pt x="913" y="117" on="1"/>
        <pt x="1031" y="117" on="0"/>
        <pt x="1118" y="193" on="1"/>
        <pt x="1208" y="272" on="0"/>
        <pt x="1208" y="390" on="1"/>
        <pt x="1208" y="434" on="0"/>
      </contour>
      <contour>
        <pt x="440" y="265" on="1"/>
        <pt x="455" y="271" on="0"/>
        <pt x="455" y="296" on="0"/>
        <pt x="453" y="309" on="0"/>
        <pt x="447" y="332" on="0"/>
        <pt x="442" y="350" on="1"/>
        <pt x="429" y="394" on="1"/>
        <pt x="381" y="545" on="0"/>
        <pt x="381" y="797" on="1"/>
        <pt x="381" y="971" on="0"/>
        <pt x="430" y="1151" on="1"/>
        <pt x="444" y="1207" on="0"/>
        <pt x="444" y="1246" on="0"/>
        <pt x="431" y="1250" on="1"/>
        <pt x="302" y="1069" on="0"/>
        <pt x="302" y="798" on="1"/>
        <pt x="302" y="485" on="0"/>
      </contour>
    </TTGlyph>
    <TTGlyph name="F" xMin="75" yMin="-20" xMax="1332" yMax="1581">
      <contour>
        <pt x="578" y="11" on="1"/>
        <pt x="526" y="-20" on="0"/>
        <pt x="391" y="-20" on="0"/>
        <pt x="340" y="12" on="1"/>
        <pt x="289" y="-20" on="0"/>
        <pt x="202" y="-20" on="0"/>
        <pt x="146" y="-5" on="0"/>
        <pt x="126" y="8" on="1"/>
        <pt x="82" y="34" on="0"/>
        <pt x="82" y="73" on="1"/>
        <pt x="82" y="93" on="0"/>
        <pt x="93" y="108" on="1"/>
        <pt x="115" y="91" on="0"/>
        <pt x="149" y="91" on="1"/>
        <pt x="238" y="91" on="0"/>
        <pt x="272" y="167" on="1"/>
        <pt x="272" y="657" on="1"/>
        <pt x="272" y="702" on="0"/>
        <pt x="254" y="724" on="1"/>
        <pt x="223" y="761" on="0"/>
        <pt x="150" y="797" on="1"/>
        <pt x="218" y="828" on="0"/>
        <pt x="238" y="852" on="1"/>
        <pt x="272" y="891" on="0"/>
        <pt x="272" y="940" on="1"/>
        <pt x="272" y="1362" on="1"/>
        <pt x="238" y="1439" on="0"/>
        <pt x="149" y="1439" on="1"/>
        <pt x="108" y="1439" on="0"/>
        <pt x="86" y="1422" on="1"/>
        <pt x="75" y="1437" on="0"/>
        <pt x="75" y="1476" on="0"/>
        <pt x="100" y="1510" on="0"/>
        <pt x="122" y="1522" on="1"/>
        <pt x="169" y="1550" on="0"/>
        <pt x="290" y="1550" on="0"/>
        <pt x="340" y="1517" on="1"/>
        <pt x="392" y="1550" on="0"/>
        <pt x="527" y="1550" on="0"/>
        <pt x="582" y="1510" on="1"/>
        <pt x="693" y="1550" on="0"/>
        <pt x="846" y="1550" on="1"/>
        <pt x="943" y="1550" on="0"/>
        <pt x="1012" y="1530" on="1"/>
        <pt x="1098" y="1506" on="1"/>
        <pt x="1114" y="1502" on="0"/>
        <pt x="1129" y="1502" on="1"/>
        <pt x="1157" y="1502" on="0"/>
        <pt x="1157" y="1542" on="1"/>
        <pt x="1157" y="1552" on="0"/>
        <pt x="1150" y="1576" on="1"/>
        <pt x="1178" y="1581" on="0"/>
        <pt x="1264" y="1581" on="0"/>
        <pt x="1324" y="1524" on="0"/>
        <pt x="1324" y="1413" on="0"/>
        <pt x="1302" y="1383" on="1"/>
        <pt x="1332" y="1337" on="0"/>
        <pt x="1332" y="1213" on="0"/>
        <pt x="1292" y="1168" on="1"/>
        <pt x="1305" y="1136" on="0"/>
        <pt x="1305" y="1071" on="0"/>
        <pt x="1287" y="1021" on="0"/>
        <pt x="1273" y="1004" on="1"/>
        <pt x="1245" y="970" on="0"/>
        <pt x="1206" y="970" on="1"/>
        <pt x="1171" y="970" on="0"/>
        <pt x="1139" y="987" on="1"/>
        <pt x="1152" y="1014" on="0"/>
        <pt x="1152" y="1089" on="0"/>
        <pt x="1145" y="1140" on="0"/>
        <pt x="1138" y="1168" on="1"/>
        <pt x="1124" y="1231" on="0"/>
        <pt x="1091" y="1292" on="1"/>
        <pt x="1025" y="1415" on="0"/>
        <pt x="884" y="1415" on="1"/>
        <pt x="709" y="1415" on="0"/>
        <pt x="640" y="1324" on="1"/>
        <pt x="640" y="862" on="1"/>
        <pt x="672" y="844" on="0"/>
        <pt x="726" y="844" on="0"/>
        <pt x="760" y="846" on="0"/>
        <pt x="777" y="848" on="1"/>
        <pt x="820" y="853" on="0"/>
        <pt x="842" y="864" on="1"/>
        <pt x="885" y="884" on="0"/>
        <pt x="885" y="1025" on="0"/>
        <pt x="864" y="1060" on="1"/>
        <pt x="880" y="1074" on="0"/>
        <pt x="914" y="1074" on="1"/>
        <pt x="981" y="1074" on="0"/>
        <pt x="1011" y="1005" on="1"/>
        <pt x="1022" y="980" on="0"/>
        <pt x="1022" y="925" on="0"/>
        <pt x="1010" y="891" on="1"/>
        <pt x="1051" y="844" on="0"/>
        <pt x="1051" y="715" on="0"/>
        <pt x="1010" y="668" on="1"/>
        <pt x="1022" y="634" on="0"/>
        <pt x="1022" y="579" on="0"/>
        <pt x="1000" y="529" on="0"/>
        <pt x="984" y="514" on="1"/>
        <pt x="953" y="486" on="0"/>
        <pt x="914" y="486" on="1"/>
        <pt x="886" y="486" on="0"/>
        <pt x="864" y="502" on="1"/>
        <pt x="885" y="537" on="0"/>
        <pt x="885" y="584" on="1"/>
        <pt x="885" y="677" on="0"/>
        <pt x="834" y="699" on="1"/>
        <pt x="791" y="716" on="0"/>
        <pt x="672" y="716" on="0"/>
        <pt x="640" y="698" on="1"/>
        <pt x="640" y="170" on="1"/>
        <pt x="678" y="91" on="0"/>
        <pt x="783" y="91" on="1"/>
        <pt x="817" y="91" on="0"/>
        <pt x="839" y="108" on="1"/>
        <pt x="850" y="93" on="0"/>
        <pt x="850" y="54" on="0"/>
        <pt x="827" y="20" on="0"/>
        <pt x="806" y="8" on="1"/>
        <pt x="761" y="-20" on="0"/>
        <pt x="636" y="-20" on="0"/>
      </contour>
      <contour>
        <pt x="368" y="265" on="1"/>
        <pt x="418" y="284" on="0"/>
        <pt x="424" y="396" on="1"/>
        <pt x="429" y="508" on="0"/>
        <pt x="429" y="904" on="0"/>
        <pt x="428" y="1035" on="0"/>
        <pt x="427" y="1075" on="1"/>
        <pt x="424" y="1193" on="0"/>
        <pt x="385" y="1242" on="0"/>
        <pt x="368" y="1250" on="1"/>
        <pt x="368" y="902" on="0"/>
        <pt x="356" y="854" on="1"/>
        <pt x="342" y="814" on="0"/>
        <pt x="288" y="797" on="1"/>
        <pt x="348" y="776" on="0"/>
        <pt x="356" y="746" on="1"/>
        <pt x="368" y="698" on="0"/>
        <pt x="368" y="395" on="1"/>
      </contour>
    </TTGlyph>
    <TTGlyph name="G" xMin="40" yMin="-30" xMax="1444" yMax="1560">
      <contour>
        <pt x="1126" y="24" on="1"/>
        <pt x="972" y="-30" on="0"/>
        <pt x="671" y="-30" on="0"/>
        <pt x="446" y="57" on="0"/>
        <pt x="360" y="140" on="1"/>
        <pt x="177" y="315" on="0"/>
        <pt x="142" y="625" on="1"/>
        <pt x="127" y="755" on="0"/>
        <pt x="40" y="797" on="1"/>
        <pt x="127" y="838" on="0"/>
        <pt x="159" y="1101" on="0"/>
        <pt x="279" y="1324" on="0"/>
        <pt x="373" y="1402" on="1"/>
        <pt x="565" y="1560" on="0"/>
        <pt x="854" y="1560" on="1"/>
        <pt x="1053" y="1560" on="0"/>
        <pt x="1188" y="1469" on="1"/>
        <pt x="1313" y="1385" on="0"/>
        <pt x="1343" y="1250" on="1"/>
        <pt x="1359" y="1174" on="0"/>
        <pt x="1384" y="1156" on="1"/>
        <pt x="1394" y="1148" on="0"/>
        <pt x="1409" y="1141" on="1"/>
        <pt x="1350" y="1053" on="0"/>
        <pt x="1289" y="1068" on="1"/>
        <pt x="1274" y="1071" on="0"/>
        <pt x="1261" y="1076" on="1"/>
        <pt x="1239" y="1032" on="0"/>
        <pt x="1169" y="974" on="0"/>
        <pt x="1084" y="965" on="0"/>
        <pt x="1073" y="975" on="1"/>
        <pt x="1098" y="1012" on="0"/>
        <pt x="1098" y="1069" on="1"/>
        <pt x="1098" y="1076" on="0"/>
        <pt x="1095" y="1087" on="1"/>
        <pt x="1090" y="1085" on="0"/>
        <pt x="1082" y="1085" on="0"/>
        <pt x="1060" y="1084" on="0"/>
        <pt x="1020" y="1100" on="0"/>
        <pt x="1003" y="1114" on="1"/>
        <pt x="965" y="1144" on="0"/>
        <pt x="963" y="1180" on="1"/>
        <pt x="963" y="1188" on="0"/>
        <pt x="966" y="1196" on="1"/>
        <pt x="1028" y="1177" on="0"/>
        <pt x="1084" y="1224" on="1"/>
        <pt x="1122" y="1257" on="0"/>
        <pt x="1118" y="1331" on="0"/>
        <pt x="1081" y="1380" on="0"/>
        <pt x="1047" y="1398" on="1"/>
        <pt x="971" y="1438" on="0"/>
        <pt x="852" y="1438" on="1"/>
        <pt x="581" y="1438" on="0"/>
        <pt x="581" y="1124" on="1"/>
        <pt x="581" y="958" on="1"/>
        <pt x="581" y="845" on="0"/>
        <pt x="691" y="797" on="1"/>
        <pt x="581" y="744" on="0"/>
        <pt x="581" y="624" on="1"/>
        <pt x="581" y="356" on="1"/>
        <pt x="581" y="229" on="0"/>
        <pt x="677" y="106" on="0"/>
        <pt x="781" y="106" on="1"/>
        <pt x="904" y="106" on="0"/>
        <pt x="944" y="216" on="1"/>
        <pt x="957" y="252" on="0"/>
        <pt x="957" y="299" on="1"/>
        <pt x="957" y="530" on="1"/>
        <pt x="938" y="549" on="0"/>
        <pt x="870" y="549" on="0"/>
        <pt x="848" y="532" on="1"/>
        <pt x="837" y="543" on="0"/>
        <pt x="837" y="605" on="0"/>
        <pt x="889" y="660" on="0"/>
        <pt x="996" y="660" on="0"/>
        <pt x="1031" y="631" on="1"/>
        <pt x="1079" y="660" on="0"/>
        <pt x="1189" y="660" on="0"/>
        <pt x="1234" y="630" on="1"/>
        <pt x="1276" y="660" on="0"/>
        <pt x="1350" y="660" on="0"/>
        <pt x="1392" y="646" on="0"/>
        <pt x="1408" y="634" on="1"/>
        <pt x="1444" y="607" on="0"/>
        <pt x="1444" y="567" on="1"/>
        <pt x="1444" y="543" on="0"/>
        <pt x="1433" y="532" on="1"/>
        <pt x="1410" y="549" on="0"/>
        <pt x="1338" y="549" on="0"/>
        <pt x="1304" y="481" on="1"/>
        <pt x="1304" y="153" on="1"/>
        <pt x="1323" y="91" on="0"/>
        <pt x="1387" y="91" on="1"/>
        <pt x="1411" y="91" on="0"/>
        <pt x="1433" y="108" on="1"/>
        <pt x="1444" y="93" on="0"/>
        <pt x="1444" y="73" on="1"/>
        <pt x="1444" y="32" on="0"/>
        <pt x="1354" y="-20" on="0"/>
        <pt x="1187" y="-20" on="0"/>
      </contour>
      <contour>
        <pt x="368" y="265" on="1"/>
        <pt x="383" y="271" on="0"/>
        <pt x="383" y="286" on="1"/>
        <pt x="383" y="308" on="0"/>
        <pt x="341" y="403" on="0"/>
        <pt x="306" y="630" on="0"/>
        <pt x="306" y="780" on="1"/>
        <pt x="306" y="1023" on="0"/>
        <pt x="365" y="1195" on="1"/>
        <pt x="372" y="1220" on="0"/>
        <pt x="372" y="1246" on="0"/>
        <pt x="359" y="1250" on="1"/>
        <pt x="312" y="1191" on="0"/>
        <pt x="292" y="1133" on="1"/>
        <pt x="255" y="1027" on="0"/>
        <pt x="233" y="846" on="1"/>
        <pt x="230" y="820" on="0"/>
        <pt x="174" y="797" on="1"/>
        <pt x="230" y="772" on="0"/>
        <pt x="233" y="746" on="1"/>
        <pt x="269" y="436" on="0"/>
        <pt x="324" y="332" on="1"/>
        <pt x="344" y="295" on="0"/>
      </contour>
      <contour>
        <pt x="1060" y="205" on="1"/>
        <pt x="1118" y="241" on="0"/>
        <pt x="1118" y="332" on="1"/>
        <pt x="1118" y="389" on="1"/>
        <pt x="1118" y="474" on="0"/>
        <pt x="1060" y="500" on="1"/>
      </contour>
      <contour>
        <pt x="1296" y="187" on="1"/>
        <pt x="1293" y="207" on="1"/>
      </contour>
    </TTGlyph>
    <TTGlyph name="H" xMin="78" yMin="-20" xMax="1643" yMax="1550">
      <contour>
        <pt x="556" y="11" on="1"/>
        <pt x="506" y="-20" on="0"/>
        <pt x="380" y="-20" on="0"/>
        <pt x="335" y="12" on="1"/>
        <pt x="284" y="-20" on="0"/>
        <pt x="198" y="-20" on="0"/>
        <pt x="142" y="-5" on="0"/>
        <pt x="122" y="8" on="1"/>
        <pt x="78" y="34" on="0"/>
        <pt x="78" y="73" on="1"/>
        <pt x="78" y="93" on="0"/>
        <pt x="89" y="108" on="1"/>
        <pt x="111" y="91" on="0"/>
        <pt x="145" y="91" on="1"/>
        <pt x="234" y="91" on="0"/>
        <pt x="268" y="167" on="1"/>
        <pt x="268" y="656" on="1"/>
        <pt x="268" y="734" on="0"/>
        <pt x="190" y="774" on="1"/>
        <pt x="146" y="797" on="1"/>
        <pt x="235" y="838" on="0"/>
        <pt x="258" y="886" on="1"/>
        <pt x="268" y="908" on="0"/>
        <pt x="268" y="940" on="1"/>
        <pt x="268" y="1362" on="1"/>
        <pt x="234" y="1439" on="0"/>
        <pt x="145" y="1439" on="1"/>
        <pt x="111" y="1439" on="0"/>
        <pt x="89" y="1422" on="1"/>
        <pt x="78" y="1437" on="0"/>
        <pt x="78" y="1476" on="0"/>
        <pt x="101" y="1510" on="0"/>
        <pt x="122" y="1522" on="1"/>
        <pt x="167" y="1550" on="0"/>
        <pt x="284" y="1550" on="0"/>
        <pt x="335" y="1518" on="1"/>
        <pt x="380" y="1550" on="0"/>
        <pt x="507" y="1550" on="0"/>
        <pt x="556" y="1518" on="1"/>
        <pt x="603" y="1550" on="0"/>
        <pt x="661" y="1550" on="1"/>
        <pt x="746" y="1550" on="0"/>
        <pt x="782" y="1493" on="1"/>
        <pt x="794" y="1475" on="0"/>
        <pt x="794" y="1435" on="0"/>
        <pt x="782" y="1422" on="1"/>
        <pt x="760" y="1439" on="0"/>
        <pt x="727" y="1439" on="1"/>
        <pt x="650" y="1439" on="0"/>
        <pt x="624" y="1364" on="1"/>
        <pt x="624" y="836" on="1"/>
        <pt x="1097" y="836" on="1"/>
        <pt x="1097" y="1364" on="1"/>
        <pt x="1071" y="1439" on="0"/>
        <pt x="994" y="1439" on="1"/>
        <pt x="961" y="1439" on="0"/>
        <pt x="939" y="1422" on="1"/>
        <pt x="927" y="1435" on="0"/>
        <pt x="927" y="1475" on="0"/>
        <pt x="950" y="1511" on="0"/>
        <pt x="968" y="1524" on="1"/>
        <pt x="1006" y="1550" on="0"/>
        <pt x="1060" y="1550" on="1"/>
        <pt x="1118" y="1550" on="0"/>
        <pt x="1165" y="1518" on="1"/>
        <pt x="1216" y="1550" on="0"/>
        <pt x="1341" y="1550" on="0"/>
        <pt x="1386" y="1518" on="1"/>
        <pt x="1435" y="1550" on="0"/>
        <pt x="1523" y="1550" on="0"/>
        <pt x="1579" y="1535" on="0"/>
        <pt x="1600" y="1522" on="1"/>
        <pt x="1643" y="1496" on="0"/>
        <pt x="1643" y="1457" on="1"/>
        <pt x="1643" y="1437" on="0"/>
        <pt x="1632" y="1422" on="1"/>
        <pt x="1610" y="1439" on="0"/>
        <pt x="1576" y="1439" on="1"/>
        <pt x="1487" y="1439" on="0"/>
        <pt x="1453" y="1362" on="1"/>
        <pt x="1453" y="940" on="1"/>
        <pt x="1453" y="862" on="0"/>
        <pt x="1530" y="819" on="1"/>
        <pt x="1552" y="807" on="0"/>
        <pt x="1575" y="797" on="1"/>
        <pt x="1515" y="768" on="0"/>
        <pt x="1494" y="750" on="1"/>
        <pt x="1453" y="712" on="0"/>
        <pt x="1453" y="656" on="1"/>
        <pt x="1453" y="167" on="1"/>
        <pt x="1487" y="91" on="0"/>
        <pt x="1576" y="91" on="1"/>
        <pt x="1610" y="91" on="0"/>
        <pt x="1632" y="108" on="1"/>
        <pt x="1643" y="93" on="0"/>
        <pt x="1643" y="54" on="0"/>
        <pt x="1620" y="20" on="0"/>
        <pt x="1600" y="8" on="1"/>
        <pt x="1554" y="-20" on="0"/>
        <pt x="1435" y="-20" on="0"/>
        <pt x="1386" y="12" on="1"/>
        <pt x="1341" y="-20" on="0"/>
        <pt x="1216" y="-20" on="0"/>
        <pt x="1165" y="12" on="1"/>
        <pt x="1118" y="-20" on="0"/>
        <pt x="1060" y="-20" on="1"/>
        <pt x="975" y="-20" on="0"/>
        <pt x="938" y="37" on="1"/>
        <pt x="927" y="55" on="0"/>
        <pt x="927" y="95" on="0"/>
        <pt x="939" y="108" on="1"/>
        <pt x="961" y="91" on="0"/>
        <pt x="994" y="91" on="1"/>
        <pt x="1071" y="91" on="0"/>
        <pt x="1097" y="166" on="1"/>
        <pt x="1097" y="693" on="1"/>
        <pt x="624" y="693" on="1"/>
        <pt x="624" y="166" on="1"/>
        <pt x="650" y="91" on="0"/>
        <pt x="727" y="91" on="1"/>
        <pt x="760" y="91" on="0"/>
        <pt x="782" y="108" on="1"/>
        <pt x="794" y="95" on="0"/>
        <pt x="794" y="55" on="0"/>
        <pt x="771" y="19" on="0"/>
        <pt x="752" y="6" on="1"/>
        <pt x="716" y="-20" on="0"/>
        <pt x="661" y="-20" on="1"/>
        <pt x="604" y="-20" on="0"/>
      </contour>
      <contour>
        <pt x="1179" y="904" on="0"/>
        <pt x="1179" y="408" on="0"/>
        <pt x="1186" y="364" on="1"/>
        <pt x="1199" y="280" on="0"/>
        <pt x="1238" y="265" on="1"/>
        <pt x="1238" y="395" on="1"/>
        <pt x="1238" y="661" on="0"/>
        <pt x="1246" y="730" on="0"/>
        <pt x="1250" y="744" on="1"/>
        <pt x="1259" y="779" on="0"/>
        <pt x="1311" y="797" on="1"/>
        <pt x="1265" y="811" on="0"/>
        <pt x="1250" y="854" on="1"/>
        <pt x="1238" y="902" on="0"/>
        <pt x="1238" y="1250" on="1"/>
        <pt x="1199" y="1232" on="0"/>
        <pt x="1190" y="1178" on="1"/>
        <pt x="1181" y="1119" on="0"/>
      </contour>
      <contour>
        <pt x="364" y="265" on="1"/>
        <pt x="412" y="284" on="0"/>
        <pt x="418" y="396" on="1"/>
        <pt x="423" y="508" on="0"/>
        <pt x="423" y="904" on="0"/>
        <pt x="422" y="1035" on="0"/>
        <pt x="421" y="1075" on="1"/>
        <pt x="418" y="1192" on="0"/>
        <pt x="381" y="1242" on="0"/>
        <pt x="364" y="1250" on="1"/>
        <pt x="364" y="902" on="0"/>
        <pt x="352" y="854" on="1"/>
        <pt x="338" y="814" on="0"/>
        <pt x="284" y="797" on="1"/>
        <pt x="344" y="776" on="0"/>
        <pt x="352" y="746" on="1"/>
        <pt x="364" y="698" on="0"/>
        <pt x="364" y="395" on="1"/>
      </contour>
    </TTGlyph>
    <TTGlyph name="I" xMin="75" yMin="-20" xMax="823" yMax="1550">
      <contour>
        <pt x="565" y="12" on="1"/>
        <pt x="514" y="-20" on="0"/>
        <pt x="384" y="-20" on="0"/>
        <pt x="333" y="12" on="1"/>
        <pt x="282" y="-20" on="0"/>
        <pt x="195" y="-20" on="0"/>
        <pt x="139" y="-5" on="0"/>
        <pt x="118" y="8" on="1"/>
        <pt x="75" y="34" on="0"/>
        <pt x="75" y="73" on="1"/>
        <pt x="75" y="93" on="0"/>
        <pt x="86" y="108" on="1"/>
        <pt x="108" y="91" on="0"/>
        <pt x="142" y="91" on="1"/>
        <pt x="231" y="91" on="0"/>
        <pt x="265" y="167" on="1"/>
        <pt x="265" y="656" on="1"/>
        <pt x="265" y="702" on="0"/>
        <pt x="246" y="724" on="1"/>
        <pt x="216" y="761" on="0"/>
        <pt x="143" y="797" on="1"/>
        <pt x="211" y="828" on="0"/>
        <pt x="231" y="852" on="1"/>
        <pt x="265" y="891" on="0"/>
        <pt x="265" y="940" on="1"/>
        <pt x="265" y="1362" on="1"/>
        <pt x="231" y="1439" on="0"/>
        <pt x="142" y="1439" on="1"/>
        <pt x="108" y="1439" on="0"/>
        <pt x="86" y="1422" on="1"/>
        <pt x="75" y="1437" on="0"/>
        <pt x="75" y="1476" on="0"/>
        <pt x="98" y="1510" on="0"/>
        <pt x="118" y="1522" on="1"/>
        <pt x="164" y="1550" on="0"/>
        <pt x="283" y="1550" on="0"/>
        <pt x="333" y="1517" on="1"/>
        <pt x="385" y="1550" on="0"/>
        <pt x="513" y="1550" on="0"/>
        <pt x="565" y="1517" on="1"/>
        <pt x="615" y="1550" on="0"/>
        <pt x="703" y="1550" on="0"/>
        <pt x="759" y="1535" on="0"/>
        <pt x="780" y="1522" on="1"/>
        <pt x="823" y="1496" on="0"/>
        <pt x="823" y="1457" on="1"/>
        <pt x="823" y="1437" on="0"/>
        <pt x="812" y="1422" on="1"/>
        <pt x="790" y="1439" on="0"/>
        <pt x="756" y="1439" on="1"/>
        <pt x="667" y="1439" on="0"/>
        <pt x="633" y="1362" on="1"/>
        <pt x="633" y="940" on="1"/>
        <pt x="633" y="891" on="0"/>
        <pt x="654" y="867" on="1"/>
        <pt x="687" y="828" on="0"/>
        <pt x="755" y="797" on="1"/>
        <pt x="682" y="761" on="0"/>
        <pt x="662" y="738" on="1"/>
        <pt x="633" y="702" on="0"/>
        <pt x="633" y="656" on="1"/>
        <pt x="633" y="167" on="1"/>
        <pt x="667" y="91" on="0"/>
        <pt x="756" y="91" on="1"/>
        <pt x="790" y="91" on="0"/>
        <pt x="812" y="108" on="1"/>
        <pt x="823" y="93" on="0"/>
        <pt x="823" y="54" on="0"/>
        <pt x="800" y="20" on="0"/>
        <pt x="780" y="8" on="1"/>
        <pt x="734" y="-20" on="0"/>
        <pt x="616" y="-20" on="0"/>
      </contour>
      <contour>
        <pt x="361" y="265" on="1"/>
        <pt x="411" y="284" on="0"/>
        <pt x="416" y="396" on="1"/>
        <pt x="422" y="508" on="0"/>
        <pt x="422" y="904" on="0"/>
        <pt x="421" y="1035" on="0"/>
        <pt x="420" y="1075" on="1"/>
        <pt x="417" y="1193" on="0"/>
        <pt x="378" y="1242" on="0"/>
        <pt x="361" y="1250" on="1"/>
        <pt x="361" y="902" on="0"/>
        <pt x="349" y="854" on="1"/>
        <pt x="335" y="814" on="0"/>
        <pt x="281" y="797" on="1"/>
        <pt x="341" y="776" on="0"/>
        <pt x="349" y="746" on="1"/>
        <pt x="361" y="698" on="0"/>
        <pt x="361" y="395" on="1"/>
      </contour>
    </TTGlyph>
    <TTGlyph name="IJ" xMin="75" yMin="-30" xMax="2075" yMax="1550">
      <contour>
        <pt x="565" y="12" on="1"/>
        <pt x="514" y="-20" on="0"/>
        <pt x="384" y="-20" on="0"/>
        <pt x="333" y="12" on="1"/>
        <pt x="282" y="-20" on="0"/>
        <pt x="195" y="-20" on="0"/>
        <pt x="139" y="-5" on="0"/>
        <pt x="118" y="8" on="1"/>
        <pt x="75" y="34" on="0"/>
        <pt x="75" y="73" on="1"/>
        <pt x="75" y="93" on="0"/>
        <pt x="86" y="108" on="1"/>
        <pt x="108" y="91" on="0"/>
        <pt x="142" y="91" on="1"/>
        <pt x="231" y="91" on="0"/>
        <pt x="265" y="167" on="1"/>
        <pt x="265" y="656" on="1"/>
        <pt x="265" y="702" on="0"/>
        <pt x="246" y="724" on="1"/>
        <pt x="216" y="761" on="0"/>
        <pt x="143" y="797" on="1"/>
        <pt x="211" y="828" on="0"/>
        <pt x="231" y="852" on="1"/>
        <pt x="265" y="891" on="0"/>
        <pt x="265" y="940" on="1"/>
        <pt x="265" y="1362" on="1"/>
        <pt x="231" y="1439" on="0"/>
        <pt x="142" y="1439" on="1"/>
        <pt x="108" y="1439" on="0"/>
        <pt x="86" y="1422" on="1"/>
        <pt x="75" y="1437" on="0"/>
        <pt x="75" y="1476" on="0"/>
        <pt x="98" y="1510" on="0"/>
        <pt x="118" y="1522" on="1"/>
        <pt x="164" y="1550" on="0"/>
        <pt x="283" y="1550" on="0"/>
        <pt x="333" y="1517" on="1"/>
        <pt x="385" y="1550" on="0"/>
        <pt x="513" y="1550" on="0"/>
        <pt x="565" y="1517" on="1"/>
        <pt x="615" y="1550" on="0"/>
        <pt x="703" y="1550" on="0"/>
        <pt x="759" y="1535" on="0"/>
        <pt x="780" y="1522" on="1"/>
        <pt x="823" y="1496" on="0"/>
        <pt x="823" y="1457" on="1"/>
        <pt x="823" y="1437" on="0"/>
        <pt x="812" y="1422" on="1"/>
        <pt x="790" y="1439" on="0"/>
        <pt x="756" y="1439" on="1"/>
        <pt x="667" y="1439" on="0"/>
        <pt x="633" y="1362" on="1"/>
        <pt x="633" y="940" on="1"/>
        <pt x="633" y="891" on="0"/>
        <pt x="654" y="867" on="1"/>
        <pt x="687" y="828" on="0"/>
        <pt x="755" y="797" on="1"/>
        <pt x="682" y="761" on="0"/>
        <pt x="662" y="738" on="1"/>
        <pt x="633" y="702" on="0"/>
        <pt x="633" y="656" on="1"/>
        <pt x="633" y="167" on="1"/>
        <pt x="667" y="91" on="0"/>
        <pt x="756" y="91" on="1"/>
        <pt x="790" y="91" on="0"/>
        <pt x="812" y="108" on="1"/>
        <pt x="823" y="93" on="0"/>
        <pt x="823" y="54" on="0"/>
        <pt x="800" y="20" on="0"/>
        <pt x="780" y="8" on="1"/>
        <pt x="734" y="-20" on="0"/>
        <pt x="616" y="-20" on="0"/>
      </contour>
      <contour>
        <pt x="361" y="265" on="1"/>
        <pt x="411" y="284" on="0"/>
        <pt x="416" y="396" on="1"/>
        <pt x="422" y="508" on="0"/>
        <pt x="422" y="904" on="0"/>
        <pt x="421" y="1035" on="0"/>
        <pt x="420" y="1075" on="1"/>
        <pt x="417" y="1193" on="0"/>
        <pt x="378" y="1242" on="0"/>
        <pt x="361" y="1250" on="1"/>
        <pt x="361" y="902" on="0"/>
        <pt x="349" y="854" on="1"/>
        <pt x="335" y="814" on="0"/>
        <pt x="281" y="797" on="1"/>
        <pt x="341" y="776" on="0"/>
        <pt x="349" y="746" on="1"/>
        <pt x="361" y="698" on="0"/>
        <pt x="361" y="395" on="1"/>
      </contour>
      <contour>
        <pt x="1885" y="362" on="1"/>
        <pt x="1907" y="301" on="0"/>
        <pt x="1958" y="281" on="1"/>
        <pt x="1918" y="268" on="0"/>
        <pt x="1848" y="200" on="0"/>
        <pt x="1845" y="190" on="1"/>
        <pt x="1813" y="91" on="0"/>
        <pt x="1671" y="28" on="1"/>
        <pt x="1540" y="-30" on="0"/>
        <pt x="1312" y="-30" on="0"/>
        <pt x="1155" y="27" on="0"/>
        <pt x="1095" y="78" on="1"/>
        <pt x="963" y="189" on="0"/>
        <pt x="963" y="350" on="1"/>
        <pt x="963" y="456" on="0"/>
        <pt x="892" y="503" on="1"/>
        <pt x="922" y="552" on="0"/>
        <pt x="976" y="552" on="1"/>
        <pt x="1006" y="552" on="0"/>
        <pt x="1034" y="535" on="1"/>
        <pt x="1081" y="595" on="0"/>
        <pt x="1212" y="595" on="1"/>
        <pt x="1234" y="595" on="0"/>
        <pt x="1243" y="584" on="1"/>
        <pt x="1230" y="569" on="0"/>
        <pt x="1245" y="512" on="0"/>
        <pt x="1245" y="505" on="1"/>
        <pt x="1245" y="493" on="1"/>
        <pt x="1245" y="488" on="0"/>
        <pt x="1247" y="483" on="1"/>
        <pt x="1257" y="485" on="0"/>
        <pt x="1279" y="485" on="0"/>
        <pt x="1312" y="473" on="0"/>
        <pt x="1325" y="462" on="1"/>
        <pt x="1355" y="437" on="0"/>
        <pt x="1355" y="403" on="1"/>
        <pt x="1355" y="394" on="0"/>
        <pt x="1352" y="387" on="1"/>
        <pt x="1334" y="394" on="0"/>
        <pt x="1292" y="394" on="0"/>
        <pt x="1250" y="380" on="0"/>
        <pt x="1232" y="364" on="1"/>
        <pt x="1192" y="329" on="0"/>
        <pt x="1192" y="262" on="1"/>
        <pt x="1192" y="197" on="0"/>
        <pt x="1242" y="150" on="1"/>
        <pt x="1293" y="104" on="0"/>
        <pt x="1454" y="104" on="0"/>
        <pt x="1517" y="151" on="1"/>
        <pt x="1517" y="656" on="1"/>
        <pt x="1517" y="702" on="0"/>
        <pt x="1498" y="724" on="1"/>
        <pt x="1468" y="761" on="0"/>
        <pt x="1395" y="797" on="1"/>
        <pt x="1463" y="828" on="0"/>
        <pt x="1483" y="852" on="1"/>
        <pt x="1517" y="891" on="0"/>
        <pt x="1517" y="940" on="1"/>
        <pt x="1517" y="1362" on="1"/>
        <pt x="1483" y="1439" on="0"/>
        <pt x="1394" y="1439" on="1"/>
        <pt x="1360" y="1439" on="0"/>
        <pt x="1338" y="1422" on="1"/>
        <pt x="1327" y="1437" on="0"/>
        <pt x="1327" y="1476" on="0"/>
        <pt x="1350" y="1510" on="0"/>
        <pt x="1370" y="1522" on="1"/>
        <pt x="1416" y="1550" on="0"/>
        <pt x="1535" y="1550" on="0"/>
        <pt x="1585" y="1517" on="1"/>
        <pt x="1637" y="1550" on="0"/>
        <pt x="1765" y="1550" on="0"/>
        <pt x="1817" y="1517" on="1"/>
        <pt x="1867" y="1550" on="0"/>
        <pt x="1955" y="1550" on="0"/>
        <pt x="2011" y="1535" on="0"/>
        <pt x="2032" y="1522" on="1"/>
        <pt x="2075" y="1496" on="0"/>
        <pt x="2075" y="1457" on="1"/>
        <pt x="2075" y="1437" on="0"/>
        <pt x="2064" y="1422" on="1"/>
        <pt x="2042" y="1439" on="0"/>
        <pt x="2008" y="1439" on="1"/>
        <pt x="1919" y="1439" on="0"/>
        <pt x="1885" y="1362" on="1"/>
        <pt x="1885" y="940" on="1"/>
        <pt x="1885" y="891" on="0"/>
        <pt x="1906" y="867" on="1"/>
        <pt x="1939" y="828" on="0"/>
        <pt x="2007" y="797" on="1"/>
        <pt x="1934" y="761" on="0"/>
        <pt x="1914" y="738" on="1"/>
        <pt x="1885" y="702" on="0"/>
        <pt x="1885" y="656" on="1"/>
      </contour>
      <contour>
        <pt x="1613" y="265" on="1"/>
        <pt x="1663" y="284" on="0"/>
        <pt x="1668" y="396" on="1"/>
        <pt x="1674" y="508" on="0"/>
        <pt x="1674" y="904" on="0"/>
        <pt x="1673" y="1035" on="0"/>
        <pt x="1672" y="1075" on="1"/>
        <pt x="1669" y="1193" on="0"/>
        <pt x="1630" y="1242" on="0"/>
        <pt x="1613" y="1250" on="1"/>
        <pt x="1613" y="902" on="0"/>
        <pt x="1601" y="854" on="1"/>
        <pt x="1587" y="814" on="0"/>
        <pt x="1533" y="797" on="1"/>
        <pt x="1593" y="776" on="0"/>
        <pt x="1601" y="746" on="1"/>
        <pt x="1613" y="698" on="0"/>
        <pt x="1613" y="395" on="1"/>
      </contour>
    </TTGlyph>
    <TTGlyph name="Iacute" xMin="75" yMin="-20" xMax="823" yMax="2020">
      <contour>
        <pt x="565" y="12" on="1"/>
        <pt x="514" y="-20" on="0"/>
        <pt x="384" y="-20" on="0"/>
        <pt x="333" y="12" on="1"/>
        <pt x="282" y="-20" on="0"/>
        <pt x="195" y="-20" on="0"/>
        <pt x="139" y="-5" on="0"/>
        <pt x="118" y="8" on="1"/>
        <pt x="75" y="34" on="0"/>
        <pt x="75" y="73" on="1"/>
        <pt x="75" y="93" on="0"/>
        <pt x="86" y="108" on="1"/>
        <pt x="108" y="91" on="0"/>
        <pt x="142" y="91" on="1"/>
        <pt x="231" y="91" on="0"/>
        <pt x="265" y="167" on="1"/>
        <pt x="265" y="656" on="1"/>
        <pt x="265" y="702" on="0"/>
        <pt x="246" y="724" on="1"/>
        <pt x="216" y="761" on="0"/>
        <pt x="143" y="797" on="1"/>
        <pt x="211" y="828" on="0"/>
        <pt x="231" y="852" on="1"/>
        <pt x="265" y="891" on="0"/>
        <pt x="265" y="940" on="1"/>
        <pt x="265" y="1362" on="1"/>
        <pt x="231" y="1439" on="0"/>
        <pt x="142" y="1439" on="1"/>
        <pt x="108" y="1439" on="0"/>
        <pt x="86" y="1422" on="1"/>
        <pt x="75" y="1437" on="0"/>
        <pt x="75" y="1476" on="0"/>
        <pt x="98" y="1510" on="0"/>
        <pt x="118" y="1522" on="1"/>
        <pt x="164" y="1550" on="0"/>
        <pt x="283" y="1550" on="0"/>
        <pt x="333" y="1517" on="1"/>
        <pt x="385" y="1550" on="0"/>
        <pt x="513" y="1550" on="0"/>
        <pt x="565" y="1517" on="1"/>
        <pt x="615" y="1550" on="0"/>
        <pt x="703" y="1550" on="0"/>
        <pt x="759" y="1535" on="0"/>
        <pt x="780" y="1522" on="1"/>
        <pt x="823" y="1496" on="0"/>
        <pt x="823" y="1457" on="1"/>
        <pt x="823" y="1437" on="0"/>
        <pt x="812" y="1422" on="1"/>
        <pt x="790" y="1439" on="0"/>
        <pt x="756" y="1439" on="1"/>
        <pt x="667" y="1439" on="0"/>
        <pt x="633" y="1362" on="1"/>
        <pt x="633" y="940" on="1"/>
        <pt x="633" y="891" on="0"/>
        <pt x="654" y="867" on="1"/>
        <pt x="687" y="828" on="0"/>
        <pt x="755" y="797" on="1"/>
        <pt x="682" y="761" on="0"/>
        <pt x="662" y="738" on="1"/>
        <pt x="633" y="702" on="0"/>
        <pt x="633" y="656" on="1"/>
        <pt x="633" y="167" on="1"/>
        <pt x="667" y="91" on="0"/>
        <pt x="756" y="91" on="1"/>
        <pt x="790" y="91" on="0"/>
        <pt x="812" y="108" on="1"/>
        <pt x="823" y="93" on="0"/>
        <pt x="823" y="54" on="0"/>
        <pt x="800" y="20" on="0"/>
        <pt x="780" y="8" on="1"/>
        <pt x="734" y="-20" on="0"/>
        <pt x="616" y="-20" on="0"/>
      </contour>
      <contour>
        <pt x="361" y="265" on="1"/>
        <pt x="411" y="284" on="0"/>
        <pt x="416" y="396" on="1"/>
        <pt x="422" y="508" on="0"/>
        <pt x="422" y="904" on="0"/>
        <pt x="421" y="1035" on="0"/>
        <pt x="420" y="1075" on="1"/>
        <pt x="417" y="1193" on="0"/>
        <pt x="378" y="1242" on="0"/>
        <pt x="361" y="1250" on="1"/>
        <pt x="361" y="902" on="0"/>
        <pt x="349" y="854" on="1"/>
        <pt x="335" y="814" on="0"/>
        <pt x="281" y="797" on="1"/>
        <pt x="341" y="776" on="0"/>
        <pt x="349" y="746" on="1"/>
        <pt x="361" y="698" on="0"/>
        <pt x="361" y="395" on="1"/>
      </contour>
      <contour>
        <pt x="386" y="1980" on="1"/>
        <pt x="422" y="2020" on="0"/>
        <pt x="497" y="2020" on="1"/>
        <pt x="559" y="2020" on="0"/>
        <pt x="591" y="1991" on="1"/>
        <pt x="647" y="1940" on="0"/>
        <pt x="647" y="1808" on="0"/>
        <pt x="553" y="1680" on="0"/>
        <pt x="480" y="1648" on="1"/>
        <pt x="373" y="1600" on="0"/>
        <pt x="314" y="1600" on="1"/>
        <pt x="294" y="1600" on="0"/>
        <pt x="266" y="1610" on="0"/>
        <pt x="266" y="1624" on="1"/>
        <pt x="266" y="1642" on="0"/>
        <pt x="322" y="1698" on="0"/>
        <pt x="361" y="1766" on="0"/>
        <pt x="372" y="1800" on="1"/>
        <pt x="390" y="1857" on="0"/>
        <pt x="390" y="1963" on="0"/>
      </contour>
      <contour>
        <pt x="456" y="1961" on="1"/>
        <pt x="467" y="1937" on="0"/>
        <pt x="467" y="1864" on="0"/>
        <pt x="456" y="1806" on="0"/>
        <pt x="444" y="1778" on="1"/>
        <pt x="419" y="1725" on="0"/>
        <pt x="364" y="1666" on="1"/>
        <pt x="441" y="1702" on="0"/>
        <pt x="485" y="1770" on="1"/>
        <pt x="521" y="1826" on="0"/>
        <pt x="521" y="1878" on="1"/>
        <pt x="521" y="1968" on="0"/>
        <pt x="476" y="1968" on="1"/>
        <pt x="463" y="1968" on="0"/>
      </contour>
    </TTGlyph>
    <TTGlyph name="Icircumflex" xMin="75" yMin="-20" xMax="823" yMax="1980">
      <contour>
        <pt x="565" y="12" on="1"/>
        <pt x="514" y="-20" on="0"/>
        <pt x="384" y="-20" on="0"/>
        <pt x="333" y="12" on="1"/>
        <pt x="282" y="-20" on="0"/>
        <pt x="195" y="-20" on="0"/>
        <pt x="139" y="-5" on="0"/>
        <pt x="118" y="8" on="1"/>
        <pt x="75" y="34" on="0"/>
        <pt x="75" y="73" on="1"/>
        <pt x="75" y="93" on="0"/>
        <pt x="86" y="108" on="1"/>
        <pt x="108" y="91" on="0"/>
        <pt x="142" y="91" on="1"/>
        <pt x="231" y="91" on="0"/>
        <pt x="265" y="167" on="1"/>
        <pt x="265" y="656" on="1"/>
        <pt x="265" y="702" on="0"/>
        <pt x="246" y="724" on="1"/>
        <pt x="216" y="761" on="0"/>
        <pt x="143" y="797" on="1"/>
        <pt x="211" y="828" on="0"/>
        <pt x="231" y="852" on="1"/>
        <pt x="265" y="891" on="0"/>
        <pt x="265" y="940" on="1"/>
        <pt x="265" y="1362" on="1"/>
        <pt x="231" y="1439" on="0"/>
        <pt x="142" y="1439" on="1"/>
        <pt x="108" y="1439" on="0"/>
        <pt x="86" y="1422" on="1"/>
        <pt x="75" y="1437" on="0"/>
        <pt x="75" y="1476" on="0"/>
        <pt x="98" y="1510" on="0"/>
        <pt x="118" y="1522" on="1"/>
        <pt x="164" y="1550" on="0"/>
        <pt x="283" y="1550" on="0"/>
        <pt x="333" y="1517" on="1"/>
        <pt x="385" y="1550" on="0"/>
        <pt x="513" y="1550" on="0"/>
        <pt x="565" y="1517" on="1"/>
        <pt x="615" y="1550" on="0"/>
        <pt x="703" y="1550" on="0"/>
        <pt x="759" y="1535" on="0"/>
        <pt x="780" y="1522" on="1"/>
        <pt x="823" y="1496" on="0"/>
        <pt x="823" y="1457" on="1"/>
        <pt x="823" y="1437" on="0"/>
        <pt x="812" y="1422" on="1"/>
        <pt x="790" y="1439" on="0"/>
        <pt x="756" y="1439" on="1"/>
        <pt x="667" y="1439" on="0"/>
        <pt x="633" y="1362" on="1"/>
        <pt x="633" y="940" on="1"/>
        <pt x="633" y="891" on="0"/>
        <pt x="654" y="867" on="1"/>
        <pt x="687" y="828" on="0"/>
        <pt x="755" y="797" on="1"/>
        <pt x="682" y="761" on="0"/>
        <pt x="662" y="738" on="1"/>
        <pt x="633" y="702" on="0"/>
        <pt x="633" y="656" on="1"/>
        <pt x="633" y="167" on="1"/>
        <pt x="667" y="91" on="0"/>
        <pt x="756" y="91" on="1"/>
        <pt x="790" y="91" on="0"/>
        <pt x="812" y="108" on="1"/>
        <pt x="823" y="93" on="0"/>
        <pt x="823" y="54" on="0"/>
        <pt x="800" y="20" on="0"/>
        <pt x="780" y="8" on="1"/>
        <pt x="734" y="-20" on="0"/>
        <pt x="616" y="-20" on="0"/>
      </contour>
      <contour>
        <pt x="361" y="265" on="1"/>
        <pt x="411" y="284" on="0"/>
        <pt x="416" y="396" on="1"/>
        <pt x="422" y="508" on="0"/>
        <pt x="422" y="904" on="0"/>
        <pt x="421" y="1035" on="0"/>
        <pt x="420" y="1075" on="1"/>
        <pt x="417" y="1193" on="0"/>
        <pt x="378" y="1242" on="0"/>
        <pt x="361" y="1250" on="1"/>
        <pt x="361" y="902" on="0"/>
        <pt x="349" y="854" on="1"/>
        <pt x="335" y="814" on="0"/>
        <pt x="281" y="797" on="1"/>
        <pt x="341" y="776" on="0"/>
        <pt x="349" y="746" on="1"/>
        <pt x="361" y="698" on="0"/>
        <pt x="361" y="395" on="1"/>
      </contour>
      <contour>
        <pt x="300" y="1645" on="1"/>
        <pt x="237" y="1560" on="0"/>
        <pt x="171" y="1560" on="1"/>
        <pt x="120" y="1560" on="0"/>
        <pt x="115" y="1596" on="1"/>
        <pt x="324" y="1887" on="1"/>
        <pt x="394" y="1980" on="0"/>
        <pt x="450" y="1980" on="1"/>
        <pt x="497" y="1980" on="0"/>
        <pt x="541" y="1936" on="1"/>
        <pt x="560" y="1917" on="0"/>
        <pt x="586" y="1887" on="1"/>
        <pt x="816" y="1612" on="1"/>
        <pt x="803" y="1589" on="0"/>
        <pt x="735" y="1560" on="0"/>
        <pt x="664" y="1560" on="0"/>
        <pt x="611" y="1571" on="0"/>
        <pt x="587" y="1582" on="1"/>
        <pt x="551" y="1600" on="0"/>
        <pt x="490" y="1657" on="1"/>
        <pt x="381" y="1760" on="1"/>
      </contour>
      <contour>
        <pt x="444" y="1845" on="1"/>
        <pt x="417" y="1811" on="1"/>
        <pt x="526" y="1708" on="1"/>
        <pt x="593" y="1644" on="0"/>
        <pt x="653" y="1644" on="1"/>
      </contour>
    </TTGlyph>
    <TTGlyph name="Idieresis" xMin="63" yMin="-20" xMax="1038" yMax="1940">
      <contour>
        <pt x="565" y="12" on="1"/>
        <pt x="514" y="-20" on="0"/>
        <pt x="384" y="-20" on="0"/>
        <pt x="333" y="12" on="1"/>
        <pt x="282" y="-20" on="0"/>
        <pt x="195" y="-20" on="0"/>
        <pt x="139" y="-5" on="0"/>
        <pt x="118" y="8" on="1"/>
        <pt x="75" y="34" on="0"/>
        <pt x="75" y="73" on="1"/>
        <pt x="75" y="93" on="0"/>
        <pt x="86" y="108" on="1"/>
        <pt x="108" y="91" on="0"/>
        <pt x="142" y="91" on="1"/>
        <pt x="231" y="91" on="0"/>
        <pt x="265" y="167" on="1"/>
        <pt x="265" y="656" on="1"/>
        <pt x="265" y="702" on="0"/>
        <pt x="246" y="724" on="1"/>
        <pt x="216" y="761" on="0"/>
        <pt x="143" y="797" on="1"/>
        <pt x="211" y="828" on="0"/>
        <pt x="231" y="852" on="1"/>
        <pt x="265" y="891" on="0"/>
        <pt x="265" y="940" on="1"/>
        <pt x="265" y="1362" on="1"/>
        <pt x="231" y="1439" on="0"/>
        <pt x="142" y="1439" on="1"/>
        <pt x="108" y="1439" on="0"/>
        <pt x="86" y="1422" on="1"/>
        <pt x="75" y="1437" on="0"/>
        <pt x="75" y="1476" on="0"/>
        <pt x="98" y="1510" on="0"/>
        <pt x="118" y="1522" on="1"/>
        <pt x="164" y="1550" on="0"/>
        <pt x="283" y="1550" on="0"/>
        <pt x="333" y="1517" on="1"/>
        <pt x="385" y="1550" on="0"/>
        <pt x="513" y="1550" on="0"/>
        <pt x="565" y="1517" on="1"/>
        <pt x="615" y="1550" on="0"/>
        <pt x="703" y="1550" on="0"/>
        <pt x="759" y="1535" on="0"/>
        <pt x="780" y="1522" on="1"/>
        <pt x="823" y="1496" on="0"/>
        <pt x="823" y="1457" on="1"/>
        <pt x="823" y="1437" on="0"/>
        <pt x="812" y="1422" on="1"/>
        <pt x="790" y="1439" on="0"/>
        <pt x="756" y="1439" on="1"/>
        <pt x="667" y="1439" on="0"/>
        <pt x="633" y="1362" on="1"/>
        <pt x="633" y="940" on="1"/>
        <pt x="633" y="891" on="0"/>
        <pt x="654" y="867" on="1"/>
        <pt x="687" y="828" on="0"/>
        <pt x="755" y="797" on="1"/>
        <pt x="682" y="761" on="0"/>
        <pt x="662" y="738" on="1"/>
        <pt x="633" y="702" on="0"/>
        <pt x="633" y="656" on="1"/>
        <pt x="633" y="167" on="1"/>
        <pt x="667" y="91" on="0"/>
        <pt x="756" y="91" on="1"/>
        <pt x="790" y="91" on="0"/>
        <pt x="812" y="108" on="1"/>
        <pt x="823" y="93" on="0"/>
        <pt x="823" y="54" on="0"/>
        <pt x="800" y="20" on="0"/>
        <pt x="780" y="8" on="1"/>
        <pt x="734" y="-20" on="0"/>
        <pt x="616" y="-20" on="0"/>
      </contour>
      <contour>
        <pt x="361" y="265" on="1"/>
        <pt x="411" y="284" on="0"/>
        <pt x="416" y="396" on="1"/>
        <pt x="422" y="508" on="0"/>
        <pt x="422" y="904" on="0"/>
        <pt x="421" y="1035" on="0"/>
        <pt x="420" y="1075" on="1"/>
        <pt x="417" y="1193" on="0"/>
        <pt x="378" y="1242" on="0"/>
        <pt x="361" y="1250" on="1"/>
        <pt x="361" y="902" on="0"/>
        <pt x="349" y="854" on="1"/>
        <pt x="335" y="814" on="0"/>
        <pt x="281" y="797" on="1"/>
        <pt x="341" y="776" on="0"/>
        <pt x="349" y="746" on="1"/>
        <pt x="361" y="698" on="0"/>
        <pt x="361" y="395" on="1"/>
      </contour>
      <contour>
        <pt x="761" y="1603" on="0"/>
        <pt x="679" y="1652" on="0"/>
        <pt x="648" y="1710" on="0"/>
        <pt x="629" y="1733" on="0"/>
        <pt x="608" y="1750" on="0"/>
        <pt x="595" y="1756" on="1"/>
        <pt x="566" y="1771" on="1"/>
        <pt x="600" y="1792" on="0"/>
        <pt x="641" y="1825" on="0"/>
        <pt x="678" y="1894" on="0"/>
        <pt x="758" y="1940" on="0"/>
        <pt x="805" y="1940" on="1"/>
        <pt x="900" y="1940" on="0"/>
        <pt x="946" y="1855" on="1"/>
        <pt x="978" y="1796" on="0"/>
        <pt x="1038" y="1771" on="1"/>
        <pt x="1012" y="1756" on="1"/>
        <pt x="970" y="1734" on="0"/>
        <pt x="946" y="1693" on="1"/>
        <pt x="896" y="1603" on="0"/>
        <pt x="805" y="1603" on="1"/>
      </contour>
      <contour>
        <pt x="443" y="1693" on="1"/>
        <pt x="393" y="1603" on="0"/>
        <pt x="303" y="1603" on="1"/>
        <pt x="258" y="1603" on="0"/>
        <pt x="176" y="1652" on="0"/>
        <pt x="145" y="1710" on="0"/>
        <pt x="126" y="1733" on="0"/>
        <pt x="105" y="1750" on="0"/>
        <pt x="92" y="1756" on="1"/>
        <pt x="63" y="1771" on="1"/>
        <pt x="97" y="1792" on="0"/>
        <pt x="138" y="1825" on="0"/>
        <pt x="175" y="1894" on="0"/>
        <pt x="255" y="1940" on="0"/>
        <pt x="303" y="1940" on="1"/>
        <pt x="397" y="1940" on="0"/>
        <pt x="443" y="1855" on="1"/>
        <pt x="475" y="1796" on="0"/>
        <pt x="535" y="1771" on="1"/>
        <pt x="509" y="1756" on="1"/>
        <pt x="467" y="1734" on="0"/>
      </contour>
      <contour>
        <pt x="762" y="1724" on="0"/>
        <pt x="756" y="1751" on="0"/>
        <pt x="756" y="1820" on="0"/>
        <pt x="790" y="1869" on="1"/>
        <pt x="770" y="1869" on="0"/>
        <pt x="740" y="1859" on="0"/>
        <pt x="718" y="1829" on="0"/>
        <pt x="708" y="1811" on="0"/>
        <pt x="701" y="1801" on="1"/>
        <pt x="685" y="1776" on="0"/>
        <pt x="674" y="1771" on="1"/>
        <pt x="688" y="1763" on="0"/>
        <pt x="711" y="1727" on="0"/>
        <pt x="727" y="1708" on="1"/>
        <pt x="751" y="1678" on="0"/>
        <pt x="790" y="1678" on="1"/>
        <pt x="784" y="1688" on="0"/>
        <pt x="772" y="1705" on="0"/>
      </contour>
      <contour>
        <pt x="259" y="1724" on="0"/>
        <pt x="253" y="1751" on="0"/>
        <pt x="253" y="1820" on="0"/>
        <pt x="287" y="1869" on="1"/>
        <pt x="267" y="1869" on="0"/>
        <pt x="237" y="1859" on="0"/>
        <pt x="215" y="1829" on="0"/>
        <pt x="205" y="1811" on="0"/>
        <pt x="199" y="1801" on="1"/>
        <pt x="182" y="1776" on="0"/>
        <pt x="171" y="1771" on="1"/>
        <pt x="185" y="1763" on="0"/>
        <pt x="208" y="1727" on="0"/>
        <pt x="224" y="1708" on="1"/>
        <pt x="248" y="1678" on="0"/>
        <pt x="287" y="1678" on="1"/>
        <pt x="281" y="1688" on="0"/>
        <pt x="269" y="1705" on="0"/>
      </contour>
    </TTGlyph>
    <TTGlyph name="Igrave" xMin="75" yMin="-20" xMax="823" yMax="2020">
      <contour>
        <pt x="565" y="12" on="1"/>
        <pt x="514" y="-20" on="0"/>
        <pt x="384" y="-20" on="0"/>
        <pt x="333" y="12" on="1"/>
        <pt x="282" y="-20" on="0"/>
        <pt x="195" y="-20" on="0"/>
        <pt x="139" y="-5" on="0"/>
        <pt x="118" y="8" on="1"/>
        <pt x="75" y="34" on="0"/>
        <pt x="75" y="73" on="1"/>
        <pt x="75" y="93" on="0"/>
        <pt x="86" y="108" on="1"/>
        <pt x="108" y="91" on="0"/>
        <pt x="142" y="91" on="1"/>
        <pt x="231" y="91" on="0"/>
        <pt x="265" y="167" on="1"/>
        <pt x="265" y="656" on="1"/>
        <pt x="265" y="702" on="0"/>
        <pt x="246" y="724" on="1"/>
        <pt x="216" y="761" on="0"/>
        <pt x="143" y="797" on="1"/>
        <pt x="211" y="828" on="0"/>
        <pt x="231" y="852" on="1"/>
        <pt x="265" y="891" on="0"/>
        <pt x="265" y="940" on="1"/>
        <pt x="265" y="1362" on="1"/>
        <pt x="231" y="1439" on="0"/>
        <pt x="142" y="1439" on="1"/>
        <pt x="108" y="1439" on="0"/>
        <pt x="86" y="1422" on="1"/>
        <pt x="75" y="1437" on="0"/>
        <pt x="75" y="1476" on="0"/>
        <pt x="98" y="1510" on="0"/>
        <pt x="118" y="1522" on="1"/>
        <pt x="164" y="1550" on="0"/>
        <pt x="283" y="1550" on="0"/>
        <pt x="333" y="1517" on="1"/>
        <pt x="385" y="1550" on="0"/>
        <pt x="513" y="1550" on="0"/>
        <pt x="565" y="1517" on="1"/>
        <pt x="615" y="1550" on="0"/>
        <pt x="703" y="1550" on="0"/>
        <pt x="759" y="1535" on="0"/>
        <pt x="780" y="1522" on="1"/>
        <pt x="823" y="1496" on="0"/>
        <pt x="823" y="1457" on="1"/>
        <pt x="823" y="1437" on="0"/>
        <pt x="812" y="1422" on="1"/>
        <pt x="790" y="1439" on="0"/>
        <pt x="756" y="1439" on="1"/>
        <pt x="667" y="1439" on="0"/>
        <pt x="633" y="1362" on="1"/>
        <pt x="633" y="940" on="1"/>
        <pt x="633" y="891" on="0"/>
        <pt x="654" y="867" on="1"/>
        <pt x="687" y="828" on="0"/>
        <pt x="755" y="797" on="1"/>
        <pt x="682" y="761" on="0"/>
        <pt x="662" y="738" on="1"/>
        <pt x="633" y="702" on="0"/>
        <pt x="633" y="656" on="1"/>
        <pt x="633" y="167" on="1"/>
        <pt x="667" y="91" on="0"/>
        <pt x="756" y="91" on="1"/>
        <pt x="790" y="91" on="0"/>
        <pt x="812" y="108" on="1"/>
        <pt x="823" y="93" on="0"/>
        <pt x="823" y="54" on="0"/>
        <pt x="800" y="20" on="0"/>
        <pt x="780" y="8" on="1"/>
        <pt x="734" y="-20" on="0"/>
        <pt x="616" y="-20" on="0"/>
      </contour>
      <contour>
        <pt x="361" y="265" on="1"/>
        <pt x="411" y="284" on="0"/>
        <pt x="416" y="396" on="1"/>
        <pt x="422" y="508" on="0"/>
        <pt x="422" y="904" on="0"/>
        <pt x="421" y="1035" on="0"/>
        <pt x="420" y="1075" on="1"/>
        <pt x="417" y="1193" on="0"/>
        <pt x="378" y="1242" on="0"/>
        <pt x="361" y="1250" on="1"/>
        <pt x="361" y="902" on="0"/>
        <pt x="349" y="854" on="1"/>
        <pt x="335" y="814" on="0"/>
        <pt x="281" y="797" on="1"/>
        <pt x="341" y="776" on="0"/>
        <pt x="349" y="746" on="1"/>
        <pt x="361" y="698" on="0"/>
        <pt x="361" y="395" on="1"/>
      </contour>
      <contour>
        <pt x="541" y="1600" on="0"/>
        <pt x="360" y="1680" on="0"/>
        <pt x="266" y="1808" on="0"/>
        <pt x="266" y="1908" on="0"/>
        <pt x="290" y="1962" on="0"/>
        <pt x="311" y="1981" on="1"/>
        <pt x="354" y="2020" on="0"/>
        <pt x="405" y="2020" on="1"/>
        <pt x="491" y="2020" on="0"/>
        <pt x="527" y="1980" on="1"/>
        <pt x="523" y="1963" on="0"/>
        <pt x="523" y="1904" on="0"/>
        <pt x="530" y="1835" on="0"/>
        <pt x="541" y="1800" on="1"/>
        <pt x="566" y="1723" on="0"/>
        <pt x="623" y="1666" on="1"/>
        <pt x="647" y="1642" on="0"/>
        <pt x="647" y="1626" on="1"/>
        <pt x="647" y="1600" on="0"/>
      </contour>
      <contour>
        <pt x="463" y="1716" on="0"/>
        <pt x="393" y="1838" on="0"/>
        <pt x="393" y="1926" on="0"/>
        <pt x="407" y="1956" on="1"/>
        <pt x="375" y="1957" on="0"/>
        <pt x="334" y="1909" on="0"/>
        <pt x="334" y="1876" on="1"/>
        <pt x="334" y="1813" on="0"/>
        <pt x="400" y="1748" on="1"/>
        <pt x="463" y="1687" on="0"/>
        <pt x="533" y="1666" on="1"/>
      </contour>
    </TTGlyph>
    <TTGlyph name="Itilde" xMin="75" yMin="-20" xMax="826" yMax="1960">
      <contour>
        <pt x="565" y="12" on="1"/>
        <pt x="514" y="-20" on="0"/>
        <pt x="384" y="-20" on="0"/>
        <pt x="333" y="12" on="1"/>
        <pt x="282" y="-20" on="0"/>
        <pt x="195" y="-20" on="0"/>
        <pt x="139" y="-5" on="0"/>
        <pt x="118" y="8" on="1"/>
        <pt x="75" y="34" on="0"/>
        <pt x="75" y="73" on="1"/>
        <pt x="75" y="93" on="0"/>
        <pt x="86" y="108" on="1"/>
        <pt x="108" y="91" on="0"/>
        <pt x="142" y="91" on="1"/>
        <pt x="231" y="91" on="0"/>
        <pt x="265" y="167" on="1"/>
        <pt x="265" y="656" on="1"/>
        <pt x="265" y="702" on="0"/>
        <pt x="246" y="724" on="1"/>
        <pt x="216" y="761" on="0"/>
        <pt x="143" y="797" on="1"/>
        <pt x="211" y="828" on="0"/>
        <pt x="231" y="852" on="1"/>
        <pt x="265" y="891" on="0"/>
        <pt x="265" y="940" on="1"/>
        <pt x="265" y="1362" on="1"/>
        <pt x="231" y="1439" on="0"/>
        <pt x="142" y="1439" on="1"/>
        <pt x="108" y="1439" on="0"/>
        <pt x="86" y="1422" on="1"/>
        <pt x="75" y="1437" on="0"/>
        <pt x="75" y="1476" on="0"/>
        <pt x="98" y="1510" on="0"/>
        <pt x="118" y="1522" on="1"/>
        <pt x="164" y="1550" on="0"/>
        <pt x="283" y="1550" on="0"/>
        <pt x="333" y="1517" on="1"/>
        <pt x="385" y="1550" on="0"/>
        <pt x="513" y="1550" on="0"/>
        <pt x="565" y="1517" on="1"/>
        <pt x="615" y="1550" on="0"/>
        <pt x="703" y="1550" on="0"/>
        <pt x="759" y="1535" on="0"/>
        <pt x="780" y="1522" on="1"/>
        <pt x="823" y="1496" on="0"/>
        <pt x="823" y="1457" on="1"/>
        <pt x="823" y="1437" on="0"/>
        <pt x="812" y="1422" on="1"/>
        <pt x="790" y="1439" on="0"/>
        <pt x="756" y="1439" on="1"/>
        <pt x="667" y="1439" on="0"/>
        <pt x="633" y="1362" on="1"/>
        <pt x="633" y="940" on="1"/>
        <pt x="633" y="891" on="0"/>
        <pt x="654" y="867" on="1"/>
        <pt x="687" y="828" on="0"/>
        <pt x="755" y="797" on="1"/>
        <pt x="682" y="761" on="0"/>
        <pt x="662" y="738" on="1"/>
        <pt x="633" y="702" on="0"/>
        <pt x="633" y="656" on="1"/>
        <pt x="633" y="167" on="1"/>
        <pt x="667" y="91" on="0"/>
        <pt x="756" y="91" on="1"/>
        <pt x="790" y="91" on="0"/>
        <pt x="812" y="108" on="1"/>
        <pt x="823" y="93" on="0"/>
        <pt x="823" y="54" on="0"/>
        <pt x="800" y="20" on="0"/>
        <pt x="780" y="8" on="1"/>
        <pt x="734" y="-20" on="0"/>
        <pt x="616" y="-20" on="0"/>
      </contour>
      <contour>
        <pt x="361" y="265" on="1"/>
        <pt x="411" y="284" on="0"/>
        <pt x="416" y="396" on="1"/>
        <pt x="422" y="508" on="0"/>
        <pt x="422" y="904" on="0"/>
        <pt x="421" y="1035" on="0"/>
        <pt x="420" y="1075" on="1"/>
        <pt x="417" y="1193" on="0"/>
        <pt x="378" y="1242" on="0"/>
        <pt x="361" y="1250" on="1"/>
        <pt x="361" y="902" on="0"/>
        <pt x="349" y="854" on="1"/>
        <pt x="335" y="814" on="0"/>
        <pt x="281" y="797" on="1"/>
        <pt x="341" y="776" on="0"/>
        <pt x="349" y="746" on="1"/>
        <pt x="361" y="698" on="0"/>
        <pt x="361" y="395" on="1"/>
      </contour>
      <contour>
        <pt x="213" y="1601" on="1"/>
        <pt x="201" y="1589" on="0"/>
        <pt x="159" y="1589" on="0"/>
        <pt x="124" y="1612" on="0"/>
        <pt x="110" y="1632" on="1"/>
        <pt x="82" y="1673" on="0"/>
        <pt x="82" y="1779" on="0"/>
        <pt x="111" y="1859" on="0"/>
        <pt x="138" y="1888" on="1"/>
        <pt x="196" y="1950" on="0"/>
        <pt x="286" y="1950" on="1"/>
        <pt x="351" y="1950" on="0"/>
        <pt x="400" y="1927" on="1"/>
        <pt x="479" y="1890" on="1"/>
        <pt x="552" y="1853" on="0"/>
        <pt x="605" y="1847" on="0"/>
        <pt x="648" y="1847" on="0"/>
        <pt x="695" y="1900" on="0"/>
        <pt x="695" y="1948" on="1"/>
        <pt x="707" y="1960" on="0"/>
        <pt x="749" y="1960" on="0"/>
        <pt x="784" y="1937" on="0"/>
        <pt x="798" y="1918" on="1"/>
        <pt x="826" y="1876" on="0"/>
        <pt x="826" y="1770" on="0"/>
        <pt x="797" y="1690" on="0"/>
        <pt x="770" y="1661" on="1"/>
        <pt x="714" y="1599" on="0"/>
        <pt x="626" y="1599" on="1"/>
        <pt x="558" y="1599" on="0"/>
        <pt x="461" y="1638" on="0"/>
        <pt x="430" y="1652" on="1"/>
        <pt x="380" y="1676" on="1"/>
        <pt x="324" y="1702" on="0"/>
        <pt x="260" y="1702" on="0"/>
        <pt x="213" y="1649" on="0"/>
      </contour>
      <contour>
        <pt x="727" y="1777" on="1"/>
        <pt x="705" y="1720" on="0"/>
        <pt x="636" y="1720" on="1"/>
        <pt x="580" y="1720" on="0"/>
        <pt x="433" y="1789" on="0"/>
        <pt x="380" y="1809" on="0"/>
        <pt x="359" y="1814" on="1"/>
        <pt x="323" y="1824" on="0"/>
        <pt x="245" y="1824" on="0"/>
        <pt x="186" y="1782" on="0"/>
        <pt x="185" y="1745" on="1"/>
        <pt x="185" y="1727" on="0"/>
        <pt x="193" y="1717" on="1"/>
        <pt x="215" y="1773" on="0"/>
        <pt x="285" y="1773" on="1"/>
        <pt x="336" y="1773" on="0"/>
        <pt x="420" y="1739" on="0"/>
        <pt x="486" y="1708" on="0"/>
        <pt x="542" y="1686" on="0"/>
        <pt x="564" y="1680" on="1"/>
        <pt x="604" y="1669" on="0"/>
        <pt x="676" y="1669" on="0"/>
        <pt x="734" y="1712" on="0"/>
        <pt x="735" y="1749" on="1"/>
        <pt x="735" y="1767" on="0"/>
      </contour>
    </TTGlyph>
    <TTGlyph name="J" xMin="-6" yMin="-30" xMax="1177" yMax="1550">
      <contour>
        <pt x="987" y="362" on="1"/>
        <pt x="1009" y="301" on="0"/>
        <pt x="1060" y="281" on="1"/>
        <pt x="1020" y="268" on="0"/>
        <pt x="950" y="200" on="0"/>
        <pt x="947" y="190" on="1"/>
        <pt x="915" y="91" on="0"/>
        <pt x="773" y="28" on="1"/>
        <pt x="642" y="-30" on="0"/>
        <pt x="414" y="-30" on="0"/>
        <pt x="257" y="27" on="0"/>
        <pt x="197" y="78" on="1"/>
        <pt x="65" y="189" on="0"/>
        <pt x="65" y="350" on="1"/>
        <pt x="65" y="456" on="0"/>
        <pt x="-6" y="503" on="1"/>
        <pt x="24" y="552" on="0"/>
        <pt x="78" y="552" on="1"/>
        <pt x="108" y="552" on="0"/>
        <pt x="136" y="535" on="1"/>
        <pt x="183" y="595" on="0"/>
        <pt x="314" y="595" on="1"/>
        <pt x="336" y="595" on="0"/>
        <pt x="345" y="584" on="1"/>
        <pt x="332" y="569" on="0"/>
        <pt x="347" y="512" on="0"/>
        <pt x="347" y="505" on="1"/>
        <pt x="347" y="493" on="1"/>
        <pt x="347" y="488" on="0"/>
        <pt x="349" y="483" on="1"/>
        <pt x="359" y="485" on="0"/>
        <pt x="381" y="485" on="0"/>
        <pt x="414" y="473" on="0"/>
        <pt x="427" y="462" on="1"/>
        <pt x="457" y="437" on="0"/>
        <pt x="457" y="403" on="1"/>
        <pt x="457" y="394" on="0"/>
        <pt x="454" y="387" on="1"/>
        <pt x="436" y="394" on="0"/>
        <pt x="394" y="394" on="0"/>
        <pt x="352" y="380" on="0"/>
        <pt x="334" y="364" on="1"/>
        <pt x="294" y="329" on="0"/>
        <pt x="294" y="262" on="1"/>
        <pt x="294" y="197" on="0"/>
        <pt x="344" y="150" on="1"/>
        <pt x="395" y="104" on="0"/>
        <pt x="556" y="104" on="0"/>
        <pt x="619" y="151" on="1"/>
        <pt x="619" y="656" on="1"/>
        <pt x="619" y="702" on="0"/>
        <pt x="600" y="724" on="1"/>
        <pt x="570" y="761" on="0"/>
        <pt x="497" y="797" on="1"/>
        <pt x="565" y="828" on="0"/>
        <pt x="585" y="852" on="1"/>
        <pt x="619" y="891" on="0"/>
        <pt x="619" y="940" on="1"/>
        <pt x="619" y="1362" on="1"/>
        <pt x="585" y="1439" on="0"/>
        <pt x="496" y="1439" on="1"/>
        <pt x="462" y="1439" on="0"/>
        <pt x="440" y="1422" on="1"/>
        <pt x="429" y="1437" on="0"/>
        <pt x="429" y="1476" on="0"/>
        <pt x="452" y="1510" on="0"/>
        <pt x="472" y="1522" on="1"/>
        <pt x="518" y="1550" on="0"/>
        <pt x="637" y="1550" on="0"/>
        <pt x="687" y="1517" on="1"/>
        <pt x="739" y="1550" on="0"/>
        <pt x="867" y="1550" on="0"/>
        <pt x="919" y="1517" on="1"/>
        <pt x="969" y="1550" on="0"/>
        <pt x="1057" y="1550" on="0"/>
        <pt x="1113" y="1535" on="0"/>
        <pt x="1134" y="1522" on="1"/>
        <pt x="1177" y="1496" on="0"/>
        <pt x="1177" y="1457" on="1"/>
        <pt x="1177" y="1437" on="0"/>
        <pt x="1166" y="1422" on="1"/>
        <pt x="1144" y="1439" on="0"/>
        <pt x="1110" y="1439" on="1"/>
        <pt x="1021" y="1439" on="0"/>
        <pt x="987" y="1362" on="1"/>
        <pt x="987" y="940" on="1"/>
        <pt x="987" y="891" on="0"/>
        <pt x="1008" y="867" on="1"/>
        <pt x="1041" y="828" on="0"/>
        <pt x="1109" y="797" on="1"/>
        <pt x="1036" y="761" on="0"/>
        <pt x="1016" y="738" on="1"/>
        <pt x="987" y="702" on="0"/>
        <pt x="987" y="656" on="1"/>
      </contour>
      <contour>
        <pt x="715" y="265" on="1"/>
        <pt x="765" y="284" on="0"/>
        <pt x="770" y="396" on="1"/>
        <pt x="776" y="508" on="0"/>
        <pt x="776" y="904" on="0"/>
        <pt x="775" y="1035" on="0"/>
        <pt x="774" y="1075" on="1"/>
        <pt x="771" y="1193" on="0"/>
        <pt x="732" y="1242" on="0"/>
        <pt x="715" y="1250" on="1"/>
        <pt x="715" y="902" on="0"/>
        <pt x="703" y="854" on="1"/>
        <pt x="689" y="814" on="0"/>
        <pt x="635" y="797" on="1"/>
        <pt x="695" y="776" on="0"/>
        <pt x="703" y="746" on="1"/>
        <pt x="715" y="698" on="0"/>
        <pt x="715" y="395" on="1"/>
      </contour>
    </TTGlyph>
    <TTGlyph name="Jcircumflex" xMin="-6" yMin="-30" xMax="1177" yMax="1980">
      <contour>
        <pt x="987" y="362" on="1"/>
        <pt x="1009" y="301" on="0"/>
        <pt x="1060" y="281" on="1"/>
        <pt x="1020" y="268" on="0"/>
        <pt x="950" y="200" on="0"/>
        <pt x="947" y="190" on="1"/>
        <pt x="915" y="91" on="0"/>
        <pt x="773" y="28" on="1"/>
        <pt x="642" y="-30" on="0"/>
        <pt x="414" y="-30" on="0"/>
        <pt x="257" y="27" on="0"/>
        <pt x="197" y="78" on="1"/>
        <pt x="65" y="189" on="0"/>
        <pt x="65" y="350" on="1"/>
        <pt x="65" y="456" on="0"/>
        <pt x="-6" y="503" on="1"/>
        <pt x="24" y="552" on="0"/>
        <pt x="78" y="552" on="1"/>
        <pt x="108" y="552" on="0"/>
        <pt x="136" y="535" on="1"/>
        <pt x="183" y="595" on="0"/>
        <pt x="314" y="595" on="1"/>
        <pt x="336" y="595" on="0"/>
        <pt x="345" y="584" on="1"/>
        <pt x="332" y="569" on="0"/>
        <pt x="347" y="512" on="0"/>
        <pt x="347" y="505" on="1"/>
        <pt x="347" y="493" on="1"/>
        <pt x="347" y="488" on="0"/>
        <pt x="349" y="483" on="1"/>
        <pt x="359" y="485" on="0"/>
        <pt x="381" y="485" on="0"/>
        <pt x="414" y="473" on="0"/>
        <pt x="427" y="462" on="1"/>
        <pt x="457" y="437" on="0"/>
        <pt x="457" y="403" on="1"/>
        <pt x="457" y="394" on="0"/>
        <pt x="454" y="387" on="1"/>
        <pt x="436" y="394" on="0"/>
        <pt x="394" y="394" on="0"/>
        <pt x="352" y="380" on="0"/>
        <pt x="334" y="364" on="1"/>
        <pt x="294" y="329" on="0"/>
        <pt x="294" y="262" on="1"/>
        <pt x="294" y="197" on="0"/>
        <pt x="344" y="150" on="1"/>
        <pt x="395" y="104" on="0"/>
        <pt x="556" y="104" on="0"/>
        <pt x="619" y="151" on="1"/>
        <pt x="619" y="656" on="1"/>
        <pt x="619" y="702" on="0"/>
        <pt x="600" y="724" on="1"/>
        <pt x="570" y="761" on="0"/>
        <pt x="497" y="797" on="1"/>
        <pt x="565" y="828" on="0"/>
        <pt x="585" y="852" on="1"/>
        <pt x="619" y="891" on="0"/>
        <pt x="619" y="940" on="1"/>
        <pt x="619" y="1362" on="1"/>
        <pt x="585" y="1439" on="0"/>
        <pt x="496" y="1439" on="1"/>
        <pt x="462" y="1439" on="0"/>
        <pt x="440" y="1422" on="1"/>
        <pt x="429" y="1437" on="0"/>
        <pt x="429" y="1476" on="0"/>
        <pt x="452" y="1510" on="0"/>
        <pt x="472" y="1522" on="1"/>
        <pt x="518" y="1550" on="0"/>
        <pt x="637" y="1550" on="0"/>
        <pt x="687" y="1517" on="1"/>
        <pt x="739" y="1550" on="0"/>
        <pt x="867" y="1550" on="0"/>
        <pt x="919" y="1517" on="1"/>
        <pt x="969" y="1550" on="0"/>
        <pt x="1057" y="1550" on="0"/>
        <pt x="1113" y="1535" on="0"/>
        <pt x="1134" y="1522" on="1"/>
        <pt x="1177" y="1496" on="0"/>
        <pt x="1177" y="1457" on="1"/>
        <pt x="1177" y="1437" on="0"/>
        <pt x="1166" y="1422" on="1"/>
        <pt x="1144" y="1439" on="0"/>
        <pt x="1110" y="1439" on="1"/>
        <pt x="1021" y="1439" on="0"/>
        <pt x="987" y="1362" on="1"/>
        <pt x="987" y="940" on="1"/>
        <pt x="987" y="891" on="0"/>
        <pt x="1008" y="867" on="1"/>
        <pt x="1041" y="828" on="0"/>
        <pt x="1109" y="797" on="1"/>
        <pt x="1036" y="761" on="0"/>
        <pt x="1016" y="738" on="1"/>
        <pt x="987" y="702" on="0"/>
        <pt x="987" y="656" on="1"/>
      </contour>
      <contour>
        <pt x="715" y="265" on="1"/>
        <pt x="765" y="284" on="0"/>
        <pt x="770" y="396" on="1"/>
        <pt x="776" y="508" on="0"/>
        <pt x="776" y="904" on="0"/>
        <pt x="775" y="1035" on="0"/>
        <pt x="774" y="1075" on="1"/>
        <pt x="771" y="1193" on="0"/>
        <pt x="732" y="1242" on="0"/>
        <pt x="715" y="1250" on="1"/>
        <pt x="715" y="902" on="0"/>
        <pt x="703" y="854" on="1"/>
        <pt x="689" y="814" on="0"/>
        <pt x="635" y="797" on="1"/>
        <pt x="695" y="776" on="0"/>
        <pt x="703" y="746" on="1"/>
        <pt x="715" y="698" on="0"/>
        <pt x="715" y="395" on="1"/>
      </contour>
      <contour>
        <pt x="639" y="1645" on="1"/>
        <pt x="576" y="1560" on="0"/>
        <pt x="510" y="1560" on="1"/>
        <pt x="459" y="1560" on="0"/>
        <pt x="454" y="1596" on="1"/>
        <pt x="663" y="1887" on="1"/>
        <pt x="733" y="1980" on="0"/>
        <pt x="789" y="1980" on="1"/>
        <pt x="836" y="1980" on="0"/>
        <pt x="880" y="1936" on="1"/>
        <pt x="899" y="1917" on="0"/>
        <pt x="925" y="1887" on="1"/>
        <pt x="1155" y="1612" on="1"/>
        <pt x="1142" y="1589" on="0"/>
        <pt x="1074" y="1560" on="0"/>
        <pt x="1003" y="1560" on="0"/>
        <pt x="950" y="1571" on="0"/>
        <pt x="926" y="1582" on="1"/>
        <pt x="890" y="1600" on="0"/>
        <pt x="829" y="1657" on="1"/>
        <pt x="720" y="1760" on="1"/>
      </contour>
      <contour>
        <pt x="783" y="1845" on="1"/>
        <pt x="756" y="1811" on="1"/>
        <pt x="865" y="1708" on="1"/>
        <pt x="932" y="1644" on="0"/>
        <pt x="992" y="1644" on="1"/>
      </contour>
    </TTGlyph>
    <TTGlyph name="K" xMin="75" yMin="-20" xMax="1592" yMax="1550">
      <contour>
        <pt x="553" y="11" on="1"/>
        <pt x="503" y="-20" on="0"/>
        <pt x="377" y="-20" on="0"/>
        <pt x="332" y="12" on="1"/>
        <pt x="281" y="-20" on="0"/>
        <pt x="195" y="-20" on="0"/>
        <pt x="139" y="-5" on="0"/>
        <pt x="118" y="8" on="1"/>
        <pt x="75" y="34" on="0"/>
        <pt x="75" y="73" on="1"/>
        <pt x="75" y="93" on="0"/>
        <pt x="86" y="108" on="1"/>
        <pt x="108" y="91" on="0"/>
        <pt x="142" y="91" on="1"/>
        <pt x="231" y="91" on="0"/>
        <pt x="265" y="167" on="1"/>
        <pt x="265" y="656" on="1"/>
        <pt x="265" y="734" on="0"/>
        <pt x="187" y="774" on="1"/>
        <pt x="143" y="797" on="1"/>
        <pt x="232" y="838" on="0"/>
        <pt x="254" y="886" on="1"/>
        <pt x="265" y="908" on="0"/>
        <pt x="265" y="940" on="1"/>
        <pt x="265" y="1362" on="1"/>
        <pt x="231" y="1439" on="0"/>
        <pt x="142" y="1439" on="1"/>
        <pt x="108" y="1439" on="0"/>
        <pt x="86" y="1422" on="1"/>
        <pt x="75" y="1437" on="0"/>
        <pt x="75" y="1476" on="0"/>
        <pt x="98" y="1510" on="0"/>
        <pt x="118" y="1522" on="1"/>
        <pt x="164" y="1550" on="0"/>
        <pt x="281" y="1550" on="0"/>
        <pt x="332" y="1518" on="1"/>
        <pt x="377" y="1550" on="0"/>
        <pt x="504" y="1550" on="0"/>
        <pt x="553" y="1518" on="1"/>
        <pt x="600" y="1550" on="0"/>
        <pt x="658" y="1550" on="1"/>
        <pt x="743" y="1550" on="0"/>
        <pt x="780" y="1493" on="1"/>
        <pt x="791" y="1475" on="0"/>
        <pt x="791" y="1435" on="0"/>
        <pt x="779" y="1422" on="1"/>
        <pt x="757" y="1439" on="0"/>
        <pt x="724" y="1439" on="1"/>
        <pt x="647" y="1439" on="0"/>
        <pt x="621" y="1364" on="1"/>
        <pt x="621" y="850" on="1"/>
        <pt x="1081" y="1395" on="1"/>
        <pt x="1081" y="1440" on="0"/>
        <pt x="981" y="1440" on="0"/>
        <pt x="948" y="1421" on="1"/>
        <pt x="937" y="1439" on="0"/>
        <pt x="937" y="1496" on="0"/>
        <pt x="997" y="1550" on="0"/>
        <pt x="1104" y="1550" on="0"/>
        <pt x="1139" y="1524" on="1"/>
        <pt x="1174" y="1550" on="0"/>
        <pt x="1260" y="1550" on="0"/>
        <pt x="1294" y="1523" on="1"/>
        <pt x="1328" y="1550" on="0"/>
        <pt x="1398" y="1550" on="0"/>
        <pt x="1439" y="1537" on="0"/>
        <pt x="1454" y="1526" on="1"/>
        <pt x="1489" y="1500" on="0"/>
        <pt x="1489" y="1436" on="0"/>
        <pt x="1479" y="1421" on="1"/>
        <pt x="1458" y="1428" on="0"/>
        <pt x="1431" y="1428" on="1"/>
        <pt x="1376" y="1428" on="0"/>
        <pt x="1325" y="1406" on="0"/>
        <pt x="1278" y="1378" on="0"/>
        <pt x="1254" y="1360" on="1"/>
        <pt x="1208" y="1326" on="1"/>
        <pt x="1185" y="1308" on="0"/>
        <pt x="1171" y="1293" on="1"/>
        <pt x="942" y="1024" on="1"/>
        <pt x="1363" y="258" on="1"/>
        <pt x="1441" y="118" on="0"/>
        <pt x="1488" y="98" on="1"/>
        <pt x="1505" y="91" on="0"/>
        <pt x="1559" y="91" on="0"/>
        <pt x="1581" y="108" on="1"/>
        <pt x="1592" y="93" on="0"/>
        <pt x="1592" y="54" on="0"/>
        <pt x="1570" y="20" on="0"/>
        <pt x="1552" y="8" on="1"/>
        <pt x="1511" y="-20" on="0"/>
        <pt x="1385" y="-20" on="0"/>
        <pt x="1334" y="12" on="1"/>
        <pt x="1283" y="-20" on="0"/>
        <pt x="1153" y="-20" on="0"/>
        <pt x="1102" y="12" on="1"/>
        <pt x="1051" y="-20" on="0"/>
        <pt x="930" y="-20" on="0"/>
        <pt x="863" y="35" on="0"/>
        <pt x="863" y="73" on="1"/>
        <pt x="863" y="93" on="0"/>
        <pt x="874" y="108" on="1"/>
        <pt x="896" y="91" on="0"/>
        <pt x="930" y="91" on="1"/>
        <pt x="993" y="91" on="0"/>
        <pt x="1023" y="140" on="1"/>
        <pt x="714" y="758" on="1"/>
        <pt x="621" y="649" on="1"/>
        <pt x="621" y="166" on="1"/>
        <pt x="647" y="91" on="0"/>
        <pt x="724" y="91" on="1"/>
        <pt x="757" y="91" on="0"/>
        <pt x="779" y="108" on="1"/>
        <pt x="791" y="95" on="0"/>
        <pt x="791" y="55" on="0"/>
        <pt x="768" y="19" on="0"/>
        <pt x="750" y="6" on="1"/>
        <pt x="712" y="-20" on="0"/>
        <pt x="658" y="-20" on="1"/>
        <pt x="601" y="-20" on="0"/>
      </contour>
      <contour>
        <pt x="359" y="265" on="1"/>
        <pt x="409" y="284" on="0"/>
        <pt x="414" y="396" on="1"/>
        <pt x="420" y="508" on="0"/>
        <pt x="420" y="904" on="0"/>
        <pt x="419" y="1035" on="0"/>
        <pt x="418" y="1075" on="1"/>
        <pt x="415" y="1193" on="0"/>
        <pt x="376" y="1242" on="0"/>
        <pt x="359" y="1250" on="1"/>
        <pt x="359" y="902" on="0"/>
        <pt x="347" y="854" on="1"/>
        <pt x="333" y="814" on="0"/>
        <pt x="279" y="797" on="1"/>
        <pt x="339" y="776" on="0"/>
        <pt x="347" y="746" on="1"/>
        <pt x="359" y="698" on="0"/>
        <pt x="359" y="395" on="1"/>
      </contour>
      <contour>
        <pt x="1064" y="265" on="1"/>
        <pt x="1076" y="281" on="0"/>
        <pt x="1076" y="312" on="1"/>
        <pt x="1076" y="380" on="0"/>
        <pt x="1029" y="467" on="1"/>
        <pt x="834" y="867" on="1"/>
        <pt x="789" y="820" on="1"/>
      </contour>
    </TTGlyph>
    <TTGlyph name="L" xMin="75" yMin="-47" xMax="1326" yMax="1550">
      <contour>
        <pt x="450" y="-20" on="1"/>
        <pt x="384" y="-20" on="0"/>
        <pt x="333" y="12" on="1"/>
        <pt x="282" y="-20" on="0"/>
        <pt x="195" y="-20" on="0"/>
        <pt x="139" y="-5" on="0"/>
        <pt x="118" y="8" on="1"/>
        <pt x="75" y="34" on="0"/>
        <pt x="75" y="73" on="1"/>
        <pt x="75" y="93" on="0"/>
        <pt x="86" y="108" on="1"/>
        <pt x="108" y="91" on="0"/>
        <pt x="142" y="91" on="1"/>
        <pt x="231" y="91" on="0"/>
        <pt x="265" y="167" on="1"/>
        <pt x="265" y="656" on="1"/>
        <pt x="265" y="702" on="0"/>
        <pt x="246" y="724" on="1"/>
        <pt x="216" y="761" on="0"/>
        <pt x="143" y="797" on="1"/>
        <pt x="211" y="828" on="0"/>
        <pt x="231" y="852" on="1"/>
        <pt x="265" y="891" on="0"/>
        <pt x="265" y="940" on="1"/>
        <pt x="265" y="1362" on="1"/>
        <pt x="231" y="1439" on="0"/>
        <pt x="142" y="1439" on="1"/>
        <pt x="108" y="1439" on="0"/>
        <pt x="86" y="1422" on="1"/>
        <pt x="75" y="1437" on="0"/>
        <pt x="75" y="1476" on="0"/>
        <pt x="98" y="1510" on="0"/>
        <pt x="118" y="1522" on="1"/>
        <pt x="164" y="1550" on="0"/>
        <pt x="283" y="1550" on="0"/>
        <pt x="333" y="1517" on="1"/>
        <pt x="385" y="1550" on="0"/>
        <pt x="513" y="1550" on="0"/>
        <pt x="565" y="1517" on="1"/>
        <pt x="621" y="1550" on="0"/>
        <pt x="713" y="1550" on="0"/>
        <pt x="769" y="1535" on="0"/>
        <pt x="790" y="1522" on="1"/>
        <pt x="833" y="1496" on="0"/>
        <pt x="833" y="1457" on="1"/>
        <pt x="833" y="1437" on="0"/>
        <pt x="822" y="1422" on="1"/>
        <pt x="800" y="1439" on="0"/>
        <pt x="726" y="1439" on="0"/>
        <pt x="651" y="1400" on="0"/>
        <pt x="633" y="1361" on="1"/>
        <pt x="633" y="940" on="1"/>
        <pt x="633" y="891" on="0"/>
        <pt x="654" y="867" on="1"/>
        <pt x="687" y="828" on="0"/>
        <pt x="755" y="797" on="1"/>
        <pt x="682" y="761" on="0"/>
        <pt x="662" y="738" on="1"/>
        <pt x="633" y="702" on="0"/>
        <pt x="633" y="656" on="1"/>
        <pt x="633" y="219" on="1"/>
        <pt x="699" y="114" on="0"/>
        <pt x="798" y="114" on="1"/>
        <pt x="1043" y="114" on="0"/>
        <pt x="1113" y="322" on="1"/>
        <pt x="1144" y="414" on="0"/>
        <pt x="1144" y="567" on="0"/>
        <pt x="1123" y="593" on="1"/>
        <pt x="1146" y="612" on="0"/>
        <pt x="1195" y="612" on="0"/>
        <pt x="1237" y="592" on="0"/>
        <pt x="1254" y="572" on="1"/>
        <pt x="1289" y="531" on="0"/>
        <pt x="1289" y="419" on="0"/>
        <pt x="1280" y="389" on="1"/>
        <pt x="1326" y="351" on="0"/>
        <pt x="1326" y="213" on="0"/>
        <pt x="1287" y="170" on="1"/>
        <pt x="1320" y="128" on="0"/>
        <pt x="1320" y="60" on="0"/>
        <pt x="1301" y="11" on="0"/>
        <pt x="1284" y="-8" on="1"/>
        <pt x="1246" y="-47" on="0"/>
        <pt x="1193" y="-47" on="1"/>
        <pt x="1167" y="-47" on="0"/>
        <pt x="1145" y="-36" on="1"/>
        <pt x="1149" y="-14" on="0"/>
        <pt x="1149" y="8" on="1"/>
        <pt x="1149" y="54" on="0"/>
        <pt x="1107" y="54" on="1"/>
        <pt x="1076" y="54" on="0"/>
        <pt x="1021" y="29" on="1"/>
        <pt x="915" y="-20" on="0"/>
        <pt x="644" y="-20" on="0"/>
        <pt x="568" y="15" on="1"/>
        <pt x="516" y="-20" on="0"/>
      </contour>
      <contour>
        <pt x="361" y="265" on="1"/>
        <pt x="411" y="284" on="0"/>
        <pt x="416" y="396" on="1"/>
        <pt x="422" y="508" on="0"/>
        <pt x="422" y="904" on="0"/>
        <pt x="421" y="1035" on="0"/>
        <pt x="420" y="1075" on="1"/>
        <pt x="417" y="1193" on="0"/>
        <pt x="378" y="1242" on="0"/>
        <pt x="361" y="1250" on="1"/>
        <pt x="361" y="902" on="0"/>
        <pt x="349" y="854" on="1"/>
        <pt x="335" y="814" on="0"/>
        <pt x="281" y="797" on="1"/>
        <pt x="341" y="776" on="0"/>
        <pt x="349" y="746" on="1"/>
        <pt x="361" y="698" on="0"/>
        <pt x="361" y="395" on="1"/>
      </contour>
    </TTGlyph>
    <TTGlyph name="Ldot" xMin="75" yMin="-47" xMax="1492" yMax="1550">
      <contour>
        <pt x="450" y="-20" on="1"/>
        <pt x="384" y="-20" on="0"/>
        <pt x="333" y="12" on="1"/>
        <pt x="282" y="-20" on="0"/>
        <pt x="195" y="-20" on="0"/>
        <pt x="139" y="-5" on="0"/>
        <pt x="118" y="8" on="1"/>
        <pt x="75" y="34" on="0"/>
        <pt x="75" y="73" on="1"/>
        <pt x="75" y="93" on="0"/>
        <pt x="86" y="108" on="1"/>
        <pt x="108" y="91" on="0"/>
        <pt x="142" y="91" on="1"/>
        <pt x="231" y="91" on="0"/>
        <pt x="265" y="167" on="1"/>
        <pt x="265" y="656" on="1"/>
        <pt x="265" y="702" on="0"/>
        <pt x="246" y="724" on="1"/>
        <pt x="216" y="761" on="0"/>
        <pt x="143" y="797" on="1"/>
        <pt x="211" y="828" on="0"/>
        <pt x="231" y="852" on="1"/>
        <pt x="265" y="891" on="0"/>
        <pt x="265" y="940" on="1"/>
        <pt x="265" y="1362" on="1"/>
        <pt x="231" y="1439" on="0"/>
        <pt x="142" y="1439" on="1"/>
        <pt x="108" y="1439" on="0"/>
        <pt x="86" y="1422" on="1"/>
        <pt x="75" y="1437" on="0"/>
        <pt x="75" y="1476" on="0"/>
        <pt x="98" y="1510" on="0"/>
        <pt x="118" y="1522" on="1"/>
        <pt x="164" y="1550" on="0"/>
        <pt x="283" y="1550" on="0"/>
        <pt x="333" y="1517" on="1"/>
        <pt x="385" y="1550" on="0"/>
        <pt x="513" y="1550" on="0"/>
        <pt x="565" y="1517" on="1"/>
        <pt x="621" y="1550" on="0"/>
        <pt x="713" y="1550" on="0"/>
        <pt x="769" y="1535" on="0"/>
        <pt x="790" y="1522" on="1"/>
        <pt x="833" y="1496" on="0"/>
        <pt x="833" y="1457" on="1"/>
        <pt x="833" y="1437" on="0"/>
        <pt x="822" y="1422" on="1"/>
        <pt x="800" y="1439" on="0"/>
        <pt x="726" y="1439" on="0"/>
        <pt x="651" y="1400" on="0"/>
        <pt x="633" y="1361" on="1"/>
        <pt x="633" y="940" on="1"/>
        <pt x="633" y="891" on="0"/>
        <pt x="654" y="867" on="1"/>
        <pt x="687" y="828" on="0"/>
        <pt x="755" y="797" on="1"/>
        <pt x="682" y="761" on="0"/>
        <pt x="662" y="738" on="1"/>
        <pt x="633" y="702" on="0"/>
        <pt x="633" y="656" on="1"/>
        <pt x="633" y="219" on="1"/>
        <pt x="699" y="114" on="0"/>
        <pt x="798" y="114" on="1"/>
        <pt x="1043" y="114" on="0"/>
        <pt x="1113" y="322" on="1"/>
        <pt x="1144" y="414" on="0"/>
        <pt x="1144" y="567" on="0"/>
        <pt x="1123" y="593" on="1"/>
        <pt x="1146" y="612" on="0"/>
        <pt x="1195" y="612" on="0"/>
        <pt x="1237" y="592" on="0"/>
        <pt x="1254" y="572" on="1"/>
        <pt x="1289" y="531" on="0"/>
        <pt x="1289" y="419" on="0"/>
        <pt x="1280" y="389" on="1"/>
        <pt x="1326" y="351" on="0"/>
        <pt x="1326" y="213" on="0"/>
        <pt x="1287" y="170" on="1"/>
        <pt x="1320" y="128" on="0"/>
        <pt x="1320" y="60" on="0"/>
        <pt x="1301" y="11" on="0"/>
        <pt x="1284" y="-8" on="1"/>
        <pt x="1246" y="-47" on="0"/>
        <pt x="1193" y="-47" on="1"/>
        <pt x="1167" y="-47" on="0"/>
        <pt x="1145" y="-36" on="1"/>
        <pt x="1149" y="-14" on="0"/>
        <pt x="1149" y="8" on="1"/>
        <pt x="1149" y="54" on="0"/>
        <pt x="1107" y="54" on="1"/>
        <pt x="1076" y="54" on="0"/>
        <pt x="1021" y="29" on="1"/>
        <pt x="915" y="-20" on="0"/>
        <pt x="644" y="-20" on="0"/>
        <pt x="568" y="15" on="1"/>
        <pt x="516" y="-20" on="0"/>
      </contour>
      <contour>
        <pt x="361" y="265" on="1"/>
        <pt x="411" y="284" on="0"/>
        <pt x="416" y="396" on="1"/>
        <pt x="422" y="508" on="0"/>
        <pt x="422" y="904" on="0"/>
        <pt x="421" y="1035" on="0"/>
        <pt x="420" y="1075" on="1"/>
        <pt x="417" y="1193" on="0"/>
        <pt x="378" y="1242" on="0"/>
        <pt x="361" y="1250" on="1"/>
        <pt x="361" y="902" on="0"/>
        <pt x="349" y="854" on="1"/>
        <pt x="335" y="814" on="0"/>
        <pt x="281" y="797" on="1"/>
        <pt x="341" y="776" on="0"/>
        <pt x="349" y="746" on="1"/>
        <pt x="361" y="698" on="0"/>
        <pt x="361" y="395" on="1"/>
      </contour>
      <contour>
        <pt x="970" y="962" on="1"/>
        <pt x="1026" y="997" on="0"/>
        <pt x="1055" y="1040" on="0"/>
        <pt x="1064" y="1057" on="1"/>
        <pt x="1088" y="1102" on="0"/>
        <pt x="1181" y="1153" on="0"/>
        <pt x="1235" y="1153" on="1"/>
        <pt x="1347" y="1153" on="0"/>
        <pt x="1397" y="1059" on="1"/>
        <pt x="1437" y="985" on="0"/>
        <pt x="1492" y="962" on="1"/>
        <pt x="1477" y="953" on="0"/>
        <pt x="1451" y="939" on="0"/>
        <pt x="1440" y="930" on="1"/>
        <pt x="1417" y="911" on="0"/>
        <pt x="1371" y="832" on="0"/>
        <pt x="1286" y="773" on="0"/>
        <pt x="1235" y="773" on="1"/>
        <pt x="1184" y="773" on="0"/>
        <pt x="1089" y="832" on="0"/>
        <pt x="1064" y="877" on="1"/>
        <pt x="1035" y="927" on="0"/>
        <pt x="988" y="954" on="0"/>
      </contour>
      <contour>
        <pt x="1186" y="911" on="0"/>
        <pt x="1179" y="940" on="0"/>
        <pt x="1179" y="1019" on="0"/>
        <pt x="1217" y="1076" on="1"/>
        <pt x="1195" y="1076" on="0"/>
        <pt x="1161" y="1059" on="0"/>
        <pt x="1135" y="1025" on="0"/>
        <pt x="1124" y="1006" on="0"/>
        <pt x="1116" y="996" on="1"/>
        <pt x="1097" y="968" on="0"/>
        <pt x="1085" y="962" on="1"/>
        <pt x="1101" y="953" on="0"/>
        <pt x="1128" y="914" on="0"/>
        <pt x="1146" y="892" on="1"/>
        <pt x="1173" y="860" on="0"/>
        <pt x="1217" y="860" on="1"/>
        <pt x="1211" y="871" on="0"/>
        <pt x="1198" y="890" on="0"/>
      </contour>
    </TTGlyph>
</ttFont>
